<?xml version="1.0" encoding="UTF-8"?>
<svg xmlns="http://www.w3.org/2000/svg" version="1.1" viewBox="0 0 360 420">
  <!-- Generator: Adobe Illustrator 29.0.0, SVG Export Plug-In . SVG Version: 2.1.0 Build 186)  -->
  <defs>
    <style>
      .st0 {
        fill: #70c642;
      }

      .st1, .st2 {
        fill: #fff;
      }

      .st3 {
        isolation: isolate;
      }

      .st4 {
        mix-blend-mode: multiply;
      }

      .st4, .st5 {
        fill: #b8e4ef;
      }

      .st2 {
        opacity: .4;
      }

      .st6 {
        fill: #344861;
      }

      .st7 {
        fill: #70f731;
      }
    </style>
  </defs>
  <g class="st3">
    <g id="Capa_1">
      <g>
        <circle class="st5" cx="278.5" cy="145.2" r="67.1" transform="translate(-34.5 170.5) rotate(-32.2)"/>
        <path class="st5" d="M256.3,8.6l-36.4,11.2c-2.7.8-4.3,3.7-3.4,6.5s3.7,4.3,6.5,3.4l2-.6,31.8,103.1,32.3-10-31.8-103.1,2-.6c2.7-.8,4.3-3.7,3.4-6.5s-3.7-4.3-6.5-3.4Z"/>
        <path class="st7" d="M224.7,155.1c.4,2,.9,4.1,1.5,6.1,8.9,28.8,39.5,45,68.3,36.1s45-39.5,36.1-68.3c-.6-2-1.4-4-2.2-5.9l-103.8,32Z"/>
        <g>
          <path class="st6" d="M333.5,67.6c-1.5,3.1-5.2,4.4-8.4,3l-21.1-10.1c-3.1-1.5-4.4-5.2-3-8.4h0c1.5-3.1,5.2-4.4,8.4-3l21.1,10.1c3.1,1.5,4.4,5.2,3,8.4h0Z"/>
          <path class="st5" d="M333.8,69.4l-34.4-16.4c-2.6-1.2-5.7-.1-6.9,2.4-1.2,2.6-.1,5.7,2.4,6.9l1.9.9-25.4,53.4,30.5,14.6,25.4-53.4,1.9.9c2.6,1.2,5.7.1,6.9-2.4,1.2-2.6.1-5.7-2.4-6.9Z"/>
        </g>
        <path class="st0" d="M282.8,137.5c1.5,5-1.3,10.3-6.2,11.8s-10.3-1.3-11.8-6.2,1.3-10.3,6.2-11.8,10.3,1.3,11.8,6.2Z"/>
        <path class="st2" d="M263.1,168.3c.9,2.8-.7,5.7-3.5,6.6s-5.7-.7-6.6-3.5.7-5.7,3.5-6.6,5.7.7,6.6,3.5Z"/>
        <path class="st2" d="M307.8,174.1c.5,1.6-.4,3.3-2,3.8s-3.3-.4-3.8-2,.4-3.3,2-3.8,3.3.4,3.8,2Z"/>
        <path class="st0" d="M290.6,97.7c1,3.2-.8,6.5-4,7.5s-6.5-.8-7.5-4c-1-3.2.8-6.5,4-7.5s6.5.8,7.5,4Z"/>
        <path class="st4" d="M299.4,52.9c-2.6-1.2-5.7-.1-6.9,2.4-1.2,2.6-.1,5.7,2.4,6.9l1.9.9-7.5,15.7c-4.6-.8-9.2-1.1-13.9-.9l-18.2-58.9,2-.6c2.7-.8,4.3-3.7,3.4-6.5s-3.7-4.3-6.5-3.4l-17.6,5.4,60.1,195.1c35-11.2,54.6-48.5,43.8-83.7-4.1-13.4-12.1-24.6-22.3-32.7l7.1-14.9,1.9.9c2.6,1.2,5.7.1,6.9-2.4,1.2-2.6.1-5.7-2.4-6.9l-34.4-16.4Z"/>
        <path class="st1" d="M240.4,109.5c4.6-1.4,2.4-8.5-2.2-7.1s-2.4,8.5,2.2,7.1h0Z"/>
        <path class="st1" d="M234.3,140.6c.2-6.8,2.4-12.9,5.9-18.7,2.5-4.1-4-7.5-6.5-3.5-4.2,6.9-6.5,14.3-6.8,22.4-.2,4.8,7.2,4.5,7.4-.2h0Z"/>
      </g>
    </g>
  </g>
</svg>