<?xml version="1.0" encoding="UTF-8"?>
<svg id="Capa_1" xmlns="http://www.w3.org/2000/svg" version="1.1" viewBox="0 0 595.28 841.89">
  <!-- Generator: Adobe Illustrator 29.0.0, SVG Export Plug-In . SVG Version: 2.1.0 Build 186)  -->
  <defs>
    <style>
      .st0, .st1 {
        fill: #fff;
      }

      .st1 {
        opacity: .5;
      }

      .st2 {
        fill: #66c668;
      }

      .st3 {
        fill: #231f20;
      }

      .st4 {
        fill: #2d8c68;
      }

      .st5 {
        fill: #9eff40;
      }
    </style>
  </defs>
  <path class="st4" d="M553.74,507.42c15.77,24.48-14.29,31.44-23.04,10.18-3.04-7.39-11.98-32.05-30.78-29.95-26.17,2.92-26.01,22.25-34.59,37.1-5.88,10.17-18.21,7.89-23.49,5.11-5.69-3,3.78-53.5-31.19-15.13-8.28,9.08-31.29,23.33-43.95,18.78-17.36-6.24,6.36-34.78-16.35-40.36-12.81-3.15-42.03-8.46-48.09,6.11-3.13,7.52,4.28,26.43-.15,32.5-4.66,6.4-18.78,2.9-23.62-1.35-11.03-9.69-13.72-39.29-35.23-30.83-7.09,2.79-33.88,46.14-60.1,31.02-8.82-5.09,12.78-23.99,8.04-29.38-10.96-12.46-46.17,11.16-54.31,19.03-12.02,11.62-49.48,12.67-35.85-10.85,5.25-9.05,22.64-19.52,50.63-56.78l377,1.65c-2.03,30.83,18.6,43.08,25.08,53.14Z"/>
  <path class="st2" d="M148.48,180.06c-.78-16.47,32.94-51.32,20.68-71.24-9.01-14.63-44.43-22.21-55.92,1.53-8.53,17.63-7.66,51.32-3.06,81.97,2.56,17.08,27.83,275.03,32.33,323.24,2.14,23,21.37,32.76,29.45,11.24,2.81-7.49,4.87-34.19,23.72-32.69,26.25,2.1,16.46,21.43,25.51,36,6.2,9.98,18.38,7.06,23.57,4.11,5.59-3.18,4.84-53.11,41.01-15.85,8.56,8.82,32.01,22.33,44.52,17.39,17.16-6.78-7.45-34.56,15.07-40.86,12.71-3.55,41.74-9.78,48.26,4.6,3.36,7.41-3.44,26.55,1.17,32.48,4.86,6.25,18.86,2.31,23.57-2.09,10.72-10.03,12.48-39.7,34.25-31.92,7.18,2.57,35.32,45.05,61.05,29.11,8.66-5.36-13.53-23.57-8.96-29.11,10.56-12.8,46.49,9.7,54.88,17.32,12.38,11.24,38.39,11.3,35.49-11.98-1.88-15.06-47.22-25.99-94.97-124.07-8.28-17-53.62-66.64-97.29-108.01-15.8-14.97-69.19-43.88-70.25-65.1-.98-19.55,3.06-37.76,3.06-57.25,0-17.97-1.81-32.46-15.54-46.18-12.18-12.16-42.7-8.37-50.56,7.66-14.41,29.42,17.62,33.71,13.02,91.16-2.75,34.37-45.2,30.64-73.54,29.11-68.71-3.71-59.5-29.09-60.52-50.56Z"/>
  <path class="st4" d="M152.27,260.2c-5.33,3.04,8.43,24.98,55.16,28.6,56.82,4.4,89.37-25.54,81.71-31.66-3.65-2.92-31.66,13.28-78.14,12.26-47.58-1.05-54.93-11.36-58.73-9.19Z"/>
  <path class="st5" d="M183.16,267.61s-15.07,10.72-19.15,28.09c-4.09,17.36-13.79,71.24,22.47,73.29,34.72,1.96,18.39-37.79,16.34-54.14-2.04-16.34-1.02-33.2,4.6-37.28,5.62-4.09,11.75-8.17,11.75-8.17,0,0-12.26.51-20.94-.51-8.68-1.02-15.07-1.28-15.07-1.28Z"/>
  <g>
    <path class="st4" d="M322.11,126.16c0,11.9-9.65,21.55-21.55,21.55s-21.55-9.65-21.55-21.55,9.65-21.55,21.55-21.55,21.55,9.65,21.55,21.55Z"/>
    <circle class="st0" cx="300.07" cy="126.16" r="18.61"/>
    <path class="st3" d="M315.74,122.73c0,4.33-3.51,7.84-7.84,7.84s-7.84-3.51-7.84-7.84,3.51-7.84,7.84-7.84,7.84,3.51,7.84,7.84Z"/>
    <path class="st0" d="M305.82,120.53c0,2.1-1.7,3.8-3.8,3.8s-3.8-1.7-3.8-3.8,1.7-3.8,3.8-3.8,3.8,1.7,3.8,3.8Z"/>
  </g>
  <g>
    <path class="st4" d="M162.43,124.53c0,11.9-9.65,21.55-21.55,21.55s-21.55-9.65-21.55-21.55,9.65-21.55,21.55-21.55,21.55,9.65,21.55,21.55Z"/>
    <circle class="st0" cx="140.39" cy="124.53" r="18.61"/>
    <circle class="st3" cx="148.23" cy="121.11" r="7.84"/>
    <path class="st0" d="M146.14,118.9c0,2.1-1.7,3.8-3.8,3.8s-3.8-1.7-3.8-3.8,1.7-3.8,3.8-3.8,3.8,1.7,3.8,3.8Z"/>
  </g>
  <path class="st1" d="M192.1,268.37s-9.39,9.85-13.53,19.41c-11.75,27.07.77,53.11.77,53.11l4.09,5.11s-14.04-23,.26-53.88c6.38-13.79,21.45-22.98,21.45-22.98l-13.02-.77Z"/>
  <g>
    <path class="st5" d="M356.04,334.54c7.54-5.6,10.52-16,14.3-24.29,7.67-16.82,20.11-12.7,18.49-33.01-.66-8.25-1.05-14.64-2.53-20.03l-20.45-13.29c1.58,8.65.65,9.26.18,19.35-.18,3.96-2.24,6.91-1.87,11.24.42,4.96,3.42,7.93,2.89,13.28-.89,9.03-8.79,15.54-13.82,22.42-2.61,3.57-12.99,15.7-13.33,19.66-.9,10.63,10.05,9.2,16.14,4.68Z"/>
    <path class="st5" d="M426.29,316.33c5.61-11.28.12-9.16.92-22.01l-23.83-22.14c-3.73,5.66-2.78,16.38-2.18,23.75,3.02,36.56-6.55,19.4-13.45,28.67-5.66,7.61-4.88,22.06-11.58,28.55-6.38,6.18-17.18,2.64-24.02,8.45-12.49,10.61-5.76,36.22,3.36,15.59,4.01-9.07,14.72-5.34,20.96-9.74,7.1-5,23.15-4.08,23.55-13.02,1.05-23.42,20.71-26.9,26.28-38.1Z"/>
    <path class="st5" d="M443.45,346.19c2.23-5.08,15.75-16,13.29-21.3l-12.65-12.23c-3,6.99-1.39,8.14-5.05,15.98-4.61,9.85-22.09,15.56-18.6,25.53,5.1,14.58-2.95,15.45-10.5,23.49-3.24,3.45-15.61,13.7-8.22,19.71,5.82,4.74,30.99-21.63,36.07-25.84,13.77-11.4-1-10.2,5.67-25.34Z"/>
    <path class="st5" d="M475.32,393.79c5.24.91,7.14-9,7.35-14.7.09-2.42,8.63-12.97,8.01-14.55l-14.34-16.45c-5.43,8.21-3.98,9.35-11.23,16.33-7.48,7.19-9.45,11.81-11.27,21.2-4.49,23.21-41.97,33.38-19.15,33.93,9.96.24,12.93-5.86,19.12-12.48,6.66-7.13,12.17-14.89,21.51-13.27Z"/>
    <path class="st5" d="M504.18,387.52c-4.81,3.79-5.17,1.15-5.14,7.5.08,15.06-9.9,6.2-14.07,10.45-3.84,3.92-17.11,27.88-10.46,29.41,4.59,1.06,5.68-11.91,11.33-14.68,6.26-3.06,17.19,7.78,21.72,1.9,4.09-5.31,3.6-10.02,7.38-15.6l-10.75-18.98Z"/>
    <path class="st5" d="M341.16,260.65c2.2-2.02,5.13-3.33,7.37-5.31,7.52-6.66,14.02-9.35,8.24-18.47-3.17-5-13.32-11.73-13.32-11.73-.11,2.96,1.74,5.48,1.69,8.46-.06,3.61-2.22,7.07-3.98,10.16-3.24,5.68-8.14,9.93-11.26,15.55-2.89,5.21-3.6,10.81-3.37,16.84.12,3.23,2.03,5.08,2.37,8.2.29,2.75-2.32,5.43.68,6.69,8.53,3.57,7.93-15.86,8.14-19.64.22-3.87.35-7.92,3.44-10.75Z"/>
  </g>
</svg>