<?xml version="1.0" encoding="UTF-8"?>
<svg id="Capa_1" xmlns="http://www.w3.org/2000/svg" version="1.1" viewBox="0 0 40 40">
  <!-- Generator: Adobe Illustrator 29.0.0, SVG Export Plug-In . SVG Version: 2.1.0 Build 186)  -->
  <defs>
    <style>
      .st0 {
        fill: #010101;
      }

      .st0, .st1, .st2, .st3, .st4, .st5, .st6, .st7, .st8, .st9, .st10 {
        fill-rule: evenodd;
      }

      .st1 {
        fill: #fefefe;
      }

      .st2 {
        fill: #fefdfd;
      }

      .st3 {
        fill: #fdfcfb;
      }

      .st4 {
        fill: #fff;
      }

      .st5, .st7 {
        fill: #ce9030;
      }

      .st6 {
        fill: #fdfdfc;
      }

      .st7 {
        opacity: .6;
      }

      .st8 {
        fill: #fefefd;
      }

      .st9 {
        fill: #fbb03b;
      }
    </style>
  </defs>
  <g>
    <path class="st5" d="M30.5,11.6c.2.5.4,1,.6,1.5.4,1.2.6,2.4.9,3.6.3,1.2.4,2.3.6,3.5,0,.5,0,1,0,1.4-.1,1.5-.2,2.9-.4,4.4-.2,1.5-.4,3.1-1,4.5-.3.7-.7,1.3-1.1,1.9-.2.2-.2.3,0,.4.8.8,1.4,1.8,1.6,2.9.1.5.3.9.5,1.3.3.6.7,1,1.2,1.3,0,0,.1,0,.2.1.2.1.3.3.2.5,0,.2-.2.3-.3.4-.5.2-1.1.2-1.6.2-.5,0-1,0-1.5,0-.4,0-.7-.1-1-.4-.8-.7-1.6-1.5-2.2-2.5-.2-.3-.4-.5-.6-.6-.4-.3-.8-.6-1.4-.8,0,.3,0,.5,0,.7.3.7.5,1.4.8,2.1.1.3.3.6.6.8.2.2.5.4.4.7-.1.3-.5.3-.7.3-.5,0-1,0-1.5,0-.4,0-.8,0-1.1-.3-1.3-.8-2.4-1.9-3.1-3.3,0,0,0,0,0-.1-.2.1-.2.3-.3.4-.7,1.2-1.7,2-3,2.7-.8.4-1.6.4-2.5.3-.5,0-.6-.5-.3-.8.9-1,1-2.2,1-3.5,0,0,0-.2,0-.3,0,0,0-.1,0-.2-.2.2-.4.3-.6.5-.5.5-1,1-1.4,1.7-.5.8-1.1,1.4-1.9,1.9-1.4,1-2.9,1-4.4.5-.2,0-.4-.1-.5-.2-.2,0-.3-.2-.3-.4,0-.2.1-.3.3-.4.2,0,.4-.2.6-.3.6-.3,1.1-.7,1.4-1.3.5-.8.8-1.7,1-2.6.2-.9.7-1.7,1.4-2.3.2-.2.1-.3,0-.4-.8-1.1-1.1-2.4-1.3-3.8,0-.4,0-.8-.1-1.2,0-1.8-.2-3.7-.1-5.5,0-1.8.4-3.6.8-5.4.1-.5.2-1,.3-1.4.2-1,.6-2,.7-3,.2,0,.3.1.3.3.2.8.6,1.6.6,2.5,0,.9.5,1.6.9,2.3.5.9,1.1,1.7,1.8,2.5.8.9,1.9,1.4,2.9,2,.9.5,1.8.7,2.8.6.1,0,.3,0,.4,0,1.8.1,3.4-.5,4.8-1.5,1.1-.8,2-1.9,2.7-3.1.9-1.4,1.5-2.9,1.9-4.5,0-.2,0-.5.3-.6Z"/>
    <path class="st9" d="M30.5,11.6c-.2.5-.3,1.1-.5,1.6-.3.8-.6,1.6-1,2.4-.6,1.1-1.2,2.2-2.2,3.1-.6.6-1.1,1.2-1.8,1.6-.9.5-2,.9-3,1.1-.3,0-.6,0-.9,0-.4,0-.9,0-1.3,0-.6,0-1.2,0-1.7-.3-1-.5-2-1-2.9-1.7-.7-.5-1.3-1.3-1.7-2-.5-.8-1-1.6-1.4-2.5-.1-.3-.5-2.5-.8-3.4,0-.1,0-.3-.2-.3.2-.7.4-1.4.6-2.2.5-1.9,1.2-3.8,2.1-5.5.5-1,1-1.9,1.6-2.9,0-.1.2-.3.3-.4.5-.5,1.1-.3,1.3.3,0,.2.1.5.2.7,0,.2,0,.3.2.5.2,0,.2-.3.3-.4,0-.2.1-.4.2-.5.2-.4.4-.7.9-.7.5,0,.7.3.8.7,0,.2.2.4.3.6,0,.1.1.3.3.3.1-.2.2-.4.2-.6,0-.2.1-.4.2-.6.3-.6.8-.7,1.4-.3.3.2.6.5.8.8,0,.1.1.2.3.3.1-.2.2-.4.2-.6.3-.9,1-.9,1.7-.6.6.3,1.1.8,1.6,1.4.9,1.1,1.5,2.3,2,3.6.5,1.5,1.1,3,1.5,4.6.2.6.4,1.3.6,1.9Z"/>
    <path class="st10" d="M16.6,16.7s0,0,0,0c-.7,0-.7,0-.6-.7.1-1.2.6-2.1,1.4-3,.1-.1.2-.2.4-.3.2.2.2.4.3.6.1.2.3.5.6.5.3,0,.5-.3.6-.5.1-.3.2-.6.2-1,0-.2,0-.4.1-.5.3-.1.3.2.3.3.2.2.2.5.3.8.1.4.3.7.8.7.4,0,.6-.4.7-.7.2-.3,0-.7.3-.9.2,0,.3,0,.3.3,0,.2,0,.4,0,.6.2.1.1.3.2.5,0,.1,0,.2.1.3.1.2.3.5.6.5.3,0,.4-.3.4-.5,0,0,0-.1.1-.2,0,0,0-.3.2-.1.7.9,1.1,1.9,1.1,3.1,0,.2,0,.2-.2.2-.1,0-.3,0-.4,0-.2-.2-.2-.5-.3-.8,0-.2-.2-.5-.5-.5-.3,0-.4.3-.5.5-.1.3-.1.6-.3.8-.2,0-.3,0-.5,0-.1-.1-.1-.2-.1-.4,0-.2,0-.4-.1-.6-.1-.3-.2-.6-.6-.6-.3,0-.4.3-.5.6-.1.2,0,.5-.2.6,0,0,0,0,0,0q0,.3-.4.3c-.2-.2-.1-.4-.1-.6,0-.6-.3-1-.6-1-.3,0-.6.3-.8.9,0,.2,0,.4-.2.5,0,.1,0,.4-.3.2-.2-.2-.1-.5-.2-.8-.1-.3-.2-.6-.6-.6-.4,0-.5.2-.7.5-.1.3-.1.6-.3.9Z"/>
    <path class="st4" d="M27,9.1c.1,1-.9,2.3-2.3,2.3-1.3,0-2.4-1.1-2.4-2.3,0-1.3,1.1-2.3,2.3-2.3,1.3,0,2.4,1.2,2.3,2.4Z"/>
    <path class="st4" d="M19,9.1c.2,1.2-1,2.3-2.3,2.3-1.3,0-2.3-1.1-2.3-2.3,0-1.3,1-2.3,2.3-2.3,1.2,0,2.4,1.1,2.3,2.3Z"/>
    <path class="st1" d="M22,12.1c0,.3,0,.7-.2,1-.2.5-.4.7-.8.7-.4,0-.7-.2-.9-.7-.1-.3-.2-.6-.2-.9q0-.4.4-.5c.4,0,.8,0,1.3.1.1,0,.3,0,.4.2Z"/>
    <path class="st8" d="M19.6,11.9c0,.4,0,.8,0,1.2,0,.2-.2.5-.3.7-.3.4-.8.4-1.1,0-.2-.3-.3-.6-.4-1,0,0,0-.1,0-.1.5-.4,1.1-.8,1.8-.8Z"/>
    <path class="st2" d="M18.8,16.4c0-.5.2-.9.5-1.3.4-.4.8-.4,1,.1.2.4.3.9.3,1.4-.5,0-1,0-1.5,0-.2,0-.3-.1-.3-.3Z"/>
    <path class="st1" d="M23.8,13.5c0,.2,0,.4-.2.6-.2.3-.5.4-.8,0-.4-.3-.5-.8-.5-1.3,0-.3,0-.5,0-.8.6.3,1.1.6,1.4,1,0,.1,0,.3,0,.4Z"/>
    <path class="st1" d="M16.6,16.7c0-.3,0-.6.1-.9,0-.1.1-.2.2-.3.2-.2.4-.4.7-.4.3,0,.5.3.6.5.1.3.2.7.2,1-.6,0-1.2,0-1.8,0Z"/>
    <path class="st6" d="M21,16.3c0-.3,0-.7.2-1,0-.2.2-.4.5-.4.3,0,.4.1.6.4.2.4.3.9.3,1.4-.4,0-.8,0-1.2,0-.4,0-.4,0-.4-.4Z"/>
    <path class="st3" d="M23,16.7c0-.4.1-.8.3-1.1.2-.5.7-.4.9,0,.2.3.2.7.3,1,0,0,0,.1,0,.2-.5,0-1,0-1.5,0Z"/>
    <path class="st0" d="M25.7,9.1c0,.6-.4,1.1-1,1-.6,0-1-.5-1.1-1.1,0-.6.5-1.1,1.1-1.1.5,0,1.1.5,1,1.1Z"/>
    <path class="st0" d="M16.7,8.1c.6,0,1,.5,1,1.1,0,.6-.4,1.1-1,1.1-.6,0-1.1-.5-1.1-1.1,0-.6.5-1,1.1-1Z"/>
  </g>
  <path class="st7" d="M15.5,13.3c0,.6-.5,1.2-1.2,1.2s-1.2-.5-1.2-1.2.5-1.2,1.2-1.2,1.2.5,1.2,1.2Z"/>
  <path class="st7" d="M27.5,13.3c0,.6-.5,1.2-1.2,1.2s-1.2-.5-1.2-1.2.5-1.2,1.2-1.2,1.2.5,1.2,1.2Z"/>
</svg>