<?xml version="1.0" encoding="UTF-8"?>
<svg xmlns="http://www.w3.org/2000/svg" version="1.1" viewBox="0 0 1920 812">
  <!-- Generator: Adobe Illustrator 29.0.0, SVG Export Plug-In . SVG Version: 2.1.0 Build 186)  -->
  <defs>
    <style>
      .st0, .st1, .st2 {
        fill: #fffcf9;
      }

      .st3 {
        fill: #af71a9;
        opacity: .5;
      }

      .st4 {
        stroke: #ef476f;
      }

      .st4, .st5, .st6 {
        stroke-miterlimit: 10;
      }

      .st4, .st6 {
        fill: none;
      }

      .st7 {
        fill: #37474f;
      }

      .st8 {
        fill: #8ceaf4;
      }

      .st9, .st10, .st11, .st12, .st13, .st14, .st15, .st16 {
        mix-blend-mode: multiply;
      }

      .st9, .st17, .st18, .st16 {
        fill: #6db9f2;
      }

      .st9, .st18 {
        opacity: .4;
      }

      .st19 {
        opacity: .5;
      }

      .st20, .st5 {
        fill: #9a4e9e;
      }

      .st21 {
        fill: #20b5bc;
      }

      .st22 {
        fill: #f79cea;
      }

      .st23 {
        fill: #26547c;
      }

      .st10, .st24, .st25 {
        fill: #56b848;
      }

      .st11, .st12 {
        opacity: .3;
      }

      .st26 {
        fill: #726754;
      }

      .st27, .st28 {
        fill: #fff;
      }

      .st29 {
        fill: #082a44;
      }

      .st30 {
        opacity: .5;
      }

      .st12, .st14, .st31 {
        fill: #ef476f;
      }

      .st13, .st15, .st32 {
        fill: #38d68a;
      }

      .st33 {
        fill: #f89728;
      }

      .st34 {
        fill: #f0cc6b;
      }

      .st35 {
        fill: #66c668;
      }

      .st1 {
        opacity: .4;
      }

      .st36 {
        fill: #231f20;
      }

      .st37 {
        isolation: isolate;
      }

      .st38 {
        fill: #2d8c68;
      }

      .st39 {
        fill: #fceaed;
      }

      .st2 {
        opacity: .5;
      }

      .st15 {
        opacity: .5;
      }

      .st5 {
        stroke: #9a4e9e;
        stroke-width: .5px;
      }

      .st40 {
        fill: #285e8e;
      }

      .st41 {
        fill: #3579c4;
      }

      .st42 {
        fill: #edf1f4;
        fill-rule: evenodd;
      }

      .st25 {
        font-family: VAGRoundedStd-Black, 'VAG Rounded Std';
        font-size: 10.2px;
        font-weight: 800;
      }

      .st43 {
        fill: #f6feff;
      }

      .st44 {
        fill: #9eff40;
      }

      .st6 {
        stroke: #26547c;
        stroke-width: 2px;
      }

      .st28 {
        opacity: .3;
      }

      .st45 {
        fill: #ffbbef;
      }

      .st46 {
        fill: #204c6d;
      }

      .st47 {
        opacity: .5;
      }

      .st48 {
        fill: #6fcc62;
      }

      .st49 {
        fill: #288e8b;
      }
    </style>
  </defs>
  <g class="st37">
    <g id="Capa_1">
      <path class="st42" d="M1920,0v715c-46.7,9.3-102.5-12.6-151.1-3.5-48.1,9.1-90.4,50.7-140.5,58-48.6,7.1-103.4-20.4-153.8-15-49,5.2-95.1,43.5-145.5,47-49.3,3.4-101.4-27.9-151.9-26.2-49.5,1.7-98.8,36.6-149.2,36.6s-99.7-34.9-149.2-36.6c-50.5-1.7-102.6,29.6-151.9,26.2-50.4-3.5-96.5-41.8-145.5-47-50.3-5.4-105.1,22.1-153.8,15-50.1-7.3-92.4-49-140.5-58-49.8-9.4-107.2,13.5-154.7,2.3-49-11.5-86.3-56.1-132.4-69.9V0h1920Z"/>
      <g>
        <path class="st0" d="M108.3,137.3s101.9-59.7,106.7-60.2c4.8-.5,73.1,101.8,83,128.7,0,0-75.8,54.7-106.9,59,0,0-36-32.8-82.9-127.5Z"/>
        <g>
          <polygon class="st17" points="241.2 282.7 221.9 275.7 216 295.3 192.4 248.1 217.6 235.5 241.2 282.7"/>
          <rect class="st16" x="196.6" y="240.5" width="28.2" height="25.5" transform="translate(-90.9 120.8) rotate(-26.5)"/>
        </g>
        <path class="st31" d="M98,142.8s102-60.9,106.8-61.4c4.8-.5,73.4,104.4,83.4,131.9,0,0-75.8,55.8-106.9,60.2,0,0-36.1-33.6-83.3-130.7Z"/>
        <path class="st12" d="M231.4,217.2c-28,7.1-57.7,1.2-81.6-14.8-17-11.4-31.5-26.3-43.5-42.9,43,84.2,74.9,114,74.9,114,31.1-4.3,106.9-60.2,106.9-60.2-2-5.5-6.3-14-11.9-24.1-12,13.3-27.2,23.5-44.9,28Z"/>
        <path class="st14" d="M187.8,267c-.4-.4-.7-.9-.8-1.4-9.1-9.6-40.9-46.3-80.6-127.8-5.3,3.1-8.4,5-8.4,5,47.2,97,83.3,130.7,83.3,130.7,3.1-.4,6.6-1.4,10.4-2.7-1.3-1.2-2.6-2.5-3.8-3.8Z"/>
        <path class="st23" d="M190.7,271.6c-34-32.5-84.5-132.4-85-133.4l1.4-.7c.5,1,50.9,100.7,84.7,133l-1.1,1.2Z"/>
        <polygon class="st34" points="130.5 149.3 148.7 176.2 217.2 137.7 200.4 109.1 130.5 149.3"/>
        <polygon class="st4" points="137.4 151.8 149.9 171.7 210.5 136.6 198.4 116 137.4 151.8"/>
        <path class="st6" d="M209.2,79.5s66.1,86.5,82.2,129.9"/>
        <path class="st6" d="M212.7,76.9s66,85.8,82.1,129.2"/>
      </g>
      <g>
        <path class="st18" d="M1791.5,525.4c-23.6-12.1-79.6-43.8-130.5-94.6.5-1.9,0-3.9-1.5-5.4h0c-1.4-1.3-3.3-1.8-5.1-1.4,0,0,0,0,0,0h0c-1,.3-1.9.8-2.6,1.6l-6.1,6.4-2.2,2.3-6.1,6.4c-.7.8-1.2,1.7-1.4,2.7h0c0,0,0,0,0,0-.3,1.8.2,3.7,1.6,5h0c1.5,1.4,3.6,1.8,5.4,1.3,53.1,48.6,87.2,103.1,100.4,126.2,7,27.3,19.7,73.1,28.8,81,12.1,10.5,33.3-4.5,65.6-39.1,33.1-33.9,47.1-55.7,36.1-67.3-8.3-8.7-54.6-19.4-82.2-25.1Z"/>
        <path class="st32" d="M1788.7,564.4c-6.4,8.4-17.1,9.2-25.7,14.2-2.2,1.3-4.1,2.8-5.9,4.4l24.3,59.6c35.3-2.6,84-75.6,79-81.4-3.4-4.1-40.1-17.1-62.5-24.8-3.3,9.5-2.9,19.6-9.2,28Z"/>
        <path class="st13" d="M1826.3,579.8c-5.1,13.6-16.4,21.5-29.2,27.1-8.8,3.9-17.9,7.4-24.6,13.7l9,22.1c35.3-2.6,84-75.6,79-81.4-2-2.4-16.2-8.1-32-14,.7,11,1.9,21.8-2.2,32.5Z"/>
        <g class="st19">
          <path class="st0" d="M1781,528.6c-.3.4-.9.5-1.4.3-26.7-10.9-59-35.9-81.5-54.9-24.3-20.6-42.5-38.8-42.7-39-.5-.5-.5-1.3,0-1.8.5-.5,1.3-.5,1.8,0,.7.7,72.7,72.7,123.3,93.4.6.3.9,1,.7,1.6,0,.1-.1.3-.3.4Z"/>
        </g>
        <g class="st19">
          <path class="st0" d="M1857.2,589.7c-.5.5-1.2.5-1.7,0-.5-.5-.6-1.2-.1-1.8.2-.2,16-18.5,13.5-28.7-.6-2.5-2.4-4.3-5.4-5.4-17.9-6.7-44.3-14.5-44.6-14.5-.7-.2-1-.9-.8-1.5.2-.7.9-1,1.5-.8.3,0,26.8,7.9,44.7,14.6,3.8,1.4,6.1,3.8,6.9,7.2,2.9,11.5-13.3,30.1-14,30.9,0,0,0,0,0,0Z"/>
        </g>
        <path class="st2" d="M1769.5,548.5c2.1,2,2.1,5.2.2,7.3-2,2.1-5.2,2.1-7.3.2-2.1-2-2.1-5.2-.2-7.3,2-2.1,5.2-2.1,7.3-.2Z"/>
        <path class="st2" d="M1813.7,559.9c2.1,2,2.1,5.2.2,7.3-2,2.1-5.2,2.1-7.3.2-2.1-2-2.1-5.2-.2-7.3s5.2-2.1,7.3-.2Z"/>
        <path class="st2" d="M1798.7,590.3c1.6,1.5,1.7,4.1.1,5.7-1.5,1.6-4.1,1.7-5.7.1s-1.7-4.1-.1-5.7c1.5-1.6,4.1-1.7,5.7-.1Z"/>
        <path class="st2" d="M1745.8,528c1.6,1.5,1.7,4.1.1,5.7s-4.1,1.7-5.7.1c-1.6-1.5-1.7-4.1-.1-5.7,1.5-1.6,4.1-1.7,5.7-.1Z"/>
        <path class="st2" d="M1795.2,620.9c1.6,1.5,1.7,4.1.1,5.7s-4.1,1.7-5.7.1-1.7-4.1-.1-5.7c1.5-1.6,4.1-1.7,5.7-.1Z"/>
        <path class="st2" d="M1776.6,585.6c1.6,1.5,1.7,4.1.1,5.7-1.5,1.6-4.1,1.7-5.7.1-1.6-1.5-1.7-4.1-.1-5.7,1.5-1.6,4.1-1.7,5.7-.1Z"/>
        <path class="st2" d="M1836.7,577.5c1.6,1.5,1.7,4.1.1,5.7-1.5,1.6-4.1,1.7-5.7.1s-1.7-4.1-.1-5.7,4.1-1.7,5.7-.1Z"/>
        <path class="st2" d="M1728.4,520.4c1,1,1.1,2.6,0,3.7-1,1-2.6,1.1-3.7,0-1-1-1.1-2.6,0-3.7,1-1,2.6-1.1,3.7,0Z"/>
        <path class="st28" d="M1829.8,624.8c-29.1.6-54-16-71.8-37.9-20.9-25.8-36-55.9-54.6-83.3-17.4-25.6-37.6-48.7-63-66.2l-3.2,3.3c-.7.8-1.2,1.7-1.4,2.7h0c0,0,0,0,0,0-.3,1.8.2,3.7,1.6,5h0c1.5,1.4,3.6,1.8,5.4,1.3,53.1,48.6,87.2,103.1,100.4,126.2,7,27.3,19.7,73.1,28.8,81,11.3,9.8,30.4-2.6,59.1-32.2-.4,0-.8,0-1.3,0Z"/>
      </g>
      <g>
        <path class="st18" d="M406.4,551l-44.7,79s-3.9,9.3,2.1,15.2l-.2.3c.7.5,1.4.8,2,1.1.6.4,1.3.8,2,1.1l.2-.3c8.1,2,14-6.2,14-6.2l43.4-79.8-18.9-10.5Z"/>
        <path class="st31" d="M389.4,590.2l-21.3,37.8s-3.6,8,0,12.2l-.2.3c.4.3.8.5,1.3.7.4.3.8.5,1.3.7l.2-.3c5.4.8,10.3-6.5,10.3-6.5l20.8-38.1-12.3-6.8Z"/>
        <g class="st30">
          <path class="st0" d="M366.2,642.7c-.4-.2-.6-.7-.4-1.2.2-.5.7-.7,1.2-.5,0,0,3,1.3,6.6-.1,3.5-1.4,6.4-4.8,8.6-10.1,6.3-15.2,34.6-66,34.8-66.5s.8-.6,1.2-.4.6.8.4,1.2-28.5,51.3-34.8,66.4c-2.4,5.8-5.7,9.6-9.7,11.2-4.3,1.7-7.8.1-8,0,0,0,0,0,0,0Z"/>
        </g>
        <path class="st18" d="M439.9,569.6l-44.7,79s-3.9,9.3,2.1,15.2l-.2.3c.7.5,1.4.8,2,1.1.6.4,1.3.8,2,1.1l.2-.3c8.1,2,14-6.2,14-6.2l43.4-79.8-18.9-10.5Z"/>
        <path class="st34" d="M433.9,589.3l-30,53.4s-5.4,11.2-2.2,16.1l-.2.4c.4.3.8.6,1.3.7.4.3.8.5,1.3.7l.2-.4c5.8.1,12.5-10.4,12.5-10.4l29.5-53.7-12.3-6.8Z"/>
        <g class="st30">
          <path class="st0" d="M399.8,661.4c-.4-.2-.6-.7-.4-1.2.2-.5.7-.7,1.2-.5,0,0,3,1.3,6.6-.1,3.5-1.4,6.4-4.8,8.6-10.1,6.3-15.2,34.6-66,34.8-66.5s.8-.6,1.2-.4.6.8.4,1.2-28.5,51.3-34.8,66.4c-2.4,5.8-5.7,9.6-9.7,11.2-4.3,1.7-7.8.1-8,0,0,0,0,0,0,0Z"/>
        </g>
        <path class="st18" d="M471.8,589.4l-44.7,79s-3.9,9.3,2.1,15.2l-.2.3c.7.5,1.4.8,2,1.1.6.4,1.3.8,2,1.1l.2-.3c8.1,2,14-6.2,14-6.2l43.4-79.8-18.9-10.5Z"/>
        <path class="st32" d="M442.7,650.2l-6.9,12.3s-5.4,11.2-2.2,16.1l-.2.4c.4.3.8.6,1.3.7.4.3.8.5,1.3.7l.2-.4c5.8.1,12.5-10.4,12.5-10.4l6.8-12.4-12.7-7Z"/>
        <g class="st30">
          <path class="st0" d="M431.7,681.2c-.4-.2-.6-.7-.4-1.2.2-.5.7-.7,1.2-.5,0,0,3,1.3,6.6-.1,3.5-1.4,6.4-4.8,8.6-10.1,6.3-15.2,34.6-66,34.8-66.5s.8-.6,1.2-.4.6.8.4,1.2-28.5,51.3-34.8,66.4c-2.4,5.8-5.7,9.6-9.7,11.2-4.3,1.7-7.8.1-8,0,0,0,0,0,0,0Z"/>
        </g>
        <path class="st29" d="M446.5,699.7l37.5-67.6,6,3.3c1.5.9,3.5.3,4.4-1.2l.3-.6c.9-1.5.3-3.5-1.2-4.4l-117.6-65.3c-1.5-.9-3.5-.3-4.4,1.2l-.3.6c-.9,1.5-.3,3.5,1.2,4.4l8.5,4.7-37.5,67.6-12.8-7.1-7.7,13.8,126.4,70.2,7.7-13.8-10.4-5.8ZM386.5,578l91.9,51-37.5,67.6-91.9-51,37.5-67.6Z"/>
        <path class="st0" d="M430,541.7c-.5,1.4-2.1,2-3.4,1.5-1.4-.5-2-2.1-1.5-3.4.5-1.4,2.1-2,3.4-1.5,1.4.5,2,2.1,1.5,3.4Z"/>
        <path class="st0" d="M469.9,546.2c-1,1.1-2.7,1.1-3.8.2-1.1-1-1.1-2.7-.2-3.8,1-1.1,2.7-1.1,3.8-.2,1.1,1,1.1,2.7.2,3.8Z"/>
        <path class="st0" d="M456.9,560.7c-1,1.1-2.7,1.1-3.8.2-1.1-1-1.1-2.7-.2-3.8,1-1.1,2.7-1.1,3.8-.2,1.1,1,1.1,2.7.2,3.8Z"/>
        <path class="st0" d="M485.4,584.3c-.7,1.3-2.3,1.8-3.6,1.2-1.3-.7-1.8-2.3-1.2-3.6.7-1.3,2.3-1.8,3.6-1.2,1.3.7,1.8,2.3,1.2,3.6Z"/>
        <path class="st0" d="M498.1,582.3c-.8,1.2-2.4,1.6-3.7.8s-1.6-2.4-.8-3.7c.8-1.2,2.4-1.6,3.7-.8,1.2.8,1.6,2.4.8,3.7Z"/>
        <path class="st0" d="M457.8,570.1c-1,1.1-2.7,1.1-3.8.2-1.1-1-1.1-2.7-.2-3.8,1-1.1,2.7-1.1,3.8-.2s1.1,2.7.2,3.8Z"/>
        <path class="st0" d="M416.6,548.3c-.5,1.4-2.1,2-3.4,1.5s-2-2.1-1.5-3.4c.5-1.4,2.1-2,3.4-1.5,1.4.5,2,2.1,1.5,3.4Z"/>
        <path class="st0" d="M413.9,562.5c-.5,1.4-2.1,2-3.4,1.5-1.4-.5-2-2.1-1.5-3.4.5-1.4,2.1-2,3.4-1.5s2,2.1,1.5,3.4Z"/>
      </g>
      <g>
        <path class="st17" d="M1667.2,98.9l104.8-52.4s60.5,129,98.1,127.7l-106.2,69.9s-39-20.2-96.7-145.1Z"/>
        <path class="st27" d="M1655.1,98.9l104.8-52.4s60.5,129,98.1,127.7l-106.2,69.9s-39-20.2-96.7-145.1Z"/>
        <circle class="st34" cx="1733.1" cy="113.7" r="29.6" transform="translate(667.3 1485) rotate(-55.9)"/>
        <path class="st31" d="M1733.1,113.7l28.2,5.4s5.4-14.8-10.7-26.9l-17.5,21.5Z"/>
        <path class="st32" d="M1733.1,113.7v-29.6s8.1,0,17.5,8.1l-17.5,21.5Z"/>
        <path class="st23" d="M1733.1,182c.8-4.8,2-10.7,8.7-10.7,1.9,0,4.4,1.6,6.3,1.9,2.8.4,5.6.3,8.2-1.1,5.8-3.2,6-9.8,7.7-15.4,1.9-6.3,5.4-3.4,10.3-2.6,3,.5,5.8.3,8.5-1.1,6.2-3.2,8.8-10.9,6.2-17.2-2.1-5.2-10.6-2.9-8.5,2.3,1.7,4.4-2.5,7.1-6.3,7-1.9,0-3.8-1.3-5.8-1.5-2.4-.2-5,0-7.1,1.4-4.9,2.9-5.6,8.8-6.9,13.8-1.5,5.7-3.9,5.4-9.4,4.4-3-.5-5.5-1.5-8.5-.7-7.4,1.9-10.9,10.4-12,17.2-.9,5.5,7.6,7.9,8.5,2.3h0Z"/>
        <path class="st23" d="M1751.3,206.5c-2-12.2,7.2-4.8,13.8-5.2,5.3-.3,7.3-4,8.7-8.5.3-1.1,0-2.4.3-3.5,1.8-5.8,4.4-6.6,10.2-6.5,3.1,0,5.8.8,8.9,0,2.2-.6,4.2-1.7,5.6-3.6,2.1-2.7,1.9-10.8,6.9-10.6,5.6.2,5.6-8.6,0-8.8-3.7-.1-6.9.8-9.6,3.4-3,2.8-3.5,10.1-7.5,11.4-4.1,1.3-9-1.8-13.6.2-3.7,1.6-6.8,4.5-8.3,8.3-2,4.8-.4,10-7.4,7.8-3.1-1-6.4-1.9-9.7-.8-8,2.6-7.8,12-6.7,18.7.9,5.6,9.4,3.2,8.5-2.3h0Z"/>
      </g>
      <g>
        <g>
          <path class="st32" d="M932.1,128.4c2,19.5-6.7,36.4-19.3,37.7-12.6,1.3-24.4-13.6-26.4-33.1-2-19.5,19.3-37.7,19.3-37.7,0,0,24.4,13.6,26.4,33.1Z"/>
          <path class="st15" d="M931.1,126.5c-2,7.4-5.9,15.2-13.6,17.9-7.7,2.7-17.3,0-22.5-6.2-4.4-5.3-6.1-12.2-6.2-19.5-1.8,4.5-2.8,9.4-2.3,14.3,2,19.5,13.8,34.4,26.4,33.1,12.6-1.3,21.2-18.1,19.3-37.7-.1-1.2-.3-2.4-.6-3.5-.1.6-.3,1.1-.4,1.7Z"/>
          <rect class="st23" x="908.9" y="97" width=".9" height="69.2" transform="translate(-8.7 92.8) rotate(-5.8)"/>
          <polygon class="st23" points="909.3 131.3 890.9 112.9 891.5 112.2 909.3 130 925.5 113.2 926.1 113.8 909.3 131.3"/>
          <polygon class="st23" points="911 155.7 886 136.2 886.6 135.5 911 154.5 932.3 136.5 932.9 137.1 911 155.7"/>
        </g>
        <g>
          <path class="st32" d="M948.8,64.2c10.7,7.2,15.7,18.6,11,25.5-4.6,6.9-17.1,6.7-27.8-.4-10.7-7.2-11-25.5-11-25.5,0,0,17.1-6.7,27.8.4Z"/>
          <path class="st15" d="M947.5,63.9c2.9,4.1,5.2,9.3,3.4,14.4-1.8,5-7.2,8.8-12.6,8.8-4.5,0-8.8-2-12.5-5,1.5,2.8,3.6,5.3,6.3,7.1,10.7,7.2,23.2,7.4,27.8.4,4.6-6.9-.3-18.3-11-25.5-.7-.4-1.3-.8-2-1.2.2.3.5.6.7.9Z"/>
          <rect class="st23" x="940.7" y="54.4" width=".6" height="45.4" transform="translate(355.5 817.8) rotate(-56.4)"/>
          <polygon class="st23" points="940.8 77 923.8 78.6 923.7 78.1 940.2 76.5 938.4 61.2 939 61.2 940.8 77"/>
          <polygon class="st23" points="953.9 86.3 933.6 90.8 933.5 90.3 953.3 85.8 953 67.5 953.6 67.5 953.9 86.3"/>
        </g>
        <g>
          <path class="st32" d="M1153.6,440.7c10.7,7.2,15.7,18.6,11,25.5-4.6,6.9-17.1,6.7-27.8-.4-10.7-7.2-11-25.5-11-25.5,0,0,17.1-6.7,27.8.4Z"/>
          <path class="st15" d="M1152.2,440.4c2.9,4.1,5.2,9.3,3.4,14.4-1.8,5-7.2,8.8-12.6,8.8-4.5,0-8.8-2-12.5-5,1.5,2.8,3.6,5.3,6.3,7.1,10.7,7.2,23.2,7.4,27.8.4,4.6-6.9-.3-18.3-11-25.5-.7-.4-1.3-.8-2-1.2.2.3.5.6.7.9Z"/>
          <rect class="st23" x="1145.4" y="430.9" width=".6" height="45.4" transform="translate(133.4 1156.2) rotate(-56.4)"/>
          <polygon class="st23" points="1145.5 453.5 1128.5 455.1 1128.5 454.6 1144.9 453 1143.1 437.7 1143.7 437.7 1145.5 453.5"/>
          <polygon class="st23" points="1158.6 462.8 1138.3 467.3 1138.2 466.8 1158 462.3 1157.8 444 1158.3 444 1158.6 462.8"/>
        </g>
        <g>
          <path class="st32" d="M1352.2,101.7c-3.7,12.3-13.2,20.4-21.1,18-8-2.4-11.4-14.3-7.7-26.7,3.7-12.3,21.1-18,21.1-18,0,0,11.4,14.3,7.7,26.7Z"/>
          <path class="st15" d="M1352,100.3c-3.1,4-7.4,7.8-12.7,7.5-5.3-.3-10.5-4.4-12.1-9.4-1.4-4.3-.6-9,1.1-13.4-2.2,2.3-4,5-5,8.1-3.7,12.3-.3,24.3,7.7,26.7,8,2.4,17.4-5.7,21.1-18,.2-.8.4-1.5.5-2.3-.2.3-.4.6-.7.9Z"/>
          <rect class="st23" x="1314.8" y="97.7" width="45.4" height=".6" transform="translate(861.2 1351.6) rotate(-73.4)"/>
          <polygon class="st23" points="1337.6 97.8 1331 82 1331.6 81.8 1337.9 97 1351.9 90.9 1352.2 91.4 1337.6 97.8"/>
          <polygon class="st23" points="1332.5 113 1322.2 94.9 1322.7 94.6 1332.8 112.3 1350.3 106.7 1350.4 107.2 1332.5 113"/>
        </g>
        <g>
          <path class="st32" d="M782.7,671.1c-18.2,7.4-36.8,4-41.6-7.8-4.8-11.7,6-27.3,24.2-34.7,18.2-7.4,41.6,7.8,41.6,7.8,0,0-6,27.3-24.2,34.7Z"/>
          <path class="st15" d="M784.2,669.6c-7.7.1-16.2-1.3-21-8-4.8-6.6-4.9-16.6-.4-23.4,3.8-5.8,10-9.4,17-11.5-4.8-.4-9.8,0-14.4,1.9-18.2,7.4-29,23-24.2,34.7,4.8,11.7,23.4,15.2,41.6,7.8,1.1-.5,2.2-1,3.2-1.6-.6,0-1.1,0-1.7,0Z"/>
          <rect class="st23" x="738.5" y="649.7" width="69.2" height=".9" transform="translate(-189.2 342.9) rotate(-22.4)"/>
          <polygon class="st23" points="773.4 650 785.8 627.1 786.6 627.6 774.6 649.7 795.3 660.4 794.9 661.2 773.4 650"/>
          <polygon class="st23" points="750.5 658.7 762 629.1 762.9 629.5 751.6 658.3 775 673.6 774.5 674.3 750.5 658.7"/>
        </g>
        <g>
          <path class="st32" d="M842.3,283.1c13.5,9.4,19.5,24,13.5,32.7-6,8.7-21.9,8.2-35.4-1.2-13.5-9.4-13.5-32.7-13.5-32.7,0,0,21.9-8.2,35.4,1.2Z"/>
          <path class="st15" d="M840.5,282.7c3.6,5.3,6.5,12,4,18.4-2.5,6.4-9.4,11-16.2,11-5.8,0-11.1-2.8-15.8-6.7,1.9,3.6,4.5,6.8,7.9,9.2,13.5,9.4,29.3,9.9,35.4,1.2,6-8.7,0-23.4-13.5-32.7-.8-.6-1.7-1.1-2.6-1.5.3.4.6.8.8,1.2Z"/>
          <rect class="st23" x="831.6" y="270.4" width=".7" height="57.9" transform="translate(112.5 813.2) rotate(-55.3)"/>
          <polygon class="st23" points="831.7 299.2 810 300.9 809.9 300.1 830.9 298.5 829 279 829.8 279 831.7 299.2"/>
          <polygon class="st23" points="848.2 311.3 822.2 316.6 822.1 315.9 847.4 310.7 847.5 287.3 848.3 287.3 848.2 311.3"/>
        </g>
        <g>
          <path class="st32" d="M1475.9,260.2c-9.6,7-21,7.6-25.4,1.4-4.5-6.2-.4-16.8,9.2-23.8,9.6-7,25.4-1.4,25.4-1.4,0,0,.4,16.8-9.2,23.8Z"/>
          <path class="st15" d="M1476.6,259.1c-4.5,1.2-9.7,1.6-13.5-1.6-3.7-3.2-5.3-9-3.6-13.6,1.4-3.9,4.5-6.9,8.3-9.2-2.9.5-5.7,1.4-8.1,3.2-9.6,7-13.7,17.6-9.2,23.8s15.9,5.5,25.4-1.4c.6-.4,1.1-.9,1.7-1.4-.3,0-.7.2-1,.3Z"/>
          <rect class="st23" x="1446.5" y="249" width="41.7" height=".5" transform="translate(135.2 913.2) rotate(-36.1)"/>
          <polygon class="st23" points="1467.5 249.2 1471.5 234 1472 234.2 1468.1 248.8 1481.8 252.1 1481.7 252.6 1467.5 249.2"/>
          <polygon class="st23" points="1455.3 257.5 1457.8 238.6 1458.4 238.7 1455.9 257.2 1471.8 262.7 1471.6 263.2 1455.3 257.5"/>
        </g>
        <g>
          <path class="st32" d="M1277.2,601.5c-9.6,7-21,7.6-25.4,1.4-4.5-6.2-.4-16.8,9.2-23.8,9.6-7,25.4-1.4,25.4-1.4,0,0,.4,16.8-9.2,23.8Z"/>
          <path class="st15" d="M1277.9,600.4c-4.5,1.2-9.7,1.6-13.5-1.6-3.7-3.2-5.3-9-3.6-13.6,1.4-3.9,4.5-6.9,8.3-9.2-2.9.5-5.7,1.4-8.1,3.2-9.6,7-13.7,17.6-9.2,23.8,4.5,6.2,15.9,5.5,25.4-1.4.6-.4,1.1-.9,1.7-1.4-.3,0-.7.2-1,.3Z"/>
          <rect class="st23" x="1247.8" y="590.4" width="41.7" height=".5" transform="translate(-104.3 861.6) rotate(-36.1)"/>
          <polygon class="st23" points="1268.8 590.5 1272.8 575.4 1273.3 575.5 1269.4 590.1 1283.1 593.5 1283 594 1268.8 590.5"/>
          <polygon class="st23" points="1256.6 598.9 1259.1 579.9 1259.7 580 1257.2 598.5 1273.1 604.1 1272.9 604.6 1256.6 598.9"/>
        </g>
        <g>
          <path class="st32" d="M1247.8,262.6c-5.9-10.3-5.3-21.6,1.3-25.4,6.6-3.8,16.8,1.4,22.6,11.7,5.9,10.3-1.3,25.4-1.3,25.4,0,0-16.8-1.4-22.6-11.7Z"/>
          <path class="st15" d="M1248.8,263.4c-.7-4.6-.5-9.8,3.1-13.2,3.6-3.4,9.5-4.3,13.9-2.1,3.7,1.8,6.4,5.2,8.2,9.2-.1-2.9-.8-5.8-2.3-8.4-5.9-10.3-16-15.5-22.6-11.7-6.6,3.8-7.2,15.2-1.3,25.4.4.6.8,1.2,1.2,1.8,0-.3-.1-.7-.2-1Z"/>
          <rect class="st23" x="1259.3" y="234.4" width=".5" height="41.7" transform="translate(41 663.6) rotate(-30)"/>
          <polygon class="st23" points="1259.6 255.4 1274.3 261 1274.1 261.5 1259.9 256.1 1255.2 269.3 1254.7 269.1 1259.6 255.4"/>
          <polygon class="st23" points="1252.6 242.4 1271.2 246.9 1271.1 247.5 1252.9 243.1 1245.7 258.2 1245.2 258 1252.6 242.4"/>
        </g>
        <g>
          <path class="st32" d="M553.2,685.8c-5.9-10.3-5.3-21.6,1.3-25.4,6.6-3.8,16.8,1.4,22.6,11.7,5.9,10.3-1.3,25.4-1.3,25.4,0,0-16.8-1.4-22.6-11.7Z"/>
          <path class="st15" d="M554.2,686.6c-.7-4.6-.5-9.8,3.1-13.2,3.6-3.4,9.5-4.3,13.9-2.1,3.7,1.8,6.4,5.2,8.2,9.2-.1-2.9-.8-5.8-2.3-8.4-5.9-10.3-16-15.5-22.6-11.7-6.6,3.8-7.2,15.2-1.3,25.4.4.6.8,1.2,1.2,1.8,0-.3-.1-.7-.2-1Z"/>
          <rect class="st23" x="564.6" y="657.6" width=".5" height="41.7" transform="translate(-263.4 373.1) rotate(-30)"/>
          <polygon class="st23" points="565 678.6 579.6 684.2 579.4 684.7 565.3 679.3 560.5 692.5 560 692.3 565 678.6"/>
          <polygon class="st23" points="558 665.6 576.5 670.1 576.4 670.7 558.3 666.2 551.1 681.4 550.6 681.2 558 665.6"/>
        </g>
      </g>
      <g>
        <path class="st20" d="M225,458c0,1.3-10.6,1.1-10.9,2.3-.3,1.2,9,6.4,8.4,7.4-.6,1.1-9.7-4.4-10.6-3.5-.9.9,4.6,10,3.5,10.6-1,.6-6.2-8.7-7.4-8.4-1.2.3-1,10.9-2.3,10.9s-1.1-10.6-2.3-10.9c-1.2-.3-6.4,9-7.4,8.4-1.1-.6,4.4-9.7,3.5-10.6s-10,4.6-10.6,3.5c-.6-1,8.7-6.2,8.4-7.4-.3-1.2-10.9-1-10.9-2.3s10.6-1.1,10.9-2.3c.3-1.2-9-6.4-8.4-7.4.6-1.1,9.7,4.4,10.6,3.5.9-.9-4.6-10-3.5-10.6,1-.6,6.2,8.7,7.4,8.4,1.2-.3,1-10.9,2.3-10.9s1.1,10.6,2.3,10.9c1.2.3,6.4-9,7.4-8.4,1.1.6-4.4,9.7-3.5,10.6.9.9,10-4.6,10.6-3.5.6,1-8.7,6.2-8.4,7.4.3,1.2,10.9,1,10.9,2.3Z"/>
        <path class="st20" d="M1159.4,594c0,1.3-10.6,1.1-10.9,2.3-.3,1.2,9,6.4,8.4,7.4-.6,1.1-9.7-4.4-10.6-3.5-.9.9,4.6,10,3.5,10.6-1,.6-6.2-8.7-7.4-8.4-1.2.3-1,10.9-2.3,10.9s-1.1-10.6-2.3-10.9c-1.2-.3-6.4,9-7.4,8.4-1.1-.6,4.4-9.7,3.5-10.6s-10,4.6-10.6,3.5c-.6-1,8.7-6.2,8.4-7.4-.3-1.2-10.9-1-10.9-2.3s10.6-1.1,10.9-2.3c.3-1.2-9-6.4-8.4-7.4.6-1.1,9.7,4.4,10.6,3.5s-4.6-10-3.5-10.6c1-.6,6.2,8.7,7.4,8.4,1.2-.3,1-10.9,2.3-10.9s1.1,10.6,2.3,10.9c1.2.3,6.4-9,7.4-8.4,1.1.6-4.4,9.7-3.5,10.6.9.9,10-4.6,10.6-3.5.6,1-8.7,6.2-8.4,7.4.3,1.2,10.9,1,10.9,2.3Z"/>
      </g>
      <g>
        <g>
          <g>
            <path class="st20" d="M954.5,206.7c0,2.2-1.8,4-4,4s-4-1.8-4-4,1.8-4,4-4,4,1.8,4,4Z"/>
            <path class="st20" d="M956.5,188.7c0,2.2-1.8,4-4,4s-4-1.8-4-4,1.8-4,4-4,4,1.8,4,4Z"/>
            <path class="st20" d="M972.8,202.7c0,2.2-1.8,4-4,4s-4-1.8-4-4,1.8-4,4-4,4,1.8,4,4Z"/>
          </g>
          <g>
            <path class="st20" d="M438.6,671.5c0,2.2-1.8,4-4,4s-4-1.8-4-4,1.8-4,4-4,4,1.8,4,4Z"/>
            <circle class="st20" cx="436.5" cy="653.5" r="4"/>
            <circle class="st20" cx="452.9" cy="667.5" r="4"/>
          </g>
          <g>
            <path class="st20" d="M1040.3,475.7c0,2.2-1.8,4-4,4s-4-1.8-4-4,1.8-4,4-4,4,1.8,4,4Z"/>
            <path class="st20" d="M1042.3,457.7c0,2.2-1.8,4-4,4s-4-1.8-4-4,1.8-4,4-4,4,1.8,4,4Z"/>
            <path class="st20" d="M1058.6,471.7c0,2.2-1.8,4-4,4s-4-1.8-4-4,1.8-4,4-4,4,1.8,4,4Z"/>
          </g>
          <g>
            <path class="st20" d="M1509.4,463.1c0,2.2-1.8,4-4,4s-4-1.8-4-4,1.8-4,4-4,4,1.8,4,4Z"/>
            <circle class="st20" cx="1507.3" cy="445.1" r="4"/>
            <circle class="st20" cx="1523.7" cy="459.1" r="4"/>
          </g>
          <g>
            <path class="st20" d="M1512.4,46.2c0,2.2-1.8,4-4,4s-4-1.8-4-4,1.8-4,4-4,4,1.8,4,4Z"/>
            <path class="st20" d="M1514.3,28.2c0,2.2-1.8,4-4,4s-4-1.8-4-4,1.8-4,4-4,4,1.8,4,4Z"/>
            <circle class="st20" cx="1526.6" cy="42.2" r="4"/>
          </g>
          <g>
            <path class="st20" d="M1143.9,304.3c0,2.2-1.8,4-4,4s-4-1.8-4-4,1.8-4,4-4,4,1.8,4,4Z"/>
            <path class="st20" d="M1145.9,286.3c0,2.2-1.8,4-4,4s-4-1.8-4-4,1.8-4,4-4,4,1.8,4,4Z"/>
            <path class="st20" d="M1162.2,300.3c0,2.2-1.8,4-4,4s-4-1.8-4-4,1.8-4,4-4,4,1.8,4,4Z"/>
          </g>
          <g>
            <path class="st20" d="M1505.1,728c0,2.2-1.8,4-4,4s-4-1.8-4-4,1.8-4,4-4,4,1.8,4,4Z"/>
            <path class="st20" d="M1507,710c0,2.2-1.8,4-4,4s-4-1.8-4-4,1.8-4,4-4,4,1.8,4,4Z"/>
            <path class="st20" d="M1523.4,724c0,2.2-1.8,4-4,4s-4-1.8-4-4,1.8-4,4-4,4,1.8,4,4Z"/>
          </g>
          <g>
            <path class="st20" d="M1317.1,629.8c0,2.2-1.8,4-4,4s-4-1.8-4-4,1.8-4,4-4,4,1.8,4,4Z"/>
            <path class="st20" d="M1319,611.8c0,2.2-1.8,4-4,4s-4-1.8-4-4,1.8-4,4-4,4,1.8,4,4Z"/>
            <path class="st20" d="M1335.4,625.8c0,2.2-1.8,4-4,4s-4-1.8-4-4,1.8-4,4-4,4,1.8,4,4Z"/>
          </g>
          <g>
            <circle class="st20" cx="787.2" cy="106.4" r="4"/>
            <path class="st20" d="M793.2,88.4c0,2.2-1.8,4-4,4s-4-1.8-4-4,1.8-4,4-4,4,1.8,4,4Z"/>
            <circle class="st20" cx="805.5" cy="102.4" r="4"/>
          </g>
        </g>
        <circle class="st20" cx="511.2" cy="221" r="4.6"/>
        <circle class="st20" cx="1182.5" cy="238.7" r="4.6"/>
        <circle class="st20" cx="856" cy="191.4" r="4.6"/>
        <circle class="st20" cx="1390.7" cy="37.7" r="4.6"/>
        <path class="st20" d="M1378.3,327.4c0,2.5-2.1,4.6-4.6,4.6s-4.6-2.1-4.6-4.6,2.1-4.6,4.6-4.6,4.6,2.1,4.6,4.6Z"/>
        <circle class="st20" cx="1276.4" cy="445.7" r="4.6"/>
        <circle class="st20" cx="1353.8" cy="668.7" r="4.6"/>
        <circle class="st20" cx="934.9" cy="709.7" r="4.6"/>
        <circle class="st20" cx="632" cy="727.5" r="4.6"/>
      </g>
      <g>
        <g>
          <path class="st31" d="M892.9,482.5c-3.8-3.7-3.9-9.7-.2-13.6,4.9-5.1,9.9-10.1,14.8-15,8.3-8.3,17-16.8,24.6-26h0c2.8-3.4,2.8-9,0-13-2.1-2.8-4.9-5.4-7.8-8.1-1.3-1.2-2.6-2.4-3.9-3.7-4.5-4.1-11.9-4.5-15.9-.7h0c-9.9,9.4-19.5,19.3-28.8,28.8-3.4,3.5-6.9,7-10.4,10.6-3.8,3.8-9.9,3.8-13.7,0,0,0,0,0,0,0-3.8-3.8-3.8-9.9,0-13.7,3.4-3.5,6.9-7,10.3-10.5,9.4-9.7,19.2-19.6,29.4-29.3,11.4-10.9,30.4-10.6,42.5.6l.2.2c1.1,1.1,2.3,2.2,3.6,3.4,3.5,3.2,7.1,6.6,10.3,10.9v.2c8.1,11.3,7.7,26.7-.9,36.8-8.2,9.8-17.2,18.7-25.8,27.3-4.8,4.7-9.7,9.7-14.4,14.6-3.7,3.9-9.8,4.1-13.7.4,0,0,0,0-.1-.1Z"/>
          <g>
            <path class="st0" d="M877.2,429.6l-13.8-13.6c-.5.5-1.1,1.1-1.6,1.6-3.4,3.4-6.8,7-10.3,10.5-3.8,3.8-3.7,9.9,0,13.7h0c3.8,3.8,9.9,3.7,13.7,0,3.5-3.5,7-7.1,10.4-10.6.5-.5,1-1,1.5-1.6Z"/>
            <path class="st0" d="M918.5,470.3l-13.8-13.6c-4,4-8.1,8.1-12,12.2-3.6,3.8-3.5,9.9.2,13.6,0,0,0,0,.1.1,3.9,3.7,10,3.5,13.7-.4,3.8-4,7.8-8,11.8-12Z"/>
          </g>
          <g class="st11">
            <path class="st31" d="M914.6,448.2c5-4.7,10.2-9.2,14.8-14.2,1.1-1.2,2.1-2.5,3.1-3.7,0,0,0,0,0,0,0,0,0,0,0,0,.2-.3.5-.7.7-1,.5-.7.9-1.4,1.3-2.1.4-.7.8-1.4,1.2-2.1.2-.4.3-.7.5-1.1,0,0,.1-.3.2-.5,0-.2.2-.5.2-.5.1-.4.2-.8.4-1.1.2-.8.4-1.5.5-2.3,0-.1,0-.6.1-.7,0-.3,0-.5,0-.8,0-.8,0-1.5,0-2.3,0-.2,0-.4,0-.7,0,0,0-.8-.1-.9-.2-.9-.4-1.8-.6-2.6-.1-.4-.3-.9-.4-1.3,0-.1,0-.2,0-.3,0,0,0-.1-.1-.3-.4-.8-.7-1.5-1.1-2.3-.4-.7-.9-1.5-1.3-2.2-.2-.3-.4-.6-.6-.9,0-.1-.5-.7-.6-.7-1.2-1.4-2.4-2.6-3.8-3.8-.2-.2-.4-.3-.6-.5,0,0-.7-.5-.7-.5-.8-.5-1.5-1-2.3-1.5-.8-.5-1.6-.8-2.5-1.2-.1,0-.2,0-.3-.1,0,0-.1,0-.2,0-.4-.1-.7-.2-1.1-.4-.8-.2-1.6-.5-2.4-.6-.4,0-.9-.2-1.3-.2-.1,0-.2,0-.2,0,0,0-.2,0-.3,0-.9,0-1.8,0-2.7,0-.1,0-.2,0-.3,0,0,0-.2,0-.3,0-.4,0-.7.1-1.1.2-.8.2-1.6.4-2.4.6-.4.1-.9.3-1.3.4,0,0-.7.3-.8.3-3.2,1.4-6.2,3.3-9.1,5.4-.4.3-.8.6-1.2.9-.1,0-.2.1-.2.2,0,0-.1.1-.3.2-.7.6-1.4,1.1-2.1,1.7-1.4,1.2-2.8,2.3-4.2,3.5-3.1,2.6-6.2,5.1-9.5,7.5-7,5.1-13.5,9.8-19.9,15.2-3.2,2.8-6.4,5.7-9.2,8.8-.4.5-.9,1-1.3,1.5.2.2.4.4.6.6h0c3.8,3.8,9.9,3.7,13.7,0,3.5-3.5,7-7.1,10.4-10.6,9.3-9.5,19-19.4,28.8-28.7h0c3.9-3.8,11.3-3.5,15.9.7,1.3,1.3,2.6,2.5,3.9,3.7,2.9,2.7,5.7,5.3,7.8,8.1,2.8,4.1,2.8,9.6,0,12.9h0c-7.6,9.2-16.2,17.8-24.6,26-4.9,4.9-10,9.9-14.8,15-.4.4-.8.9-1.1,1.4,7.5-7.6,15.3-14.8,23.1-22.1Z"/>
          </g>
          <g class="st47">
            <path class="st0" d="M935.2,449c-.6-.6-.6-1.5,0-2,9.1-9.6,13-19.6,11.6-29.7-1-7.6-4.8-12.4-4.8-12.5-.5-.6-.4-1.5.2-2,.6-.5,1.5-.4,2,.2.2.2,4.2,5.4,5.4,13.7,1.1,7.6-.2,19.4-12.3,32.2-.6.6-1.5.6-2.1,0,0,0,0,0,0,0Z"/>
          </g>
        </g>
        <polygon class="st0" points="849.6 451.4 836.6 437.5 832.3 464.4 821.9 452.3 818.4 492.2 827.1 471.4 835.8 480.9 840.1 451.4 849.6 451.4"/>
        <polygon class="st0" points="890.4 495.4 879.3 483.5 875.6 506.6 866.6 496.2 863.7 530.4 871.1 512.6 878.5 520.7 882.3 495.4 890.4 495.4"/>
      </g>
      <text class="st25" transform="translate(149 160.4) rotate(-28.1)"><tspan x="0" y="0">MonsterBook</tspan></text>
      <path class="st5" d="M215.1,174.1c-.9-.3-1.9-4.6-2-5.2-.3-1.4-.5-2.8-.6-4.2-.2-2.4-.6-8.2,1.2-10.1,2.7-2.7-4.9-4.2-3.1-.4.8,1.7-.3,5.1-.4,6.9s0,3.8.2,5.7c.4,2.8,1.1,7,3.4,8.9s.8.2,1.2,0h.2c.6-.5.4-1.5-.2-1.6h0Z"/>
      <path class="st5" d="M191.4,189.2l.2-.2c.2-.2.2-.7.1-1-1.1-2.5-4.4-4.4-6.7-5.7s-3.6-1.7-5.5-2.3-4.7-.7-6-1.9c-2.8-2.6-4.2,4.8-.4,3.1,2.4-1,7.3,1.3,9.6,2.4,1.6.7,6.9,3.3,7.1,5.2s1.1.9,1.5.4h0Z"/>
      <g>
        <path class="st24" d="M240.1,185c0-2.9-1.5-5.3-5.5-6.6-2.3-.8-4.5-2-6.1-3.8-2.2-2.5-4.6-3.1-6.8-2.5-2.6.6-5.3.7-7.7-.1-.5-.2-1-.4-1.5-.6-.4-.2-.8-.4-1.2-.5-2.2-.8-4.7-.3-7.3,2-1.8,1.6-4,2.9-6.3,3.4-3.3.7-4.9,2.4-5.6,4.7-.5,1.6-1.2,3.3-2.2,4.6-.4.6-.8,1.1-1.3,1.5-.5.5-1.1,1-1.8,1.4-2.4,1.5-3.8,4-3,8.1.5,2.4.5,4.9-.2,7.2-.9,2.7-.5,4.8.6,6.4.2.3.4.5.6.8,2.2,2.3,3.9,5.2,3.9,8.3,0,1.1.3,2.1.8,3,.8,1.5,2.3,2.8,4.7,3.6,2.3.8,4.5,2,6.1,3.8,2.2,2.5,4.6,3.1,6.8,2.5,3.1-.8,6.4-.8,9.2.8,2.5,1.4,5.3,1.3,8.5-1.4,1.8-1.6,4-2.9,6.4-3.4,3.2-.7,4.9-2.4,5.6-4.7.9-3.1,2.5-5.9,5.3-7.6,2.4-1.5,3.8-4,3-8.1-.5-2.4-.5-4.9.2-7.2.3-.9.4-1.7.5-2.4.1-2-.5-3.6-1.7-4.8-1.2-1.2-2.2-2.6-2.9-4.2-.6-1.3-.9-2.7-1-4.2Z"/>
        <g>
          <g>
            <path class="st43" d="M211,226.2c.9-.4.4-2.6.2-4-1.6.3-3.3.4-4.9.3,1.4,1.8,3.7,4.1,4.8,3.7Z"/>
            <path class="st43" d="M235.8,204.8c-.8,1.6-1.8,3-2.8,4.5,1.1.9,3,2.8,3.9,2.2,0,0,0,0,0,0,.8-.9-.3-4.6-1.1-6.6Z"/>
            <path class="st33" d="M235.8,204.8c.8-1.5,1.4-3.1,1.9-4.8.1-.6,0-1.1-.3-1.6-.9-1.2-3-1.3-3.4.5-3.3,12.3-19.1,22.1-31.6,19.2-2.4-.6-3.4,3.1-1,3.7,1.6.4,3.3.6,4.9.6,1.6,0,3.3,0,4.9-.3,8.4-1.3,16.6-6.2,21.8-12.9,1.1-1.4,2.1-2.9,2.8-4.5Z"/>
          </g>
          <g>
            <path class="st39" d="M204.8,185.3c-17.5,10.9-2.9,36.6,15.4,27.1,7.5-4.3,10-13.8,5.8-21.2s-13.7-10.1-21.2-5.8ZM204.1,203.6c-4.2-6.9,2.3-15.9,10.1-14.3-4.3,3.3,0,10,4.8,7.4,1-.6,1.7-1.5,2-2.4,5.8,11.3-10.3,20.3-16.9,9.4Z"/>
            <path class="st7" d="M221,194.2c-.3,1-1,1.9-2,2.4-4.8,2.6-9.1-4-4.8-7.3-7.8-1.6-14.3,7.4-10.1,14.3,6.6,10.9,22.7,1.9,16.9-9.4Z"/>
          </g>
        </g>
      </g>
      <circle class="st20" cx="172.2" cy="179.1" r="4.1" transform="translate(-66.1 108.8) rotate(-29.7)"/>
      <circle class="st20" cx="211.9" cy="154.1" r="4.1" transform="translate(-48.5 125.1) rotate(-29.7)"/>
      <circle class="st48" cx="190" cy="195.9" r="3.1" transform="translate(-72.1 119.8) rotate(-29.7)"/>
      <circle class="st48" cx="195.8" cy="185.6" r="1" transform="translate(-66.2 121.3) rotate(-29.7)"/>
      <circle class="st48" cx="208.2" cy="178.5" r="3.1" transform="translate(-61.1 126.5) rotate(-29.7)"/>
      <circle class="st48" cx="224.2" cy="179.9" r="4.1" transform="translate(-59.7 134.6) rotate(-29.7)"/>
      <path class="st48" d="M245.7,198.1c-.1,0-.3.2-.4.3-2.4,1.4-5.6.5-6.9-1.9s-.5-5.6,1.9-6.9.5-.3.8-.4c.7,1.5,1.7,2.9,2.9,4.2,1.2,1.2,1.8,2.8,1.7,4.8Z"/>
      <path class="st48" d="M195.4,211.6c1.9,3.4.8,7.8-2.7,9.7s-2.1.9-3.3.9c-.5-.9-.8-2-.8-3,0-3.2-1.7-6-3.9-8.3-.2-.2-.4-.5-.6-.8.4-.5.9-.8,1.5-1.2,3.4-1.9,7.8-.8,9.7,2.7Z"/>
      <circle class="st48" cx="217.6" cy="225.9" r="2" transform="translate(-83.3 137.4) rotate(-29.7)"/>
      <circle class="st48" cx="227.8" cy="221.2" r="3.1" transform="translate(-79.6 141.9) rotate(-29.7)"/>
      <g>
        <path class="st46" d="M516.9,113.9c2.8,2.4-5.8,55.3-5.8,55.3,0,0,6.7,2.1,6.2,3.6s-8.8,1.2-9.2-.6c-.4-1.8,6.2-52.6,5.2-53.1-.9-.6-13.2,9.7-13.2,9.7,0,0-3,1.9-2.9-1.7,0-1.5,16.7-15.8,19.7-13.2Z"/>
        <path class="st46" d="M451.7,112.9c-2.8,2.5,7.4,55.1,7.4,55.1,0,0-6.7,2.3-6.1,3.8.6,1.5,8.9.9,9.2-.9.3-1.8-7.7-52.4-6.8-53,.9-.6,13.5,9.3,13.5,9.3,0,0,3,1.9,2.8-1.8,0-1.5-17.1-15.3-20.1-12.6Z"/>
        <path class="st35" d="M481.6,115.3c-18.9,1.1-32.8,15.1-30.1,28.6,2.7,13.6,12.3,20.5,33.1,20.5s33.4-8.7,33.7-23.2c.3-14.5-11.7-27.4-36.7-25.9Z"/>
        <path class="st40" d="M435.4,124.1c-2.4,2.8,14.4,53.7,14.4,53.7,0,0-6.3,3.1-5.6,4.6.8,1.4,8.9-.2,9-2.1.1-1.8-14.4-50.9-13.5-51.6.8-.7,14.6,7.5,14.6,7.5,0,0,3.3,1.5,2.6-2.1-.3-1.5-19-13-21.5-10Z"/>
        <path class="st40" d="M533.2,124c2.5,2.7-11.9,54.3-11.9,54.3,0,0,6.5,2.8,5.8,4.3-.7,1.5-8.9.2-9.1-1.6-.2-1.8,12-51.6,11.1-52.2-.9-.7-14.2,8.2-14.2,8.2,0,0-3.2,1.6-2.7-2,.2-1.5,18.3-13.9,21-11Z"/>
        <g>
          <path class="st27" d="M461.7,143.6c0,.8,2.1,1.2,5.8,1.1,3.7,0,7.7-.2,7.8-1,0-1.5-1.8-1.6-7.2-1.4s-6.4,0-6.4,1.3Z"/>
          <path class="st36" d="M465.7,142.4s-.3.8-.3,1.1c0,.7.2,1.2.2,1.2,0,0,1.7,0,2.7,0s2.7-.2,2.7-.2c0,0,.1-.6.2-1.2,0-.8-.3-1.2-.3-1.2,0,0-1.8,0-3,0-.8,0-2.2,0-2.2,0Z"/>
          <path class="st27" d="M466.1,142.8s-.2.3-.2.6c0,.7.2,1,.2,1h.6c0,0-.3-.2-.3-.8s.3-.9.3-.9h-.7Z"/>
        </g>
        <g>
          <path class="st27" d="M496.2,143.7c0,.8,2.1,1.2,5.8,1.1,3.7,0,7.7-.2,7.8-1,0-1.5-1.8-1.6-7.2-1.4s-6.4,0-6.4,1.3Z"/>
          <path class="st36" d="M500.1,142.5s-.3.8-.3,1.1c0,.7.2,1.2.2,1.2,0,0,1.7,0,2.7,0s2.7-.2,2.7-.2c0,0,.1-.6.2-1.2,0-.8-.3-1.2-.3-1.2,0,0-1.8,0-3,0-.8,0-2.2,0-2.2,0Z"/>
          <path class="st27" d="M500.6,142.9s-.2.3-.2.6c0,.7.2,1,.2,1h.6c0,0-.3-.2-.3-.8s.3-.9.3-.9h-.7Z"/>
        </g>
        <path class="st38" d="M485.1,153.5c-3.7,0-5.3-2.5-5.4-2.6-.2-.4-.1-.8.2-1,.4-.2.8-.1,1,.2,0,0,1.3,1.9,4.1,1.9s.1,0,.2,0c3.7-.1,4.4-2,4.4-2,.1-.4.5-.6.9-.5.4.1.6.6.5.9,0,.1-1,2.9-5.8,3.1,0,0-.2,0-.3,0Z"/>
        <path class="st46" d="M472.9,170.3c4.3,3.6,8.8,4.5,8.8,4.5,0,0,2.2-2.4,2.5-1.9.3.5-.2,2.3-.2,2.3,0,0,3.7.5,2.8,1.1-.9.7-2.7.5-2.7.5,0,0,.6,1.8,0,2.3-.6.5-2.4-2.7-2.4-2.7,0,0-8.3-2.2-10.6-4.9-4-4.7-5.6-13.5-1.8-14.2,2.5-.5,0,9.9,3.6,13Z"/>
        <path class="st46" d="M504.1,170c-2.5,5-6.2,7.7-6.2,7.7,0,0-2.9-1.3-3-.8,0,.6,1.1,2,1.1,2,0,0-3.2,1.9-2.1,2.2,1.1.3,2.6-.7,2.6-.7,0,0,.2,1.9.9,2.1.7.2,1.1-3.4,1.1-3.4,0,0,6.7-5.3,7.7-8.8,1.8-5.9,1.8-15.2-1.9-14.3-2.5.6,1.9,9.6-.2,13.9Z"/>
        <path class="st46" d="M464.2,152.9c0,1.4-1.2,2.6-2.7,2.6s-2.7-1.1-2.7-2.6,1.2-2.6,2.7-2.6,2.7,1.1,2.7,2.6Z"/>
        <path class="st41" d="M431.7,138.9c-2.7,2.6,8.4,55,8.4,55,0,0-6.6,2.4-6,3.9.6,1.5,8.9.8,9.2-1.1.3-1.8-7.7-50.4-6.8-51,.9-.6,24.2,9,24.2,9,0,0,3.8-.2,2.3-3.2-.7-1.4-28.4-15.4-31.3-12.6Z"/>
        <path class="st46" d="M515.5,151.1c0,1.4-1.2,2.6-2.7,2.6s-2.7-1.1-2.7-2.6,1.2-2.6,2.7-2.6,2.7,1.1,2.7,2.6Z"/>
        <path class="st41" d="M542.8,139.3c2.6,2.7-10.4,54.6-10.4,54.6,0,0,6.5,2.6,5.9,4.1-.7,1.5-8.9.4-9.1-1.4-.2-1.8,9.5-50.1,8.6-50.8s-24.8,7.1-24.8,7.1c0,0-3.5-1.1-1.1-4.1,1-1.2,28.1-12.5,30.9-9.6Z"/>
        <path class="st44" d="M482.6,116.6c-1.8,0-3.1-.1-3.2,1.3-.1,1.4,2.5,2.9,3.8,2.8,1.3-.1,4.8-.7,4-1.8-.8-1.1-2-2.3-4.6-2.3Z"/>
        <path class="st44" d="M475.7,120.1c-1.4.2-2.7.2-1.8,1.3.9,1.1,2.7,2.1,3.7,1.7,1-.4,2.6-1.1,1.4-2-1.2-.9-1.8-1.2-3.3-1Z"/>
        <path class="st44" d="M484.2,123.4c-1,.3-2.3,2.1-.9,2.6,1.4.5,4.1.2,4.4-.1.3-.3.3-2.2-.9-2.5-1.2-.3-2-.2-2.6,0Z"/>
        <path class="st44" d="M489.7,120.7c-1.1,0-1.7.7-1.2,1.4.5.7,2.3,1.2,3,.9.7-.3,1.9-1.1.9-1.7-1-.6-1.9-.6-2.7-.6Z"/>
        <path class="st44" d="M491.2,116.5c-1.2.4-2.1,1.5-.7,2,1.4.5,2.9,1.2,3.7,1,.8-.2,2-.8,1.1-1.8-.9-1-2.7-1.7-4.1-1.2Z"/>
        <path class="st44" d="M501.4,121.7c-1.2.2-3,1.1-2,2.1,1,1,1.8,1.2,2.5,1.1.7-.1,2.7.1,2.8-1.3.1-1.4-1.7-2.2-3.3-1.9Z"/>
        <path class="st44" d="M465.8,122.1c-.9.5-1.6,1.2-1,1.6.6.4,1.5.5,2.2.1.7-.4,2.1-1.8.9-1.8s-1.2-.4-2.1.1Z"/>
        <path class="st44" d="M469.8,127.5c-.8.6-1.3,1-.7,1.4.6.4,1.5.5,2,.1.5-.4,1.1-1.8,0-1.8s-1.3.3-1.3.3Z"/>
        <path class="st44" d="M495,130c-1.3.2-2.1.4-1.5.9.6.5,2.1.7,2.5.6.4-.1,2-.5,1.4-.9-.6-.4-1.7-.7-2.4-.6Z"/>
        <path class="st44" d="M508.6,126.1c-.7.2-1.3.6-.7,1.1.6.5,1.4.6,1.9.4.5-.2,1.9-.5,1.3-1.1-.6-.6-1.4-.7-2.5-.4Z"/>
        <path class="st44" d="M497.8,118.9c-.6.1-1.1-.1-1.3.6-.2.7,1.1,1,1.7.9.6-.1,2.9-.3,1.9-.8-1-.5-1.4-.9-2.3-.7Z"/>
        <path class="st44" d="M473.5,117.2c-1,.3-1.7.4-1.5,1,.2.6,1.4.8,2,.6.6-.2,1.7-.8,1.7-1.2s-.8-.8-2.2-.4Z"/>
        <path class="st44" d="M459.4,128.3c-.8.4-1.1,1.1-.7,1.4.4.3,1.1.4,1.7,0,.6-.4,1.7-1.4,1.2-1.8-.5-.4-1.3,0-2.2.4Z"/>
        <path class="st44" d="M461,142.9s.6-1.2,3.3-1.3c2.7-.1,8.8-.2,9.9.1,1.1.3,1.5,1.2,1.5,1.2h.8c0,0,0-1.5-1.9-2.2-1.9-.7-10.2-.4-12,0-1.8.4-2.4,2.1-2.4,2.1h.8Z"/>
        <path class="st44" d="M495.3,143.2s.6-1.2,3.3-1.3c2.7-.1,8.8-.2,9.9.1,1.1.3,1.5,1.2,1.5,1.2h.8c0,0,0-1.5-1.9-2.2-1.9-.7-10.2-.4-12,0-1.8.4-2.4,2.1-2.4,2.1h.8Z"/>
      </g>
      <g>
        <path class="st17" d="M1589.5,658.1l-1.4,13.8c-.5,5.1,3.8,9.7,9.7,10.3l4.7.5c5.8.6,11-3.1,11.6-8.2l1.4-13.8-25.9-2.6Z"/>
        <path class="st1" d="M1606.3,672c-4.1-3.5-8.3-6.8-12.2-10.4-1.3-1.1-2.5-2.3-3.8-3.4h-.7c0,0-.4,4.1-.4,4.1,6.6,6.6,13.6,12.6,20.9,18.6,1.3-.8,2.3-1.9,3-3.2-2.2-1.9-4.5-3.9-6.7-5.8Z"/>
        <path class="st17" d="M1620.8,661.3l-1.5,14.4c-.5,5.1,4.3,9.8,10.8,10.4l5.2.5c6.4.7,12.1-3,12.6-8.1l1.5-14.4-28.6-2.9Z"/>
        <path class="st1" d="M1620.1,668.3l-.4,4c6.8,4.7,13.5,9.5,20.3,14.1,1.2-.3,2.3-.7,3.3-1.3-7.7-5.7-15.5-11.2-23.2-16.8Z"/>
        <path class="st9" d="M1593.5,673.2c-2-1.5-3.7-3.2-5-5.1l-.4,3.7c-.5,5.1,3.8,9.7,9.7,10.3l4.7.5c3.2.3,6.2-.6,8.3-2.4-6.2-1.2-12.4-3.4-17.3-7.1Z"/>
        <path class="st9" d="M1646.5,676.3c-7.6,4.5-16.6,5.8-25.3,5.3,1.9,2.4,5.1,4.2,8.9,4.6l5.2.5c6.4.7,12.1-3,12.6-8.1l.4-3.4c-.6.4-1.1.7-1.7,1.1Z"/>
        <path class="st29" d="M1686.5,643.3c0-1.1-.4-2.1-1.2-2.7-.8-.6-1.8-.6-2.7-.1l-33.6,19.4-51-5.2,26-12.8-.3,6.8c0,1.7,1.3,3.2,3,3.2,1.7,0,3.2-1.2,3.2-3l.6-12c0-1.1-.5-2.1-1.4-2.7-.9-.6-2.1-.7-3.1-.2l-38.9,19.1c-.8.4-1.4,1.2-1.6,2-.3.4-.5,1-.6,1.5-.2,1.8,1.2,3.5,3,3.7l61.2,6.2c1.4.1,2.7-.6,3.3-1.8l28.5-16.5-.4,6.8c0,1.7,1,3.1,2.5,3.2,1.5,0,2.8-1.3,2.8-3l.6-12Z"/>
      </g>
      <g>
        <path class="st26" d="M141.8,564.1c-.4-.2-16.9-8.9-16.1-17.6s7.1-20.5,7.1-20.5c0,0,5.9,0,5.5-1-.3-1-3.3-2.4-3.3-2.4,0,0,3.8-5.6,1.9-5.2-1.9.4-3.8,3.1-3.8,3.1,0,0-1.7-3-3.1-2.8-1.4.2-.2,5.7-.2,5.7,0,0-8,15.1-8.6,21.6-2,19.6,18.2,24.9,18.2,24.9l2.4-5.6Z"/>
        <path class="st26" d="M223.3,582.4c.3.3,14.2,12.8,22.1,9.1,7.9-3.7,16.8-13.7,16.8-13.7,0,0-2-5.5-.9-5.5,1.1,0,3.4,2.2,3.4,2.2,0,0,3.9-5.5,4.2-3.6.3,1.9-1.6,4.7-1.6,4.7,0,0,3.4.6,3.7,2,.3,1.4-5.3,2.1-5.3,2.1,0,0-11.5,12.7-17.4,15.5-17.7,8.6-29.6-8.6-29.6-8.6l4.4-4.2Z"/>
        <path class="st26" d="M192.9,624.5s31-3,41.2,4.5c10.3,7.5,9.7,22.8,9.7,22.8,0,0,5.4-5.2,6.3-3.3.9,1.9-1.4,4.1-1.4,4.1,0,0,5.1-.2,4.6,2.6-.5,2.8-5.1,3.7-5.1,3.7,0,0,3.3.6,2.5,3.3-.5,1.7-8.4-.3-10.1-2.5-1.7-2.2-4.1-20.7-10.3-24.9-5.8-3.9-32.8-1.5-32.8-1.5l-4.7-9Z"/>
        <path class="st26" d="M160.7,624s-22.2-4.2-27.3,7.4c-5.2,11.6.6,32.3.6,32.3,0,0-7.3-1.8-7.1.3.2,2.1,3.3,2.8,3.3,2.8,0,0-4.5,2.4-2.7,4.6,1.8,2.2,6.3.7,6.3.7,0,0-2.5,2.2-.5,4.1,1.3,1.2,7.1-4.4,7.5-7.2.4-2.8-7-32.2-.8-35.2,6.3-3,21.6-.7,21.6-.7l-.8-9Z"/>
        <path class="st22" d="M242.4,558.3c.6.7,1.6,3.4,2.8,3.1,1-.3-.2-2-.5-2.5-1-2,1.8-.2,2.5.2.6.3,4,2.5,4.2.9.1-1.2-2.3-2.1-3.1-2.5-.5-.2-1.4-.6-1.5-1.2-.2-.8.8-1,1.4-1,1.2,0,2.3.6,3.4.5.7,0,2,0,2.4-.7.7-1.3-1.9-1.9-2.7-2.1-1.4-.4-3.4.4-4.5-.5.4-1.9,3.4-2.2,4.7-3.3.3-.3.8-.9.4-1.4-.4-.6-1.7-.1-2.2,0-1.1.3-2,.6-2.9,1.2-.5.3-1.6,1.2-1.6.1,0-1,1.4-2,2-2.6.8-.7,1.8-1.7,2-2.8,0-.6-.2-1.2-.9-1.1-.9.1-1.6,1.2-2,1.9-.3.4-2.4,4-2.9,2.6-.3-.7,1-2.3,1.3-2.8.6-1,1.1-2.2,1.1-3.3,0-.5-.3-1.5-.9-1.6-.7,0-1.2,1.2-1.4,1.7-.1.5-1.3,4.8-2.2,4.1-.5-.4-.1-2,0-2.4.4-1.1,1-2.3.5-3.5-1.1-2.4-2.6.8-2.6,2,0,.6,1.1,5.1,0,4.9-.9-.1-.5-2.6-.7-3.2-.3-.7-1.2-1.2-1.7-.4-.7,1,.5,2.3,1,3.1,1.4,2.2-.9,4-.8,6.3,0,1.5.8,3.5,2.7,4.1,0,0,2.3,1.2,2.9,2.1Z"/>
        <path class="st49" d="M223.6,560.1s7.9-2.7,12.3-2.6c4.3,0,5.2.8,5.2.8,0,0,1.4-2.5,0-5.8-1.5-3.6-4-5-4-5,0,0-.7,2.8-4.5,4.6-3.8,1.9-10.9,3.9-10.9,3.9l1.9,4.1Z"/>
        <path class="st22" d="M156.8,520.6c-.9.1-3.5,1.4-4.2.3-.5-.9,1.5-1.3,2.1-1.5,2.1-.8-1.1-1.4-1.9-1.5-.7-.2-4.6-1-3.7-2.2.7-1,3.1,0,3.9.3.5.1,1.4.5,1.9.2.6-.4.1-1.2-.3-1.6-.9-.8-2-1.2-2.8-2-.5-.5-1.4-1.4-1.2-2.2.4-1.4,2.7,0,3.4.3,1.3.6,2.2,2.6,3.6,2.8,1-1.7-1-3.9-1.1-5.6,0-.4,0-1.2.7-1.3.7-.1,1.3,1.1,1.6,1.5.6.9,1,1.8,1.3,2.9.1.6.4,1.9,1.1,1.2.7-.7.4-2.4.3-3.3,0-1-.1-2.5.5-3.4.4-.5.9-.7,1.4-.1.6.7.3,1.9.2,2.7,0,.5-1,4.5.3,3.9.7-.3.9-2.4,1-2.9.3-1.1.7-2.3,1.5-3.2.3-.4,1.2-.9,1.8-.5.6.5,0,1.7-.2,2.2-.3.5-2.4,4.4-1.2,4.5.7,0,1.5-1.3,1.6-1.8.5-1.1.8-2.4,2-2.9,2.4-1,1.3,2.4.5,3.3-.4.4-4.3,2.9-3.4,3.5.7.5,2.2-1.6,2.8-1.8.7-.3,1.7,0,1.6.9-.2,1.2-2,1.4-2.9,1.6-2.5.6-2.1,3.5-3.8,5.1-1.1,1-3,2-4.8,1.2,0,0-2.5-.7-3.5-.5Z"/>
        <path class="st49" d="M169.1,534.8s-3.9-7.4-7.1-10.4c-3.2-3-4.3-3-4.3-3,0,0,.7-2.7,4-4.2,3.5-1.6,6.3-.9,6.3-.9,0,0-1.4,2.5,0,6.5,1.5,4,5.3,10.3,5.3,10.3l-4.2,1.6Z"/>
        <path class="st21" d="M208.3,533.1c-25.4-12.7-39.5-6.6-45-3.3-7.7,4.6-19.1,11.7-22.5,20.4,1.7,0,3.5-.5,5.2-.1-6.3,5.5-11.5,12.6-18.1,18,2.5.9,5.4-.4,7.9.3-2.6,4.6-8.3,7.7-10.2,13,2.2.7,4.1-1.3,6.2-.5-3.4,4.7-8.2,9.1-10.5,14.6,2.7-.7,5-3.7,8-3.6-2.6,6.6-5.8,13.7-8.8,20.2,2.5-1.2,6.6-4.3,9.3-5.5-2,4.3-5.4,14.8-4,18.8,2.3-2,5.5-4.6,8.5-5.1-.8,2-1.9,8.6-.9,9.5.4.4,4.8-2.3,5.4-2.8,0,0,3.5,8.9,6.1,13,2-1.3,8.3-5.5,9.1-4.6.3.3,1,9.7,3.7,12.5,2.1-2.3,6.3-4.9,7.4-3.8,0,0,0,9.3-1,12,3.3-1.5,7.6-5.4,11.4-6.8,1.3,2.2.5,7.1.9,9.9,2.4-2.4,8.5-7.2,8.5-7.2,1.1.4,3.4,5.5,3.2,8.6,3.6-3.4,6.2-7.6,7.6-12,3.4,2.7,5.3,5.1,8.7,7.4-.2-3,.8-6,.8-9,1.8,1.9,2.6,5.1,5.4,5.9.5-4.2-1.3-10,.1-14.1,2.4,1.8,4.1,4.9,6.1,7.1,2.4-5.5.8-12.7,0-18.3,2.5.7,5.4,1.4,7.7,1.7-.1-3.5-2.4-11.4-4.8-14.5,2.3.3,4.7,3.3,6.6,5.7,1.4-2.9.2-12.9-1.1-16,2.6,1.5,2.7,2.3,4.6,4.1.7-3.6-.2-6.6-1.3-10.2,3.1,2.1,2.3.6,4.1,2.8,2-3.4,12.8-49.2-24.2-67.7Z"/>
        <path class="st22" d="M197.6,545.9c-10.4-4.2-24.3-7.4-30.9,3.5-6.6,10.8-3.3,22.2,14.9,30.1,18.2,7.9,30.4,6.9,34.6-2.4,5.5-12.3.6-23.5-18.5-31.2Z"/>
        <path class="st3" d="M164.6,554.3c6.6-10.8,20.6-7.6,30.9-3.5,16.9,6.8,22.7,16.4,20,27,.2-.3.3-.7.5-1,5.5-12.3.6-23.5-18.5-31.2-10.4-4.2-24.3-7.4-30.9,3.5-1.3,2.2-2.3,4.4-2.7,6.5.2-.5.5-.9.8-1.4Z"/>
        <path class="st26" d="M180.7,551.5c-.5-.3-.9-.5-1.3-.6l.3-1.5c0-.4-.2-.7-.6-.8,0,0,0,0,0,0-.4,0-.7.2-.8.6l-.3,1.6c-.1,0-.2,0-.4,0l-.3-1.4c0-.4-.5-.6-.8-.5-.4,0-.6.5-.5.8l.4,1.6c-.3.1-.5.3-.6.4-.3.3-.3.7,0,1,.3.3.7.3,1,0,0,0,1.4-1.2,3.4,0,1.5.9,1.2,2.2,1.2,2.4,0,.4.1.8.5.8,0,0,0,0,0,0,.4,0,.7-.2.8-.5,0,0,.5-2.4-1.8-3.9Z"/>
        <path class="st26" d="M209.6,566.6c.5.4.8.8,1.1,1.2l1.5-.9c.4-.2.8,0,1.1.3,0,0,0,0,0,0,.2.4,0,.8-.3,1.1l-1.6.9c0,.1,0,.3.1.4l1.6-.2c.4,0,.8.2.9.7,0,.4-.2.8-.7.9l-1.8.2c0,.3-.1.6-.2.8-.1.4-.6.6-1,.5-.4-.1-.6-.6-.5-1,0,0,.7-2-1.3-3.5-1.5-1.2-2.8-.4-2.9-.3-.4.2-.8.1-1.1-.2,0,0,0,0,0,0-.2-.4-.1-.8.2-1,0,0,2.3-1.5,4.7.4Z"/>
        <path class="st26" d="M189.1,574.4c-.7,1.1-2,1.5-2.9.9-.9-.6-1.1-2-.4-3.1.7-1.1,2-1.5,2.9-.9.9.6,1.1,2,.4,3.1Z"/>
        <polygon class="st8" points="147.2 572.3 142.2 582 153.5 578.5 150.9 575.8 146.9 578.1 149.5 574 147.2 572.3"/>
        <polygon class="st8" points="156.9 586.9 153.4 603.9 165.1 596 162.2 593.3 156.9 597.9 159.4 588.4 156.9 586.9"/>
        <polygon class="st8" points="191.5 600.5 193.6 611.9 200.9 600.4 197.3 600.5 194.6 606.4 193.3 600.4 191.5 600.5"/>
        <path class="st8" d="M207.1,614.9c0,.6,1.6,9.9,1.6,9.9l5.7-10.4-3.2-.2-1.5,3.9-.5-3.7-2.1.4Z"/>
        <polygon class="st8" points="216.7 591.9 220.6 601 224.1 589.6 221.4 590.3 220.3 596.1 218.8 591.2 216.7 591.9"/>
        <polygon class="st8" points="167 616 165.3 626.3 174.4 618.2 171.6 617.3 167.7 621.1 168.6 616.1 167 616"/>
        <path class="st8" d="M137.5,604.4c-.1.6-3,7.5-3,7.5l9.2-3.3-2-2.2-3.5,1.8,1-3-1.7-.7Z"/>
        <polygon class="st8" points="134.7 584.7 131.6 593.1 137.4 588.8 136.6 587.4 134.7 588.9 136.1 584.5 134.7 584.7"/>
        <polygon class="st8" points="188.4 631.5 189.2 639.1 193.6 629.5 191.3 629.9 190.1 633.5 189.6 630.8 188.4 631.5"/>
        <polygon class="st8" points="170.1 637.6 168.3 647.3 176.3 640.7 174.6 639 171 642.4 172 638 170.1 637.6"/>
        <polygon class="st8" points="149.5 555.3 142.8 560.9 152.2 561.4 150.7 559.8 147.5 559.6 150.2 557.1 149.5 555.3"/>
        <path class="st45" d="M175.2,559.2c-.4,2-2.3,3.4-4.4,3-2-.4-3.4-2.3-3-4.4.4-2,2.3-3.4,4.4-3,2,.4,3.4,2.3,3,4.4Z"/>
        <path class="st45" d="M210.3,578.3c-.4,2-2.3,3.4-4.4,3-2-.4-3.4-2.3-3-4.4.4-2,2.3-3.4,4.4-3,2,.4,3.4,2.3,3,4.4Z"/>
      </g>
      <path class="st10" d="M1776.2,360.8c-18.4-23.1-14.7-56.7,8.4-75.2,23.1-18.4,56.7-14.7,75.2,8.4,18.4,23.1,14.7,56.7-8.4,75.2-23.1,18.4-56.7,14.7-75.2-8.4Z"/>
      <path class="st10" d="M1198.4,720.8c-7.9,8.8-21.5,9.5-30.3,1.6-8.8-7.9-9.5-21.5-1.6-30.3,7.9-8.8,21.5-9.5,30.3-1.6,8.8,7.9,9.5,21.5,1.6,30.3Z"/>
      <path class="st10" d="M1532.7,184.2c-13.9-12.2-15.3-33.4-3.1-47.3,12.2-13.9,33.4-15.3,47.3-3.1,13.9,12.2,15.3,33.4,3.1,47.3-12.2,13.9-33.4,15.3-47.3,3.1Z"/>
      <path class="st10" d="M611.5,109.4c14.4-25.9,47.1-35.3,73.1-20.9,25.9,14.4,35.3,47.1,20.9,73.1-14.4,25.9-47.1,35.3-73.1,20.9-25.9-14.4-35.3-47.1-20.9-73.1Z"/>
      <path class="st10" d="M298.6,388.3c-17-8.7-23.8-29.5-15.1-46.6,8.7-17,29.5-23.8,46.6-15.1,17,8.7,23.8,29.5,15.1,46.6-8.7,17-29.5,23.8-46.6,15.1Z"/>
      <g>
        <g>
          <g>
            <path class="st20" d="M-50.7,829.9c0,2.2-1.8,4-4,4s-4-1.8-4-4,1.8-4,4-4,4,1.8,4,4Z"/>
            <circle class="st20" cx="-52.8" cy="811.8" r="4"/>
            <circle class="st20" cx="-36.4" cy="825.8" r="4"/>
          </g>
          <g>
            <path class="st20" d="M551,634.1c0,2.2-1.8,4-4,4s-4-1.8-4-4,1.8-4,4-4,4,1.8,4,4Z"/>
            <path class="st20" d="M553,616c0,2.2-1.8,4-4,4s-4-1.8-4-4,1.8-4,4-4,4,1.8,4,4Z"/>
            <path class="st20" d="M569.3,630.1c0,2.2-1.8,4-4,4s-4-1.8-4-4,1.8-4,4-4,4,1.8,4,4Z"/>
          </g>
          <g>
            <path class="st20" d="M1020.1,621.5c0,2.2-1.8,4-4,4s-4-1.8-4-4,1.8-4,4-4,4,1.8,4,4Z"/>
            <circle class="st20" cx="1018" cy="603.4" r="4"/>
            <circle class="st20" cx="1034.3" cy="617.4" r="4"/>
          </g>
          <g>
            <path class="st20" d="M1023,204.6c0,2.2-1.8,4-4,4s-4-1.8-4-4,1.8-4,4-4,4,1.8,4,4Z"/>
            <path class="st20" d="M1025,186.6c0,2.2-1.8,4-4,4s-4-1.8-4-4,1.8-4,4-4,4,1.8,4,4Z"/>
            <circle class="st20" cx="1037.3" cy="200.6" r="4"/>
          </g>
          <g>
            <path class="st20" d="M654.6,462.7c0,2.2-1.8,4-4,4s-4-1.8-4-4,1.8-4,4-4,4,1.8,4,4Z"/>
            <path class="st20" d="M656.5,444.6c0,2.2-1.8,4-4,4s-4-1.8-4-4,1.8-4,4-4,4,1.8,4,4Z"/>
            <path class="st20" d="M672.9,458.6c0,2.2-1.8,4-4,4s-4-1.8-4-4,1.8-4,4-4,4,1.8,4,4Z"/>
          </g>
          <g>
            <path class="st20" d="M1015.8,886.4c0,2.2-1.8,4-4,4s-4-1.8-4-4,1.8-4,4-4,4,1.8,4,4Z"/>
            <path class="st20" d="M1017.7,868.3c0,2.2-1.8,4-4,4s-4-1.8-4-4,1.8-4,4-4,4,1.8,4,4Z"/>
            <path class="st20" d="M1034.1,882.4c0,2.2-1.8,4-4,4s-4-1.8-4-4,1.8-4,4-4,4,1.8,4,4Z"/>
          </g>
          <g>
            <path class="st20" d="M827.7,788.1c0,2.2-1.8,4-4,4s-4-1.8-4-4,1.8-4,4-4,4,1.8,4,4Z"/>
            <path class="st20" d="M829.7,770.1c0,2.2-1.8,4-4,4s-4-1.8-4-4,1.8-4,4-4,4,1.8,4,4Z"/>
            <path class="st20" d="M846,784.1c0,2.2-1.8,4-4,4s-4-1.8-4-4,1.8-4,4-4,4,1.8,4,4Z"/>
          </g>
          <g>
            <circle class="st20" cx="297.9" cy="264.8" r="4"/>
            <path class="st20" d="M303.9,246.7c0,2.2-1.8,4-4,4s-4-1.8-4-4,1.8-4,4-4,4,1.8,4,4Z"/>
            <circle class="st20" cx="316.2" cy="260.8" r="4"/>
          </g>
        </g>
        <circle class="st20" cx="21.8" cy="379.4" r="4.6"/>
        <circle class="st20" cx="693.2" cy="397.1" r="4.6"/>
        <circle class="st20" cx="366.7" cy="349.8" r="4.6"/>
        <circle class="st20" cx="901.4" cy="196.1" r="4.6"/>
        <path class="st20" d="M888.9,485.8c0,2.5-2.1,4.6-4.6,4.6s-4.6-2.1-4.6-4.6,2.1-4.6,4.6-4.6,4.6,2.1,4.6,4.6Z"/>
        <circle class="st20" cx="787.1" cy="604" r="4.6"/>
        <circle class="st20" cx="864.5" cy="827.1" r="4.6"/>
        <circle class="st20" cx="445.5" cy="868.1" r="4.6"/>
        <circle class="st20" cx="142.7" cy="885.8" r="4.6"/>
      </g>
      <g>
        <g>
          <g>
            <path class="st20" d="M1697.9,365.1c0,2.2-1.8,4-4,4s-4-1.8-4-4,1.8-4,4-4,4,1.8,4,4Z"/>
            <path class="st20" d="M1699.9,347.1c0,2.2-1.8,4-4,4s-4-1.8-4-4,1.8-4,4-4,4,1.8,4,4Z"/>
            <path class="st20" d="M1716.2,361.1c0,2.2-1.8,4-4,4s-4-1.8-4-4,1.8-4,4-4,4,1.8,4,4Z"/>
          </g>
          <g>
            <path class="st20" d="M1783.8,634.1c0,2.2-1.8,4-4,4s-4-1.8-4-4,1.8-4,4-4,4,1.8,4,4Z"/>
            <path class="st20" d="M1785.7,616c0,2.2-1.8,4-4,4s-4-1.8-4-4,1.8-4,4-4,4,1.8,4,4Z"/>
            <path class="st20" d="M1802.1,630.1c0,2.2-1.8,4-4,4s-4-1.8-4-4,1.8-4,4-4,4,1.8,4,4Z"/>
          </g>
          <g>
            <path class="st20" d="M2252.8,621.5c0,2.2-1.8,4-4,4s-4-1.8-4-4,1.8-4,4-4,4,1.8,4,4Z"/>
            <circle class="st20" cx="2250.7" cy="603.4" r="4"/>
            <circle class="st20" cx="2267.1" cy="617.4" r="4"/>
          </g>
          <g>
            <path class="st20" d="M2255.8,204.6c0,2.2-1.8,4-4,4s-4-1.8-4-4,1.8-4,4-4,4,1.8,4,4Z"/>
            <path class="st20" d="M2257.8,186.6c0,2.2-1.8,4-4,4s-4-1.8-4-4,1.8-4,4-4,4,1.8,4,4Z"/>
            <circle class="st20" cx="2270" cy="200.6" r="4"/>
          </g>
          <g>
            <path class="st20" d="M1887.4,462.7c0,2.2-1.8,4-4,4s-4-1.8-4-4,1.8-4,4-4,4,1.8,4,4Z"/>
            <path class="st20" d="M1889.3,444.6c0,2.2-1.8,4-4,4s-4-1.8-4-4,1.8-4,4-4,4,1.8,4,4Z"/>
            <path class="st20" d="M1905.7,458.6c0,2.2-1.8,4-4,4s-4-1.8-4-4,1.8-4,4-4,4,1.8,4,4Z"/>
          </g>
          <g>
            <path class="st20" d="M2248.5,886.4c0,2.2-1.8,4-4,4s-4-1.8-4-4,1.8-4,4-4,4,1.8,4,4Z"/>
            <path class="st20" d="M2250.5,868.3c0,2.2-1.8,4-4,4s-4-1.8-4-4,1.8-4,4-4,4,1.8,4,4Z"/>
            <path class="st20" d="M2266.8,882.4c0,2.2-1.8,4-4,4s-4-1.8-4-4,1.8-4,4-4,4,1.8,4,4Z"/>
          </g>
          <g>
            <path class="st20" d="M2060.5,788.1c0,2.2-1.8,4-4,4s-4-1.8-4-4,1.8-4,4-4,4,1.8,4,4Z"/>
            <path class="st20" d="M2062.5,770.1c0,2.2-1.8,4-4,4s-4-1.8-4-4,1.8-4,4-4,4,1.8,4,4Z"/>
            <path class="st20" d="M2078.8,784.1c0,2.2-1.8,4-4,4s-4-1.8-4-4,1.8-4,4-4,4,1.8,4,4Z"/>
          </g>
          <g>
            <circle class="st20" cx="1530.7" cy="264.8" r="4"/>
            <path class="st20" d="M1536.7,246.7c0,2.2-1.8,4-4,4s-4-1.8-4-4,1.8-4,4-4,4,1.8,4,4Z"/>
            <circle class="st20" cx="1549" cy="260.8" r="4"/>
          </g>
        </g>
        <circle class="st20" cx="1254.6" cy="379.4" r="4.6"/>
        <circle class="st20" cx="1925.9" cy="397.1" r="4.6"/>
        <circle class="st20" cx="1599.5" cy="349.8" r="4.6"/>
        <circle class="st20" cx="2134.2" cy="196.1" r="4.6"/>
        <path class="st20" d="M2121.7,485.8c0,2.5-2.1,4.6-4.6,4.6s-4.6-2.1-4.6-4.6,2.1-4.6,4.6-4.6,4.6,2.1,4.6,4.6Z"/>
        <circle class="st20" cx="2019.9" cy="604" r="4.6"/>
        <circle class="st20" cx="2097.3" cy="827.1" r="4.6"/>
        <circle class="st20" cx="1678.3" cy="868.1" r="4.6"/>
        <circle class="st20" cx="1375.5" cy="885.8" r="4.6"/>
      </g>
    </g>
  </g>
</svg>