<?xml version="1.0" encoding="UTF-8"?>
<svg id="OBJECTS" xmlns="http://www.w3.org/2000/svg" version="1.1" viewBox="0 0 858.2 781.9">
  <!-- Generator: Adobe Illustrator 29.0.0, SVG Export Plug-In . SVG Version: 2.1.0 Build 186)  -->
  <defs>
    <style>
      .st0 {
        fill: #6964a3;
      }

      .st1 {
        fill: #ffff36;
      }

      .st2 {
        fill: #fff42e;
      }

      .st3 {
        fill: #ffa41d;
      }

      .st4 {
        fill: #15b561;
      }

      .st5 {
        fill: #5bf43b;
      }

      .st6 {
        fill: #fff;
      }

      .st7 {
        fill: #fffdb6;
      }

      .st8 {
        fill: #dd0768;
      }

      .st9 {
        fill: #c9f2e7;
      }

      .st10 {
        fill: #96c1e2;
      }

      .st11 {
        fill: #ffb7ed;
      }

      .st12 {
        fill: #3a8ecc;
      }

      .st13 {
        fill: #ffac27;
      }

      .st14 {
        fill: #96ff7d;
      }

      .st15 {
        fill: #340304;
      }

      .st16 {
        fill: #fe2a2a;
      }

      .st17 {
        fill: #f467f1;
      }

      .st18 {
        fill: #3579c4;
      }

      .st19 {
        fill: #9b513a;
      }

      .st20 {
        fill: #b94add;
      }

      .st21 {
        fill: #ff7415;
      }
    </style>
  </defs>
  <g>
    <path class="st9" d="M356.3,685.8c-.6-.4-1.5-.4-2.2-.5-6.2-.4-12.8.8-18.6,2.8,0,0,0,0,0,0-1.2.4-2.3.9-3.5,1.4-2.3.9-7.9,2.6-7.9,5.8,0,4.2,7.4,1.9,9.6,1.5,3-.6,6-1.2,8.9-1.9,1.3-.3,2.5-.7,3.8-1.1,1.6-.5,3.2-1.1,4.8-1.7,1.4-.6,2.9-1.2,4.2-2,1.2-.8,3.1-2.8,1-4.2h0ZM353.8,687.7c-2.3,1.8-5.4,3.1-8.4,4-1.4.4-2.7.8-4,1.1-4.5,1.2-9.2,1.8-13.9,1.4-.1,0-.3-.1-.3-.3,0-.6,0-.9.5-1.4.1-.2.4,0,.3.2-.4.6-.2.8.2.8h0c.2-.1.4-.3.6-.4,2.9-1.7,6.6-2.7,9.8-3.4.2,0,.3.3,0,.3-1.7.7-3.5,1.2-5.2,1.9-1.1.5-2.2,1-3.4,1.4.3,0,.6,0,.9,0,1.1,0,2.2-.2,3.3-.3,2.2-.3,4.5-.7,6.7-1.3,2.1-.5,4.2-1.2,6.3-2.1,1.4-.6,2.8-1.3,4.2-2-3.1.4-6.1.5-9.2,1.4-.2,0-.3-.3,0-.3,3-1,6.6-2.2,9.9-2-.2-.1-.4-.2-.7-.3-.3-.1,0-.5.2-.5.7.2,1.4.3,2,.6.3.1.2.4,0,.6,0,.1.1.3,0,.5h0Z"/>
    <path class="st16" d="M385.6,751.4c-2.8-2.9-5.6-5.7-8.3-8.6,0,0,0,0,0,0-.9,2.3-3.5,3.6-5.7,4.7-1.2.6-2.5,1.2-3.7,1.7-2.2,1-4.5,1.9-6.8,2.7-3.9,1.4-7.8,2.5-11.8,3.4-3.5.7-7.3,1.1-10.8,0-.3,0-.2-.5.1-.4,3.8,1,7.4.3,11.1-.6,3.3-.8,6.6-1.8,9.9-2.9,2.7-.9,5.3-1.9,7.9-3.1.7-.3,1.4-.6,2.1-1,.3-.2.7-.3,1-.5.3-.2.7-.3,1-.5.2,0,.4-.2.6-.3,1.8-.9,3.5-2.1,4.3-4,0,0,0,0-.1,0-.2,0-.3-.2-.5-.2-.1,0-.2,0-.3-.1-.7-.3-1.4-.4-2.2-.4h0c-1.4,0-2.9.2-4.3.5,0,0,0,0-.1,0-.2,0-.5,0-.7.1-.5.1-1,.2-1.4.3-.8.2-1.5.3-2.3.5-2.9.7-5.8,1.5-8.6,2.4-6.6,2.2-13.4,4.8-18.2,10,0,0,0,.1,0,.2-.1,4-.7,7.9-1.1,11.9-.2,1.9-.9,4.4,1.6,5.1,1.7.5,3.5.6,5.2.7,5.7.2,11.5-.9,17-2.4,1.6-.4,3.2-.9,4.8-1.3,6.6-1.9,13.2-4.3,18.8-8.2,1.3-.9,2.7-1.9,3.5-3.4,1.4-2.6-.3-4.4-2-6.2h0ZM361.8,745.3c.2-.2.5,0,.3.3-.2.3,0,.9.3.9.5,0,.6-.5.7-.8,0-.3.3-.2.5,0,.3.3,0,.9-.2,1.2-.3.3-.7.5-1.2.4-.8-.2-1-1.3-.5-1.9h0ZM352.5,747.8c.3,0,.5.3.2.5-.6.4-.6,1.3.1,1.5.3,0,.6,0,.8-.3.2-.3,0-.6.2-.8,0-.1.3-.2.4-.1.5.4.3,1.2,0,1.6-.4.5-1.1.7-1.7.4-1.3-.5-1.3-2.3,0-2.7ZM346.8,763c-2.7-.9-2.1-4.8.7-5,.4,0,.4.6,0,.6-1.7.3-2.2,2.8-.3,3.4,1.8.5,2.5-1.6,1.6-2.8-.3-.4.3-.8.6-.5.9.8,1,2.3.4,3.3-.6,1.1-1.9,1.4-3,1h0ZM348.5,770.3c-.4-.4-.5-.9-.2-1.4.3-.4.8-.5,1.2-.3.3.1,0,.5-.2.5-.2,0-.4.2-.4.4,0,.2.3.3.4.4.5,0,.7-.5,1-.8.2-.2.5,0,.5.2,0,1.2-1.5,1.9-2.4,1.1h0ZM356.3,763c-.7.2-1.4,0-1.8-.6-.4-.6-.3-1.3.1-1.9.2-.3.6,0,.4.3-.4.7.2,1.7,1,1.4.4-.1.6-.5.5-.9,0-.4-.4-.5-.6-.9,0-.2,0-.4.2-.4.7-.1,1.2.8,1.2,1.4,0,.7-.4,1.3-1.1,1.6h0ZM363,758.7c-2-.1-2.5-2.5-1-3.6.3-.2.6.2.4.4-.8.7-.4,2.2.7,2.2.5,0,1-.3,1.1-.8.2-.6-.1-.9-.3-1.4,0-.2.2-.5.4-.4.8.3,1,1.5.7,2.3-.3.9-1.1,1.3-2,1.3h0ZM367.6,765.3c-.2.5-.7.9-1.3.9-1.3,0-1.7-1.7-.7-2.4.3-.2.6.2.3.4-.4.4-.3,1.2.4,1.2.3,0,.5-.2.6-.5,0-.3-.1-.5-.2-.7,0-.2.1-.4.3-.3.6.1.7,1,.5,1.4h0ZM374.4,758.1c-2.4-1.3-1.7-5.1,1.1-5,.4,0,.4.6,0,.6-2,.2-2.2,3.1-.3,3.5.9.2,1.8-.3,2.3-1,.4-.7.3-1.4.2-2.2,0-.4.5-.5.7-.2,1.5,2.5-1.6,5.6-4.2,4.2h0Z"/>
    <path class="st9" d="M393.5,753.6c-6.6-5.3-12.6-11.6-18.4-17.7-5.5-5.8-11.3-11.7-16-18.2-1.6,1.6-3.5,3-5.5,4.1-3.5,1.8-7.6,2.7-11.5,2.3-.3,0-.3-.4,0-.4,4,0,7.8-.8,11.2-2.7,1.9-1,3.7-2.3,5.3-4,0-.1,0-.2,0-.3-1.2-3.9-2.1-7.9-3.1-11.8-1-4-2.3-8-3-12.1-.4.2-.8.3-1.2.5-1.6.6-3.2,1.2-4.8,1.7-4.8,1.5-9.8,2.5-14.7,3.4-.2,0-.5,0-.8.1,1.6,3.8,2.8,7.8,3.9,11.7,1.2,4,2.3,8,3.3,12.1,0,.2,0,.3,0,.5-.2,7.9-1.7,15.9-2.7,23.8-1.1,8.3-2.2,16.5-3.4,24.8,0,.1,0,.2-.1.3.3,1.6,1.1,2.7,2.2,3.5,1.5,1.1,3.4,1.5,5.5,1.7,2.9.3,5.8.3,8.7.2,6-.3,11.9-1.4,17.6-3.2,5.8-1.8,11.3-4.1,16.7-6.9,5.1-2.6,12.7-6.5,11.1-13.4h0ZM388.6,758.2c-1.3,2.4-4.1,4-6.4,5.4-2.6,1.6-5.4,2.9-8.3,4-6.2,2.4-12.8,4.1-19.4,5.4-1.7.3-3.4.6-5.1.8h0c-1.7.2-3.3.3-5,.3-2.4,0-6.2,0-8.2-1.5-2-1.6-1-4.9-.7-7,.4-3.5.7-7,1.4-10.4-.1,0-.2-.3,0-.4,4.2-6.2,12.8-9,19.6-11.2,2.4-.8,4.9-1.5,7.3-2,2-.5,4-.8,6-1.2,2.4-.4,5.4-.8,7.5.8,0,0,.1,0,.2.1.2.2.4.3.5.5,0,0,0,0,0,0,0,0,.1,0,.1,0,3,3.1,6.1,6.2,9.1,9.4,1.8,2,2.9,4.2,1.4,6.8h0Z"/>
    <path class="st15" d="M394.3,752.9s0,0,0,0c0,0,0,0-.1-.1-5.9-5.9-12.2-11.4-18.1-17.5-5.6-5.9-10.8-12.2-16.4-18,0,0,0-.2,0-.3-.9-4.2-2.1-8.3-3.2-12.4-1.1-4-1.9-8.2-3.4-12.1,1.8-.7,3.7-1.7,4.6-3.3,1-1.7.5-3.8-1.4-4.6-1.3-.5-2.9-.4-4.3-.4-1.9,0-3.9.2-5.8.4-1.8.2-3.5.6-5.3,1.1,0,0-.2-.1-.3,0-3.3.8-6.5,1.7-9.7,3-2.4,1-5.7,2-7.3,4.2-1.1,1.6-1.1,3.7.4,5,1.6,1.4,3.9,1.1,5.9.7,1.1,4,2.6,7.9,3.7,11.9,1.2,4,2.2,8,3.3,12.1,0,0,0,.2.1.2-.7,3.8-1,7.7-1.5,11.6-.5,4.1-1,8.1-1.5,12.2-1,8.1-2.2,16.3-3.4,24.4,0,.2,0,.4.2.5-.5,4.5,4.7,6.1,8.2,6.5,5.6.6,11.2.3,16.8-.6,11-1.8,21.8-6.1,31.4-11.9,4.1-2.5,8.8-6.9,7.1-12.2,0-.1,0-.3-.2-.4h0ZM324,695.3c0-3.2,5.6-4.8,7.9-5.8,1.1-.5,2.3-.9,3.5-1.4,5.9-2,12.5-3.2,18.7-2.8.7,0,1.6,0,2.3.5,2.1,1.4.2,3.4-1,4.2-1.3.8-2.8,1.4-4.2,2-2.8,1.2-5.7,2.1-8.6,2.8-2.9.8-5.9,1.4-8.9,1.9-2.3.4-9.6,2.7-9.7-1.5ZM382.4,767c-5.3,2.8-10.9,5.2-16.7,6.9-5.7,1.7-11.6,2.9-17.6,3.2-2.9.1-5.8,0-8.7-.2-3.5-.4-6.8-1.4-7.6-5.2,0,0,.1-.2.1-.3,1.2-8.2,2.4-16.5,3.4-24.8,1-7.8,2.4-15.9,2.7-23.8,0-.1.1-.3,0-.5-1-4.1-2.1-8.1-3.3-12.1-1.2-3.9-2.3-8-3.9-11.7.3,0,.5,0,.8-.1,6.6-1.2,13.3-2.5,19.5-5.1.4-.2.8-.3,1.2-.5.7,4.1,1.9,8.1,3,12.1,1,3.9,1.9,7.9,3.1,11.8,0,0,0,.2,0,.3-4.5,4.6-10.2,6.7-16.5,6.7-.3,0-.3.4,0,.4,6.2.7,12.7-1.9,17-6.4,4.7,6.5,10.5,12.4,16,18.2,5.8,6.1,11.8,12.4,18.4,17.7,1.6,6.9-6,10.7-11.1,13.4h0Z"/>
    <path class="st15" d="M353.8,687.7c.2-.1.1-.3,0-.5.2-.2.2-.4,0-.6-.6-.3-1.3-.4-2-.6-.3,0-.5.3-.2.5.2,0,.4.2.7.3-3.3-.2-6.9,1-9.9,2-.2,0-.1.4,0,.3,3.1-.9,6.1-1,9.2-1.4-1.4.6-2.8,1.4-4.2,2-2,.8-4.1,1.5-6.3,2.1-2.2.6-4.4,1-6.7,1.3-1.1.1-2.2.2-3.3.3-.3,0-.6,0-.9,0,1.1-.4,2.3-1,3.4-1.4,1.7-.7,3.5-1.3,5.2-1.9.2,0,.1-.4,0-.3-3.4.7-7.5,1.8-10.4,3.8,0,0,0,0,0,0-.4,0-.6-.3-.2-.8.1-.2-.2-.4-.3-.2-.4.5-.5.8-.5,1.4,0,.2.1.2.3.3,4.7.4,9.4-.2,13.9-1.4,4.1-1,9.1-2.4,12.4-5.1h0Z"/>
    <path class="st15" d="M378.1,742s0,0-.1,0c0,0,0,0,0,0-.2-.2-.3-.4-.5-.5,0,0-.1-.1-.2-.2-2-1.6-5-1.2-7.5-.8-4.5.7-9,1.8-13.3,3.2-6.8,2.2-15.4,5-19.6,11.2-.1.2,0,.3,0,.4-.7,3.4-1,7-1.4,10.4-.2,2.1-1.2,5.4.7,7,2,1.6,5.8,1.4,8.2,1.5,3.4,0,6.8-.4,10.1-1,6.6-1.3,13.2-3,19.4-5.4,2.9-1.1,5.7-2.4,8.3-4,2.3-1.4,5-3,6.4-5.4,1.4-2.6.4-4.8-1.5-6.8-3-3.2-6-6.3-9.1-9.4h0ZM387.6,757.6c-.8,1.5-2.2,2.5-3.5,3.4-5.7,4-12.2,6.4-18.8,8.2-7,2-14.5,4-21.8,3.7-1.7,0-3.6-.2-5.2-.7-2.5-.7-1.8-3.2-1.6-5.1.4-3.9,1-7.9,1.1-11.9,0,0,0-.2,0-.2,4.8-5.2,11.7-7.8,18.2-10,3.6-1.2,7.2-2.1,10.9-2.9,2.9-.6,6.9-1.8,9.7-.1-1.2,2.8-4.3,4-6.9,5.2-3.3,1.5-6.6,2.9-10,4-3.2,1.1-6.5,2.1-9.9,2.9-3.7.9-7.3,1.6-11.1.6-.3,0-.4.3-.1.4,3.5,1.1,7.3.8,10.8,0,4-.8,8-2,11.8-3.4,3.6-1.3,7.1-2.7,10.6-4.4,2.1-1,4.8-2.3,5.7-4.7,0,0,0,0,0,0,2.8,2.9,5.5,5.7,8.3,8.6,1.7,1.8,3.3,3.6,2,6.2h0Z"/>
    <path class="st15" d="M349.8,762c.6-1,.5-2.5-.4-3.3-.3-.3-.9.1-.6.5.9,1.2.1,3.3-1.6,2.8-1.8-.5-1.4-3,.3-3.4.3,0,.3-.7,0-.6-2.8.2-3.3,4-.7,5,1.1.4,2.4,0,3-1h0Z"/>
    <path class="st15" d="M356.2,760c-.2,0-.3.3-.2.4.2.3.5.5.6.8,0,.4-.1.7-.5.9-.8.3-1.4-.7-1-1.4.1-.3-.2-.6-.4-.3-.4.5-.5,1.3-.1,1.9.4.6,1.2.8,1.8.6.7-.2,1.1-.8,1.1-1.6,0-.6-.5-1.5-1.2-1.4h0Z"/>
    <path class="st15" d="M364.3,755.2c-.3,0-.5.2-.4.4.2.5.4.8.3,1.4-.2.5-.6.8-1.1.8-1.1,0-1.5-1.5-.7-2.2.3-.2,0-.7-.4-.5-1.5,1.1-.9,3.5,1,3.6.9,0,1.7-.5,2-1.3.3-.7.1-2-.7-2.3h0Z"/>
    <path class="st15" d="M367.1,763.8c-.2,0-.4.1-.3.3,0,.3.2.5.2.7,0,.3-.3.5-.6.5-.7,0-.8-.8-.4-1.2.2-.2,0-.6-.3-.4-1.1.7-.6,2.3.7,2.4.6,0,1.1-.3,1.3-.9.2-.5,0-1.3-.5-1.4Z"/>
    <path class="st15" d="M377.8,754c0,.8.2,1.5-.2,2.2-.4.8-1.4,1.2-2.3,1-1.9-.5-1.8-3.3.3-3.5.4,0,.4-.6,0-.6-2.9-.2-3.5,3.7-1.1,5,2.5,1.3,5.6-1.7,4.1-4.2-.2-.3-.8-.2-.7.2h0Z"/>
    <path class="st15" d="M350.3,769c-.3.3-.5.9-1,.8-.2,0-.4-.2-.4-.3s.2-.4.4-.4c.3,0,.5-.3.2-.5-.4-.2-.9,0-1.2.3-.3.4-.2,1,.2,1.4.9.8,2.4,0,2.4-1.1,0-.3-.4-.4-.5-.2h0Z"/>
    <path class="st15" d="M352.5,750.6c.6.2,1.3,0,1.7-.4.3-.4.6-1.3,0-1.6-.1,0-.3,0-.4.1-.1.3,0,.6-.2.8-.2.3-.4.4-.8.3-.7-.2-.7-1.1-.1-1.5.2-.2,0-.6-.2-.5-1.4.4-1.3,2.2,0,2.7h0Z"/>
    <path class="st15" d="M362.2,747.2c.4.1.9,0,1.2-.4.3-.3.5-.8.2-1.2-.1-.2-.4-.2-.5,0,0,.3-.2.9-.7.8-.4,0-.5-.6-.3-.9.2-.2-.1-.6-.3-.3-.6.6-.4,1.7.5,1.9h0Z"/>
    <path class="st10" d="M341.1,691.9c2.1-.5,4.2-1.2,6.3-2.1,1.4-.6,2.8-1.3,4.2-2-3.1.4-6.1.5-9.2,1.4-.2,0-.3-.3,0-.3,3-1,6.6-2.2,9.9-2-.2-.1-.4-.2-.7-.3-.3-.1,0-.5.2-.5.7.2,1.4.3,2,.6.3.1.2.4,0,.6,0,.1.1.3,0,.5-2.3,1.8-5.4,3.1-8.4,4,.4.4.9,1,1,2,1.6-.5,3.2-1.1,4.8-1.7,1.4-.6,2.9-1.2,4.2-2,1.2-.8,3.1-2.8,1-4.2-.6-.4-1.5-.4-2.2-.5-6.2-.4-12.8.8-18.6,2.8-3.5,2.3-6,4.2-6.6,5.1,2.9-1.7,6.6-2.7,9.8-3.4.2,0,.3.3,0,.3-1.7.7-3.5,1.2-5.2,1.9-1.1.5-2.2,1-3.4,1.4.3,0,.6,0,.9,0,1.1,0,2.2-.2,3.3-.3,2.2-.3,4.5-.7,6.7-1.3h0Z"/>
    <path class="st10" d="M393.5,753.6c-6.6-5.3-12.6-11.6-18.4-17.7-5.5-5.8-11.3-11.7-16-18.2-1.6,1.6-3.5,3-5.5,4.1l10.4,19.7c2-.5,4-.8,6-1.2,2.4-.4,5.4-.8,7.5.8,0,0,.1,0,.2.1.2.2.4.3.5.5,0,0,0,0,0,0,0,0,.1,0,.1,0,3,3.1,6.1,6.2,9.1,9.4,1.8,2,2.9,4.2,1.4,6.8-1.3,2.4-4.1,4-6.4,5.4-2.6,1.6-5.4,2.9-8.3,4-6.2,2.4-12.8,4.1-19.4,5.4-1.7.3-3.4.6-5.1.8h0c-4.3.8-9.4,1.3-15.5,1.3,1.5,1.1,3.4,1.5,5.5,1.7,2.9.3,5.8.3,8.7.2,6-.3,11.9-1.4,17.6-3.2,5.8-1.8,11.3-4.1,16.7-6.9,5.1-2.6,12.7-6.5,11.1-13.4h0Z"/>
    <path class="st10" d="M355.4,704.9c-1-4-2.3-8-3-12.1-.4.2-.8.3-1.2.5-1.6.6-3.2,1.2-4.8,1.7.3,3.8,5.7,22.4,6.7,26,1.9-1,3.7-2.3,5.3-4,0-.1,0-.2,0-.3-1.2-3.9-2.1-7.9-3.1-11.8h0Z"/>
    <path class="st8" d="M376.4,741.9c-.8,1.9-2.5,3.1-4.3,4-.2,0-.4.2-.6.3-.3.2-.7.3-1,.5-.3.2-.7.3-1,.5-.7.3-1.4.7-2.1,1l-2.9-5.5c.8-.2,1.5-.3,2.3-.5.5,0,.9-.2,1.4-.3.2,0,.5,0,.7-.1,0,0,.1,0,.1,0,1.4-.3,2.9-.5,4.3-.5h0c.8,0,1.5.2,2.2.4.1,0,.2,0,.3.1.2,0,.3.1.5.2,0,0,0,0,.1,0h0Z"/>
    <path class="st8" d="M365.3,769.2c6.6-1.9,13.2-4.3,18.8-8.2,1.3-.9,2.7-1.9,3.5-3.4,1.4-2.6-.3-4.4-2-6.2-2.8-2.9-5.6-5.7-8.3-8.6,0,0,0,0,0,0-.9,2.3-3.5,3.6-5.7,4.7-1.2.6-2.5,1.2-3.7,1.7l5,9.4s-1.5,7-12.3,11.9c1.6-.4,3.2-.9,4.8-1.3h0ZM375.6,753.1c.4,0,.4.6,0,.6-2,.2-2.2,3.1-.3,3.5.9.2,1.8-.3,2.3-1,.4-.7.3-1.4.2-2.2,0-.4.5-.5.7-.2,1.5,2.5-1.6,5.6-4.2,4.2-2.4-1.3-1.7-5.1,1.1-5h0Z"/>
    <path class="st6" d="M340.5,745.5c.9.4,2,0,2.6-.9.6-.8.8-1.8.9-2.8.5-3,.7-6.1.8-9.2,0-1,0-2.1-.5-3.1-.5-.9-1.5-1.6-2.5-1.4-.3,0-.7.3-.8.6-.2.3-.2.6-.2,1-.2,4.2-1.3,8.3-1.5,12.5,0,1.2.1,2.7,1.2,3.2h0Z"/>
    <path class="st6" d="M339.2,704.1c-.4-1.3-.8-2.6-1.8-3.5-.4-.4-1-.7-1.6-.6-.6.1-.9.7-1,1.3,0,.6,0,1.2.2,1.7,1.4,5.4,3.1,10.7,5.1,15.9.2.6.5,1.2,1,1.6.5.4,1.3.4,1.7,0,.1-.2.2-.4.3-.6.2-1.2,0-2.5-.4-3.7-1-4.1-2.2-8.1-3.4-12.1h0Z"/>
  </g>
  <g>
    <path class="st10" d="M833.1,148.2c-5-2.1-10-2.8-15.3-3.6,1.5,1.8,5.1,3.2,6.3,3.8,2.2,1.1,4.5,2.2,6.9,3.2,1.9.8,10.6,5,14.7,4.7-1.9-1.3-3.6-3.1-5.6-4.4-2.2-1.5-4.6-2.7-7.1-3.7h0Z"/>
    <path class="st9" d="M836.2,185.6c-2.9,1.4-6,2.1-9.2,2.3-8.5.5-17.1-3.4-22.2-10.6-.2-.3.2-.6.4-.4,5.8,6.9,14.1,10.1,22.5,9.3,2.7-.2,5.3-.9,8-1.9,0-.2.2-.3.4-.4,2.6-6.6,5.2-13.4,8.7-19.6-.8-.2-1.5-.3-2.2-.5-2-.4-3.9-.9-5.9-1.4-7.4-2-14.6-5.1-21.1-9.3-.5-.3-1-.6-1.5-1-1.1,3.6-2.8,7-4.2,10.4-1.7,3.9-3.2,7.8-5,11.6-.2.4-.7.4-1.1.2,0,0-.2,0-.3,0-8.8.4-17.5,1.8-25.1,6.5-6.7,4.2-12,10.5-14.2,18.1-3.2,11,0,22.4,6.8,31.2h0c1.9,2.5,4.2,4.9,6.6,7,11.1,9.4,26.7,14.5,41.2,12.7,14-1.7,27.2-11,30.9-25.1,3.8-14.7-2.8-29.3-13.4-39.4h0ZM845.7,228.2c0,.1,0,.2,0,.3-4.5,6.4-10.9,11.4-18.2,14.5-7.3,3-15.5,3.9-23.2,2.1-4.8-1.1-9.6-3.2-14-5.7-2.5-1.4-4.8-3-7-4.6-5.6-4.2-10.5-9.5-13.3-16-2.7-6.2-3.8-14-.8-20.3.2-.3.6-.2.7,0,13.7-4.2,28.8,3.4,40.9,9,6.2,2.9,12.6,5.1,18.8,7.7.7.3,1.3.6,2,.8,5.7,2.5,11.1,5.8,14.7,11,.4.5-.1,1-.6,1.1h0Z"/>
    <path class="st14" d="M829.4,216.8s0,0-.1,0c-6.2-2.6-12.6-4.8-18.8-7.5-6.5-2.9-13-6.1-19.9-8-6.7-1.9-13.2-2.2-20.1-1.4,2.4,7.2,8.9,8.4,15.6,10,6.2,1.6,12.2,4.2,18,6.8,7.3,3.3,14.7,6.8,22.3,8.8,5.7,1.5,11.6,2.2,17.7,1.4-3.8-4.7-9.1-7.7-14.7-10h0ZM797.3,208.1c-.5.5-1.3.7-2,.4-1.2-.6-1.4-2.5-.2-3.2.4-.2.8.3.5.6-.4.4-.4,1.4.2,1.6.3.2.7,0,1-.3.3-.3.3-.7.4-1,0-.2.4-.2.5,0,.6.5.2,1.5-.3,1.9h0ZM817.7,219c-.6.6-1.5.7-2.3.3-1.7-.8-1.5-3.1.2-3.7.4-.1.7.5.3.7-.8.5-1,1.7,0,2.1.4.2.9.1,1.2-.2.3-.4.2-.8.4-1.2.1-.3.4-.4.6-.2.6.6.2,1.8-.4,2.3h0ZM823.7,219.2c-.9,0-1.4-.8-1.3-1.6,0-.4.7-.3.7,0s.7.8.8.2c0-.3.1-.7.6-.6.2,0,.3.2.3.3.2.8-.4,1.6-1.2,1.6h0Z"/>
    <path class="st9" d="M850,152.6c-4.4-3.4-9.3-6.3-14.4-8.6,0,0-.2,0-.3,0-1.3-.5-2.6-1.1-3.9-1.6-2.8-1.1-5.6-2.1-8.5-2.7-3.6-.7-8-1.5-11.4,0-5.1,2.1-2,7.1,1,9.5,2.9,2.3,6.2,4.2,9.5,5.9,5,2.6,10.2,4.6,15.6,6.1,1.8.5,3.6.9,5.5,1.3,3,.6,8.3,2.3,10.9-.2,3.4-3.3-1.4-7.6-3.9-9.5h0ZM842.1,157.4c-1.1-.4-2.2-.7-3.3-1.1-2.9-1-5.7-2.1-8.5-3.3-4-1.7-8-3.6-11.7-6-2-1.3-3.7-3.6-1.9-5.8.4-.4,1,.1.8.6,0,0,0,.2-.1.3-.3.6-.2,1.2,0,1.8,5.3,0,10.9,1.6,15.7,3.6,1.1.5,2.2,1,3.3,1.5,1.7.8,3.3,1.8,4.9,2.7,1.1.7,2.4,1.4,3.6,2.2.9.6,1.7,1.3,2.3,2.1.3-.2.6-.5.7-.9.2-.6,1-.4.9.2-.5,3.5-4.2,2.8-6.6,2h0Z"/>
    <path class="st5" d="M825.5,227c-8-2.3-15.6-6.1-22.9-9.6-3.8-1.8-7.7-3.5-11.8-4.8-3.7-1.2-7.4-1.8-11.1-2.8-4.1-1.1-9.6-4-10.2-8.7-1.4,8.4.2,16.4,5.4,23.4,5.1,6.9,12.4,11.9,20,15.5.2.1.4.2.6.3,9.2,4.4,19.1,5.4,28.8,2.1,7.8-2.6,14.4-7.7,19.6-14.1-6.3,1-12.4.3-18.4-1.4h0ZM777.6,217c-1.6-.4-1.7-2.5-.2-3.1.4-.2.6.4.3.6-.5.4-.5,1.3.2,1.5.7.2,1-.6.7-1.1-.2-.5.4-1.1.8-.6,1,1.2-.2,3.1-1.7,2.7h0ZM790.7,224.1c-.7,1.2-2.2,1.6-3.5,1.1-3-1.1-2.3-5.4.8-5.7.4,0,.5.7.1.8-2,.3-2.5,3.2-.4,3.8,2,.5,2.8-1.9,1.8-3.2-.3-.4.3-.9.7-.6,1,.9,1.2,2.6.5,3.8h0ZM809.1,228.6c.2-.3.8-.2.7.3-.2.5,0,1.5.7,1.6.4,0,.7-.1.9-.4.2-.3.2-.6.4-1,0-.2.4-.2.5,0,.5.5.2,1.3-.2,1.8-.4.5-1.1.8-1.8.7-1.3-.2-2-1.8-1.2-2.8h0ZM802.8,236.7c-.6,1-1.8,1.7-3,1.4-1-.3-2.1-1.3-2-2.5,0-.4.6-.7.9-.2.3.6.6,1.1,1.3,1.3.7.2,1.3,0,1.7-.6.8-1.3-.5-2.8-1.9-2.4-.5.1-.7-.6-.2-.8,2.3-.9,4.5,1.6,3.3,3.8h0ZM796.5,218.4c.3-.3.8.1.5.5-.7.8-.1,2.1,1,2,.5,0,.8-.4.9-.9,0-.5-.3-.8-.2-1.3,0-.2.1-.4.3-.4.9,0,1,1.4.8,2.1-.2.8-1,1.4-1.8,1.5-1.9.1-2.9-2.2-1.5-3.5h0ZM822.8,238.5c-.4.6-1.2.9-1.9.7-1.3-.3-1.8-2.1-.8-3,.3-.3.9,0,.7.5-.3.5-.1,1.3.5,1.5.3,0,.7-.2.9-.5.2-.3.2-.6.4-.9,0-.1.2-.1.4,0,.6.3.3,1.3,0,1.7h0Z"/>
    <path class="st15" d="M845.2,147.6c-3.6-2.2-7.3-4-11.2-5.4-3.6-2.1-7.6-3.4-11.7-4.1-3.7-.7-8-1.3-11.5.1-2.7,1.1-4.5,3.7-3.7,6.7.8,3,3.4,5.1,6,6.9-2,3.6-3.5,7.4-5.1,11.1-1.5,3.5-3.2,7-4.5,10.6,0,0,0,0-.1,0-15-1.1-31.5,6.1-38.6,19.8-7,13.5-2.9,29.9,6.9,40.8,10.3,11.4,26.4,18.1,41.7,18,14.6,0,29.8-7.6,35.9-21.4,7.2-16.2.5-34.4-11.8-46,2.7-6.7,5.9-13.2,8.3-20,2.6.5,5.5.8,7.8-.3,3-1.4,3.5-4.9,2.2-7.7-1.9-4-6.9-6.8-10.5-9.1h0ZM836.1,183.9c-.2,0-.3.2-.4.4-10.9,4.3-22.7,1.7-30.4-7.4-.2-.2-.6,0-.4.3,7,9.9,20.4,13.5,31.4,8.3,10.6,10.1,17.2,24.7,13.4,39.4-3.6,14.1-16.8,23.4-30.9,25.1-14.5,1.8-30.1-3.3-41.2-12.7-10.9-9.2-17.5-24-13.4-38.1,2.2-7.6,7.6-14,14.2-18.1,7.6-4.8,16.3-6.1,25.1-6.5.1,0,.2,0,.3,0,.4.2.9.2,1.1-.2,1.8-3.8,3.4-7.7,5-11.6,1.5-3.4,3.1-6.9,4.2-10.4.5.3,1,.7,1.5,1,8.2,5.2,17.5,8.8,27,10.7.7.1,1.4.3,2.2.5-3.5,6.2-6.1,13-8.7,19.6h0ZM853.9,162.1c-2.5,2.5-7.8.8-10.9.2-7.3-1.4-14.4-3.9-21.1-7.3-3.3-1.7-6.6-3.6-9.5-5.9-3.1-2.4-6.1-7.4-1-9.5,3.5-1.5,7.9-.7,11.4,0,4.3.9,8.4,2.6,12.5,4.3,0,0,.2,0,.3,0,5.1,2.4,9.9,5.2,14.4,8.6,2.6,2,7.3,6.2,3.9,9.5h0Z"/>
    <path class="st15" d="M847.8,155.1c-.1.4-.4.7-.7.9-1.5-1.8-3.9-3.1-5.9-4.3-2.7-1.6-5.3-3-8.2-4.2-4.8-2-10.4-3.7-15.7-3.6-.3-.6-.3-1.3.1-2,.3-.5-.4-1-.8-.6-1.8,2.2-.1,4.5,1.9,5.8,3.6,2.4,7.7,4.2,11.7,6,3.9,1.7,7.8,3.2,11.9,4.4,2.4.8,6.1,1.5,6.6-2,0-.6-.7-.8-.9-.2h0ZM831,151.6c-2.3-1-4.6-2.1-6.9-3.2-1.3-.6-4.8-2-6.3-3.8,5.3.8,10.3,1.5,15.3,3.6,2.5,1,4.9,2.3,7.1,3.7,1.9,1.3,3.6,3.1,5.6,4.4-4.1.2-12.8-3.9-14.7-4.7h0Z"/>
    <path class="st15" d="M769.9,198.6c-.2-.2-.6-.3-.7,0-3,6.3-1.9,14.1.8,20.3,2.8,6.5,7.7,11.8,13.3,16,6.2,4.6,13.5,8.6,21,10.3,7.7,1.8,15.9.9,23.2-2.1,7.3-3,13.7-8,18.2-14.5,0-.1,0-.2,0-.3.5,0,1-.5.6-1.1-3.5-5.2-9-8.6-14.7-11-6.9-3-14-5.3-20.8-8.5-12.1-5.7-27.2-13.2-40.9-9h0ZM824.4,242.5c-9.8,3.3-19.6,2.2-28.8-2.1-7.8-3.7-15.4-8.8-20.6-15.8-5.2-7.1-6.9-15.1-5.4-23.4.6,4.7,6.1,7.6,10.2,8.7,3.7,1,7.5,1.6,11.1,2.8,4,1.3,7.9,3,11.8,4.8,12.8,6,26.8,13.5,41.3,11-5.1,6.4-11.7,11.4-19.6,14.1h0ZM790.6,201.1c6.9,2,13.3,5.2,19.9,8,6.2,2.7,12.5,5,18.8,7.5,5.6,2.3,11,5.3,14.8,10.1-14.3,2-27.3-4.5-40-10.2-5.9-2.6-11.8-5.2-18-6.8-6.7-1.7-13.2-2.9-15.6-10,6.9-.8,13.4-.5,20.1,1.4h0Z"/>
    <path class="st15" d="M789.5,220.9c1,1.4.2,3.8-1.8,3.2-2.2-.6-1.6-3.5.4-3.8.4,0,.3-.8-.1-.8-3.1.3-3.8,4.6-.8,5.7,1.3.5,2.8,0,3.5-1.1.7-1.1.5-2.9-.5-3.8-.4-.3-1,.1-.7.5h0Z"/>
    <path class="st15" d="M799.8,220.5c.2-.7,0-2-.8-2.1-.2,0-.3.2-.3.4,0,.4.3.8.2,1.3,0,.5-.4.8-.9.9-1.1.1-1.7-1.2-1-2,.3-.3-.2-.8-.5-.5-1.4,1.3-.4,3.6,1.5,3.5.9,0,1.6-.6,1.8-1.5h0Z"/>
    <path class="st15" d="M799.5,232.9c-.5.2-.3.9.2.8,1.4-.4,2.8,1.1,1.9,2.4-.4.6-1,.8-1.7.6-.7-.2-1-.7-1.3-1.3-.2-.5-.8-.2-.9.2,0,1.1,1,2.2,2,2.5,1.2.3,2.4-.3,3-1.4,1.2-2.2-.9-4.7-3.3-3.8h0Z"/>
    <path class="st15" d="M811.7,229c-.2.3-.2.7-.4,1-.2.3-.5.5-.9.4-.7-.1-.9-1-.7-1.6.2-.4-.5-.6-.7-.3-.8,1.1,0,2.6,1.2,2.8.7.1,1.3-.2,1.8-.7.4-.5.7-1.3.2-1.8-.2-.1-.4-.1-.5,0h0Z"/>
    <path class="st15" d="M822.8,236.8c-.1,0-.3,0-.4,0-.2.3-.2.6-.4.9-.2.3-.5.5-.9.5-.6-.1-.8-1-.5-1.5.3-.4-.3-.8-.7-.5-.9,1-.5,2.7.8,3,.7.2,1.5-.1,1.9-.7.3-.4.6-1.4,0-1.7h0Z"/>
    <path class="st15" d="M778.6,214.8c.3.5,0,1.3-.7,1.1-.7-.2-.7-1.1-.2-1.5.3-.2.1-.8-.3-.6-1.4.6-1.3,2.7.2,3.1,1.5.4,2.8-1.5,1.7-2.7-.4-.5-1,.1-.8.6h0Z"/>
    <path class="st15" d="M795.3,208.5c.7.3,1.5,0,2-.4.5-.5.9-1.4.3-1.9-.2-.1-.4-.1-.5,0-.2.4-.2.7-.4,1-.2.3-.6.4-1,.3-.6-.3-.6-1.2-.2-1.6.3-.3-.1-.8-.5-.6-1.2.7-1,2.6.2,3.2h0Z"/>
    <path class="st15" d="M815.4,219.4c.8.4,1.7.3,2.3-.3.5-.5,1-1.7.4-2.3-.2-.2-.5,0-.6.2-.2.4,0,.9-.4,1.2-.3.4-.8.4-1.2.2-.9-.4-.7-1.6,0-2.1.4-.2.1-.8-.3-.7-1.7.6-1.9,2.9-.2,3.7h0Z"/>
    <path class="st15" d="M823.7,219.2c.8,0,1.4-.9,1.2-1.6,0-.1-.2-.3-.3-.3-.5-.1-.5.3-.6.6-.1.6-.9.4-.9-.2s-.7-.5-.7,0c-.1.8.4,1.6,1.3,1.6h0Z"/>
    <path class="st10" d="M835.7,184.3c-2.6,1-5.3,1.7-8,1.9l9-23.7c1.9.5,3.9,1,5.9,1.4.7.1,1.4.3,2.2.5-3.5,6.2-6.1,13-8.7,19.6-.2,0-.3.2-.4.4h0Z"/>
    <path class="st4" d="M825.5,227c-2.6,4.2-6.5,7.8-12.3,10-6.5,2.6-12.6,3.4-18.3,3,.2.1.4.2.6.3,9.2,4.4,19.1,5.4,28.8,2.1,7.8-2.6,14.4-7.7,19.6-14.1-6.3,1-12.4.3-18.4-1.4h0ZM822.8,238.5c-.4.6-1.2.9-1.9.7-1.3-.3-1.8-2.1-.8-3,.3-.3.9,0,.7.5-.3.5-.1,1.3.5,1.5.3,0,.7-.2.9-.5.2-.3.2-.6.4-.9,0-.1.2-.1.4,0,.6.3.3,1.3,0,1.7h0Z"/>
    <path class="st4" d="M826.4,225.4c1.5-2.7,2.4-5.7,3-8.7,5.6,2.3,10.9,5.3,14.7,10-6.1.9-12,.2-17.7-1.4h0Z"/>
    <path class="st10" d="M849.6,224.9c-3.6,14.1-16.8,23.4-30.9,25.1-14.5,1.8-30.1-3.3-41.2-12.7-2.4-2.1-4.7-4.4-6.6-6.9,5.3,4.1,11.8,7.6,19.3,9,4.4,2.5,9.2,4.6,14,5.7,7.7,1.8,15.9.9,23.2-2.1,7.3-3,13.7-8,18.2-14.5,0-.1,0-.2,0-.3.5,0,1-.5.6-1.1-3.5-5.2-9-8.6-14.7-11-.7-.3-1.3-.6-2-.8,2.1-13.4-2.6-27.2-2.6-27.2v-.2c3.2-.2,6.3-.9,9.2-2.3,10.6,10.1,17.2,24.7,13.4,39.4h0Z"/>
    <path class="st10" d="M850,152.6c-4.4-3.4-9.3-6.3-14.4-8.6,0,0-.2,0-.3,0-1.3-.5-2.6-1.1-3.9-1.6.7.8,1.7,1.9,2.8,3.4-7.2-2.3-14.5-3.4-16.9-3.7-.3.6-.2,1.2,0,1.8,5.3,0,10.9,1.6,15.7,3.6,1.1.5,2.2,1,3.3,1.5,1.7.8,3.3,1.8,4.9,2.7.5.3,1,.6,1.5.9,0,0,0,0,0,0,.2.1.3.2.5.3.1,0,.3.2.4.3.1,0,.3.2.4.3.2.1.3.2.5.3,1,.7,1.8,1.4,2.5,2.2.3-.2.6-.5.7-.9.2-.6,1-.4.9.2-.5,3.5-4.2,2.8-6.6,2-1.1-.4-2.2-.7-3.3-1.1,0,1.6-.2,3.3-1.2,4.8,1.8.5,3.6.9,5.5,1.3,3,.6,8.3,2.3,10.9-.2,3.4-3.3-1.4-7.6-3.9-9.5h0Z"/>
    <path class="st6" d="M775.3,195.8c.5.4,1.2.9,1.8.8.3,0,.6-.2.8-.4.9-.6,1.9-1.3,2.7-2,.9-.8,1.7-1.7,2.5-2.6,2.2-2.2,4.9-3.8,7.6-5.4.7-.4,1.5-1,1.6-1.8.1-1.1-1-1.9-2.1-2-.9,0-1.8.1-2.7.4-2.8.8-5.5,1.8-7.9,3.4-2.4,1.6-4.4,3.9-5.3,6.7-.2.6-.3,1.2-.1,1.8.2.5.6.8,1,1.2h0Z"/>
    <path class="st6" d="M796.7,179c-.8.1-1.5.3-2.2.8s-1.2,1.1-1.3,1.9.2,1.6.9,2c.2.1.4.2.6.2,1.5.4,3.1-.2,4.3-1.1.6-.4,1.2-1,1.2-1.7,0-.3,0-.6-.2-.9-.1-.3-.2-.7-.5-.9-.2-.1-.5-.2-.7-.2-1-.1-1-.2-2,0h0Z"/>
  </g>
  <g>
    <path class="st7" d="M632.2,376.5h0c-.3.4-.7.7-.9,1.1-.3.6-.5,1.4-.3,2,.3,1.3,1.8,2.1,3.1,1.8,1.3-.3,2.1-1.9,1.7-3.2-.4-1.4-2.1-2.1-3.5-1.7h0Z"/>
    <path class="st7" d="M623.5,376.5c-.6,0-1.2-.1-1.7-.2,0,0,0,0,0,0,0,.1-.2.2-.4.2-6.7-.4-8.7,9.3-2,11.1,7.3,2,10.5-9.9,4.2-11h0Z"/>
    <path class="st1" d="M642.1,385.2c2.5-4.1,9.4-10.4,2.9-14.6-.6-.4-1.2-.6-1.7-.8-2.8-.6-5.1,1.8-8.1,1.5-1.9-.2-3.1-1.7-3.5-3.5-.7-3.3,1.6-6,1.7-9.2,0-4.7-4.4-7.4-8.7-6.7h-.2c-1.2.3-2.2.9-3.1,1.8-1.8,1.8-2,3.8-1.6,6.2.4,2.4.9,5.4-1.4,7.1-2.6,1.9-5.3-.9-8-.9s-5.2,2.5-5,5.3c.1,2.1,1.7,3.5,2.8,5.1,3.2,4.9-1.6,7.5-4.6,10.6-1.7,1.7-2.6,4.3-2.4,6.6.2,1.9,1.2,3.6,3.2,4.6,3.1,1.5,6.2-.8,9-2,5.4-2.4,9.5.2,13,4.4,2.2,2.6,4.4,5.9,7.9,6.7,4.3,1,8.5-2.2,8.8-6.6.2-3.3-2.1-6.1-2.6-9.3-.4-2.3.3-4.4,1.4-6.3h0ZM631.8,375.9s0-.1.2-.1c1.8-.8,4.2,0,4.9,2,.7,1.9-.3,4.1-2.2,4.8-1.9.7-4.3-.4-4.9-2.3-.4-1.4.3-4.4,2.1-4.4h0ZM613.7,381.2c.5-4,4.1-6.2,7.9-5.6.2,0,.3.1.3.3,0,0,0,0,0,0,.2,0,.4,0,.6,0,0,0,0,0,.2,0,4.2,0,6.7,3.6,5.7,7.6-.9,3.8-4.7,6.4-8.5,5.8-3.8-.6-6.6-4.1-6.1-8h0Z"/>
    <path class="st15" d="M649.1,373.6c-.7-2.8-3.3-5-6.1-5.5-1.8-.3-3.3.3-4.9,1-1.7.6-3.9.9-4.7-1.1-.4-1.1-.2-2.4,0-3.5,1-4,2.6-7.4-.3-11-1.8-2.4-4.8-3.4-7.7-2.8-1.9,0-3.7.8-5.1,2.1-2.2,2.1-2.5,4.8-2,7.6.4,2.7.6,6.6-3.6,5.5-1.7-.5-3-1.4-4.8-1.2-2.8.2-5.2,2.1-5.9,4.9-.9,3.6,1.5,5.4,3.2,8.1,2.5,4.2-2.9,6.5-5.2,9.1-3.8,4.4-2.9,12.8,3.8,13.6,3.2.4,5.9-1.7,8.7-2.8,4.6-1.9,8.1.9,10.9,4.3,2.1,2.5,4.1,5.3,7.1,6.6,2.8,1.2,6.2.8,8.6-1,2.4-1.8,3.7-4.7,3.5-7.7-.3-3.7-3.3-6.9-2.6-10.6,1-5.6,8.4-9.1,6.9-15.4h0ZM640.7,391.5c.5,3.2,2.9,6,2.6,9.3-.3,4.4-4.5,7.5-8.8,6.6-3.5-.8-5.7-4.1-7.9-6.7-3.5-4.2-7.7-6.7-13-4.4-2.8,1.2-5.9,3.5-9,2-4.6-2.2-3.8-8-.9-11.2,3-3.2,7.8-5.8,4.6-10.6-1.1-1.7-2.7-3-2.8-5.1-.2-2.9,2.1-5.3,5-5.3,2.7,0,5.4,2.9,8,.9,2.3-1.7,1.8-4.7,1.4-7.1-.4-2.4-.2-4.5,1.6-6.2.9-.9,2-1.5,3.1-1.8,0,0,.1,0,.2,0,4.3-.7,8.8,1.9,8.7,6.7,0,3.2-2.4,5.9-1.7,9.2.4,1.8,1.6,3.2,3.5,3.5,3.6.4,6.2-3.1,9.8-.7,6.5,4.2-.5,10.5-3,14.6-1.2,1.9-1.8,4-1.4,6.3h0Z"/>
    <path class="st15" d="M622.6,375.7c0,0-.1,0-.2,0-.2,0-.4,0-.5,0,0,0,0,0,0,0,0-.1-.1-.2-.3-.3-3.8-.6-7.4,1.7-7.9,5.6-.5,3.9,2.3,7.4,6.1,8,3.9.6,7.6-2,8.5-5.8,1-4-1.5-7.7-5.7-7.6h0ZM619.4,387.5c-6.7-1.8-4.7-11.5,2-11.1.2,0,.3,0,.4-.2,0,0,0,0,0,0,.5.1,1.1.3,1.7.2,6.3,1.1,3.1,13-4.2,11h0Z"/>
    <path class="st15" d="M632,375.8c0,0-.1,0-.2.1-1.8,0-2.5,3-2.1,4.4.6,2,3,3,4.9,2.3,1.9-.7,2.9-3,2.2-4.8-.7-2-3-2.8-4.9-2h0ZM634,381.4c-1.3.3-2.8-.5-3.1-1.8-.2-.7,0-1.4.3-2,.2-.4.6-.7.9-1.1h0c1.3-.4,3,.3,3.5,1.7.4,1.3-.4,2.8-1.7,3.2h0Z"/>
    <path class="st13" d="M640.7,391.5c.5,3.2,2.9,6,2.6,9.3-.3,4.4-4.5,7.5-8.8,6.6-3.5-.8-5.7-4.1-7.9-6.7-3.5-4.2-7.7-6.7-13-4.4-2.8,1.2-5.9,3.6-9,2-2-1-3-2.7-3.2-4.6,1.8,2,4.3,3.3,7.3,1.6,7-3.9,12.9-6.3,18.8-.7,5.9,5.6,11-2,10-6.2-.8-3.6,9-13.5,5.8-18.8.5.1,1.1.4,1.7.8,6.5,4.3-.5,10.5-2.9,14.6-1.2,1.9-1.8,4-1.4,6.3h0Z"/>
  </g>
  <g>
    <path class="st15" d="M857.2,549.5c-.7.3-1.4.6-2.1.9,1.5-10.7,2.5-22.6-4-31.4-7.5-10.1-23-8.9-33.3-4.3-1.5.7-2.9,1.5-4.3,2.3-.7-4.5-1.7-9-4-13.3-8.8-16.6-29.5-19.8-45.6-12.8.1-2.1.3-4.2.5-6.1,0-.9-1.4-1.1-1.6-.2-.6,2.4-1.1,5-1.5,7.6-3.2,1.6-6.1,3.7-8.6,6.1-.7.7.2,1.8,1,1.3,2.4-1.4,4.8-2.8,7.2-4.1-.8,9.8.8,19.9,6.4,28,6.8,9.7,19.5,14.3,30.6,9.4,4.4-1.9,8.1-4.8,11.8-7.6,0,.7.2,1.4.2,2.1,1.1,10.5,4,20.7,14.2,25.7,9.2,4.5,18.4,3.3,27.4.1,0,1.4,0,2.8,0,4.1,0,1.3,2.1,1.6,2.3.3.2-1.8.5-3.7.8-5.6,1-.4,1.9-.8,2.9-1.2.9-.4.4-1.7-.6-1.3h0ZM778.6,527.5c-12.5-6.8-15.1-20.3-14.8-33.3,9-4.1,18.6-5.7,28.5-.9,11.2,5.5,15,15.6,16.8,26.6-9.4,6.6-18.3,14.3-30.5,7.6h0ZM817.5,538.7c-2.1-5.3-2.7-10.9-3.3-16.5.1,0,.3-.2.4-.3,6.9-4.5,15.7-7.1,23.9-5.4,17.2,3.6,14,21.3,13.3,35-12.9,3.7-28.8.9-34.3-12.8h0Z"/>
    <path class="st15" d="M783.5,489.3c-3.7,2.6-6.6,6.7-9.5,10.1-3,3.4-6.4,6.8-8.6,10.8-.4.8.5,1.8,1.3,1.2,3.7-2.6,6.7-6.4,9.8-9.7,3-3.3,6.9-6.6,9-10.6.6-1.2-.8-2.7-1.9-1.9h0Z"/>
    <path class="st15" d="M792.9,491.8c-8.9,9.3-17.5,20.2-23.6,31.6-.6,1.1,1,2.4,1.8,1.3,7.9-10.4,15.6-20.8,24.1-30.7,1.3-1.5-.9-3.7-2.3-2.2h0Z"/>
    <path class="st15" d="M800.8,499.9c-7.6,10.2-15.5,20.5-22,31.3-.6,1,.9,2.1,1.7,1.2,8.5-9.7,15.8-20.5,23.3-30.9,1.3-1.8-1.7-3.4-3-1.7h0Z"/>
    <path class="st15" d="M805.9,509.9c-5.2,7.1-10.1,14.4-14.7,22-.5.9.8,1.9,1.5,1.1,5.6-7,10.9-14.1,16-21.5,1.2-1.7-1.6-3.1-2.8-1.5h0Z"/>
    <path class="st15" d="M832.3,512c-6.1,7.7-13.2,15.2-18.2,23.7-.6,1,.8,2,1.6,1.2,7-6.7,12.7-15.2,18.8-22.7,1.2-1.5-1-3.6-2.2-2.1h0Z"/>
    <path class="st15" d="M844.8,516.7c-8.2,9-16.2,18.8-23.1,28.9-.7,1,.9,2.1,1.7,1.3,8.6-8.6,16.7-18.5,23.8-28.3,1-1.4-1.3-3.1-2.5-1.8h0Z"/>
    <path class="st15" d="M849.8,526.5c-6.5,8.4-13.1,16.7-19.6,25.2-.8,1.1.5,2.5,1.6,1.5,7.6-7.6,14.4-16,20.7-24.7,1.1-1.5-1.5-3.5-2.7-2h0Z"/>
    <path class="st15" d="M852.5,538.6c-4.3,4.4-9.4,8.9-12.8,14.1-.5.8.6,1.9,1.4,1.3,5-3.7,9.2-9,13.4-13.5,1.2-1.3-.8-3.3-2-2h0Z"/>
  </g>
  <g>
    <path class="st15" d="M104.6,58.1c-4.3-1.6-8.8-3.6-13.3-4.5-1-.2-1.2,1.2-.4,1.6,4,2.1,8.7,3.4,12.9,4.8,1.3.4,2.1-1.5.8-1.9Z"/>
    <path class="st15" d="M105.3,65.1c-3.1-1.6-6.6-2.4-9.9-3.6-3.3-1.2-6.7-2.3-10-3.3-.8-.2-1.2.8-.5,1.2,3.3,1.7,6.8,3,10.3,4.3,3.1,1.1,6.3,2.5,9.6,3,1,.2,1.2-1.2.4-1.6h0Z"/>
    <path class="st15" d="M102.9,71c-6.1-2.9-13.1-5.3-19.6-6.8-.7-.2-.9.9-.3,1.2,6,3.1,12.9,5.7,19.5,7.4,1.1.3,1.4-1.4.5-1.8h0Z"/>
    <path class="st15" d="M98.4,75.4c-4.5-2.1-9.5-4.3-14.4-5.3-.7-.1-1.1.9-.5,1.2,4.2,2.6,9.5,4.3,14.1,5.9,1.2.4,1.9-1.3.7-1.8h0Z"/>
    <path class="st15" d="M99,88c-5.1-1.4-10-3.7-15.2-5-.7-.2-1,.9-.5,1.2,4.3,3,9.9,4.4,14.8,5.8,1.4.4,2.2-1.7.8-2.1h0Z"/>
    <path class="st15" d="M99.7,96.2c-6.5-3-13.1-6-19.8-8.6-.9-.3-1.4.9-.6,1.4,6.4,3.4,12.9,6.3,19.5,9.3,1.4.6,2.2-1.5.9-2.1h0Z"/>
    <path class="st15" d="M97,101.7c-5.5-3.8-11.9-6-18.2-7.9-.9-.3-1.4,1-.6,1.4,6.1,2.4,11.7,5.8,17.7,8.4,1.1.5,2.1-1.2,1.1-1.9h0Z"/>
    <path class="st15" d="M91.1,104.9c-3.3-1.6-6.8-2.6-10.3-3.8-.9-.3-1.4.9-.5,1.3,3.3,1.5,6.6,3.2,10,4.4,1.2.4,1.9-1.3.8-1.9h0Z"/>
    <path class="st15" d="M87.6,111.3c-.6-.6-1.2-1.2-1.8-1.8,4.8-.9,9.4-2.5,12.8-6,4.1-4.2,5.8-9.5,3.2-14.9-1.8-3.7-4.9-6.3-8-9,3.5-1.6,6.9-3.2,9.8-5.8,7.8-7.3,4.8-16.2-1-22.9,1.3-.3,2.7-.6,4.1-1,.8-.2.7-1.3-.2-1.2-1.6.2-3.3.4-5.2.8-1.9-1.9-3.9-3.6-6-5-.6-.4-1.6.4-1,1,1.4,1.4,2.9,3,4.3,4.6-10,2.8-20.3,9.4-15.6,21,1.3,3.3,3.6,5.7,6.1,8-2.7,1.3-5.4,2.8-7.7,4.8-8.8,7.6-5.9,17,.4,24.2-1,.1-1.9.2-2.9.3-1.3.2-1,2.2.3,2,1.4-.2,2.9-.3,4.3-.5,1,1,2,1.9,3,2.7.8.7,1.8-.6,1-1.3h0ZM86.1,70.9c-2.7-5.7,0-11.5,4.7-15.2,2.7-2.1,5.8-3.2,9.1-4.1,5.1,6.5,8.4,14.1.7,21-2.6,2.3-5.6,3.8-8.7,5.3-2.3-2.1-4.4-4.2-5.7-7h0ZM84.3,84.8c2.1-1.6,4.4-2.8,6.8-3.9,2.5,2.1,4.9,4.3,6.8,7,3.9,5.7,2.4,12.3-3.2,16.2-3.1,2.1-6.8,3.1-10.5,3.6-5.8-7-8.7-16.3,0-23h0Z"/>
  </g>
  <g>
    <path class="st9" d="M673.7,640.9c1.3.5,2.5.9,3.8,1.3,1.1.4,4.8,1.9,7.4,2-4.8-3.6-9.9-5.4-15.9-5.4,1.3,1,4,1.8,4.7,2.1h0Z"/>
    <path class="st9" d="M677.6,649.1c-.8-.2-1.5-.4-2.2-.6-2.2-.7-6.5-2-9.7-4-3.6,9.5-8.3,18.7-12.5,27.9-2,4.3-3.9,8.6-5.9,12.9-1.8,4-4.1,8.3-4,12.9,0,1,.2,1.9.5,2.9,1,3.2,3.4,5.9,7,5.7,4.7-.2,8-3.9,10.1-7.8,4.2-7.8,7.5-16.2,11.2-24.3,3.7-8.2,7.4-16.5,11.2-24.7-1.9-.1-3.8-.4-5.6-.9h0ZM671.8,672.7c-2.7,7.5-6.5,14.7-10.2,21.7-2.2,4.3-5.9,12.4-12.2,10.2-1.7-.6-2.8-1.7-3.5-3.1-1.4-2.9-.7-7,.5-9.8,3-7.5,6.5-15.1,10.3-22.2,0,0,0,0,0,0,0-.2.2-.3.3-.3,1.4-.2,7.3-1,11.1-.1,2.1.4,3.5,1.3,3.2,3.1.3,0,.6.4.5.7h0Z"/>
    <path class="st9" d="M690.1,643.5c-2-2.6-5.2-4.5-8.4-5.8h-.2c-.9-.3-1.8-.6-2.7-.9-1.7-.5-3.4-.9-5.1-1.2-2.7-.4-7.3-1.2-9.5,1-3.1,3.2,1.7,6.2,4.2,7.5,2.5,1.2,5.1,2.2,7.7,3,.7.2,1.4.4,2.1.6,2.1.5,4.3.8,6.4.8,1.2,0,2.4,0,3.5-.2,1.6-.2,2-.3,2.5-1.9.5-1.4.3-1.8-.6-2.9h0ZM684.7,645.5c-1.6-.2-3.3-.6-4.9-1.1-.7-.2-1.4-.5-2.1-.7h0c-.8-.3-1.5-.5-2.2-.8-.3,0-.9-.3-1.6-.5-3.1-1.1-8.7-3.3-5.7-5.6.2-.2.6.2.4.4-.2.2-.2.5-.2.7,0,.1,0,.3.1.4,6.3-.7,13.2,1.5,17.9,5.8.4-.2.8-.4.9-.8.1-.3.7-.2.6.2-.2,1.7-1.5,2.2-3.1,2.1h0Z"/>
    <path class="st5" d="M665.8,674c-3.2,0-6.4-1-8.9-3-2.1,5.4-4.5,10.7-6.9,15.9-1.2,2.7-2.7,5.5-3.3,8.4-.4,1.9-.2,4.3.9,6,.6,1,1.5,1.7,2.8,2,3.7.8,6.3-2.9,7.8-5.7,1.5-2.7,2.9-5.5,4.3-8.2,2.7-5.3,5-10.8,7.6-16.2-1.4.5-2.9.7-4.4.7h0ZM653.9,685.8c.3-.1.5.3.3.5-.4.4-.5,1.3,0,1.7.3.2.7,0,1-.2.3-.3.2-.6.3-1,0-.3.4-.4.6-.2.5.6.1,1.5-.4,1.9-.5.5-1.3.7-1.9.3-1.1-.6-1.2-2.5,0-3h0ZM654.5,699.4c-.8.5-1.9.6-2.7,0,0,0-.2,0-.2-.2-.7-.6-1.2-1.8-.6-2.7.2-.3.6-.2.6.2,0,.6.1,1.2.6,1.6.2.2.3.2.5.3.3.1.7,0,1.1-.2.7-.4.8-1.1.6-1.7-.2-.5-.7-.9-1.2-1.1-.4,0-.3-.7,0-.7.8,0,1.4.4,1.8.9.7,1,.7,2.5-.5,3.4h0ZM662.3,681.2c0,.7-.3,1.3-.8,1.7-.4.3-.9.6-1.4.6-1.2.2-2.4-.5-2.8-1.7-.4-1.2.1-2.4,1.2-3,.4-.2.7.3.3.5-1.5,1-.6,3.5,1.2,3.2.8-.2,1.4-.8,1.3-1.7-.1-.9-.7-1.2-1.4-1.7-.3-.2,0-.6.3-.7,1.2,0,2.1,1.6,2.1,2.6h0s0,0,0,0Z"/>
    <path class="st14" d="M670.1,672c-1.3.5-2.6.8-3.8.8-3.2.3-6.2-.6-9.2-2.5,0-.2.2-.4.3-.7,1.9.2,3.7.2,5.6.3,1.4,0,3.2-.2,4.6.1,1.1.2,2,.8,2.5,1.9h0Z"/>
    <path class="st15" d="M687.2,643.3c-.2.4-.5.6-.9.8-4.6-4.3-11.6-6.5-17.9-5.8-.2-.3-.2-.7,0-1.1.2-.2-.2-.6-.4-.4-3.7,2.9,5.9,5.6,7.3,6.2,2.9,1,6.2,2.3,9.2,2.6,1.6.2,3-.3,3.1-2.1,0-.3-.5-.5-.6-.2h0ZM677.5,642.2c-1.3-.4-2.5-.8-3.8-1.3-.8-.3-3.5-1-4.7-2.1,6,0,11.1,1.7,15.9,5.4-2.5-.1-6.2-1.7-7.4-2h0Z"/>
    <path class="st15" d="M687.5,639.5c-2.1-1.4-4.4-2.4-6.8-3.1-3.2-1.6-6.8-2.5-10.4-2.7-2.9-.2-6.6.1-8.2,3.1-1.5,2.9,0,5.3,2.6,7.2-5.1,9.3-9.2,19.4-13.6,29.1-2.3,5-4.6,9.9-6.8,14.9-1.6,3.6-3.1,7.6-2.6,11.6,1,7.2,7.9,11,14.3,7.2,3.4-2,5.5-5.6,7.2-9.1,2.2-4.7,4.3-9.5,6.5-14.2,5-11.1,10.1-22.2,15.1-33.3,0,0,0,0,0,0,.9,0,1.7,0,2.6,0,2.3-.2,5.3-.9,5.4-3.7.1-3-3.1-5.3-5.2-6.7h0ZM672,674.7c-3.7,8.1-6.9,16.5-11.2,24.3-2.1,3.9-5.4,7.6-10.1,7.8-4.7.2-7.4-4.4-7.5-8.6,0-4.6,2.2-8.8,4-12.9,2-4.3,3.9-8.6,5.9-12.9,4.2-9.2,9-18.4,12.5-27.9,3.2,2,7.5,3.4,9.7,4,2.5.8,5.2,1.3,7.8,1.5-3.8,8.2-7.5,16.5-11.2,24.7h0ZM690.7,646.4c-.5,1.6-.9,1.6-2.5,1.9-1.2.2-2.4.2-3.5.2-2.9,0-5.8-.5-8.5-1.3-2.7-.8-5.2-1.8-7.7-3-2.5-1.2-7.3-4.3-4.2-7.5,2.2-2.2,6.8-1.4,9.5-1,2.7.4,5.3,1.2,7.8,2.1,0,0,.1,0,.2,0,3.3,1.3,6.4,3.2,8.4,5.8.9,1.1,1,1.4.6,2.9h0Z"/>
    <path class="st15" d="M671.3,671.9c1-4.9-12.1-3.3-14.3-3-.2,0-.3.2-.3.3,0,0,0,0,0,0-3.8,7.1-7.2,14.7-10.3,22.2-1.7,4.2-2.3,11,3,12.9,6.3,2.2,9.9-5.9,12.2-10.2,3.7-7,7.5-14.2,10.2-21.7.1-.4-.1-.7-.5-.7h0ZM657.3,669.7c1.9.2,3.7.2,5.6.3,2.4,0,6-.6,7.1,2.1-4.7,1.7-8.9,1-13-1.7,0-.2.2-.4.3-.7h0ZM662.6,689.4c-1.4,2.8-2.8,5.5-4.4,8.2-1.5,2.8-4.1,6.5-7.8,5.7-3.5-.8-4.3-5-3.7-8,.6-2.9,2.1-5.7,3.3-8.4,2.3-5.3,4.8-10.5,6.9-15.9,3.6,2.9,8.9,3.7,13.3,2.3-2.6,5.3-4.9,10.8-7.6,16.2h0Z"/>
    <path class="st15" d="M660.3,678.5c-.3,0-.5.4-.3.7.6.5,1.2.8,1.4,1.7.1.9-.5,1.6-1.3,1.7-1.8.3-2.7-2.2-1.2-3.2.3-.2,0-.7-.3-.5-1,.6-1.5,1.8-1.2,3,.4,1.2,1.6,1.8,2.8,1.7,1.2-.2,2.2-1.1,2.2-2.3,0-1.1-.8-2.8-2-2.7h0Z"/>
    <path class="st15" d="M655.5,686.7c-.1.4,0,.7-.3,1s-.7.4-1,.2c-.5-.4-.4-1.2,0-1.6.2-.2,0-.6-.3-.5-1.3.5-1.2,2.4,0,3,.6.3,1.4.2,1.9-.3.5-.4.9-1.3.4-1.9-.2-.2-.5,0-.6.2h0Z"/>
    <path class="st15" d="M653.3,695.1c-.4,0-.5.6,0,.7,1.3.3,1.9,2,.7,2.7-.5.3-1.1.3-1.6-.2-.5-.4-.5-1-.6-1.6,0-.3-.4-.4-.6-.2-.6.8-.2,2,.6,2.7.8.7,2,.7,2.9.1,1.9-1.3,1-4.2-1.2-4.3Z"/>
    <path class="st2" d="M677.7,643.7c-1.5-.4-2.8-.8-3.9-1.3.7.3,1.3.4,1.6.5.7.2,1.5.5,2.2.8h0Z"/>
    <path class="st4" d="M652.8,698.6c.7-.6,1.2-1.2,1.7-1.8.2.6,0,1.2-.6,1.7-.3.2-.7.3-1.1.2h0Z"/>
    <path class="st4" d="M647.6,701.3c1.7-.3,3.1-1,4.3-1.9.8.6,1.8.5,2.7,0,1.2-.8,1.3-2.4.5-3.4.5-.7.8-1.2.8-1.2l5.7-11.9.8-1.7,3.4-7.2c1.5,0,3-.2,4.4-.7-2.6,5.3-4.9,10.8-7.6,16.2-1.4,2.8-2.8,5.5-4.3,8.2-1.5,2.8-4.1,6.5-7.8,5.7-1.3-.3-2.2-1-2.8-2h0Z"/>
    <path class="st4" d="M670.1,672c-1.3.5-2.6.8-3.8.8l1.3-2.8c1.1.2,2,.8,2.5,1.9h0Z"/>
    <path class="st10" d="M683.2,650c-3.8,8.2-7.5,16.5-11.2,24.7-3.7,8.1-6.9,16.5-11.2,24.3-2.1,3.9-5.4,7.6-10.1,7.8-3.6.1-6.1-2.6-7-5.7.8.2,1.6.3,2.3.4.6,1.4,1.8,2.5,3.5,3.1,6.3,2.2,9.9-5.9,12.2-10.2,3.7-7,7.5-14.2,10.2-21.7.1-.4-.1-.7-.5-.7.3-1.8-1.1-2.7-3.2-3.1l9.4-19.7c1.8.4,3.7.7,5.6.9h0Z"/>
    <path class="st10" d="M690.7,646.4c-.5,1.5-.9,1.6-2.5,1.9-1.2.2-2.4.2-3.5.2-2.2,0-4.3-.3-6.4-.8l1.5-3.2c1.6.5,3.3.9,4.9,1.1,1.6.2,3-.4,3.1-2.1,0-.3-.5-.5-.6-.2-.2.4-.5.6-.9.8-4.6-4.3-11.6-6.5-17.9-5.8,0-.1-.1-.3-.1-.4,3.7-1.6,7.3-1.7,10.5-1,.9.3,1.8.6,2.7.9,0,0,.1,0,.2,0,3.2,1.3,6.4,3.2,8.4,5.8.9,1.1,1,1.4.6,2.9h0Z"/>
    <path class="st6" d="M666.3,652.8c-.6-.2-1.3,0-1.7.5-.5.4-.7,1-1,1.6-1.3,3-2.6,5.9-3.9,8.9-.2.5-.5,1.1-.4,1.7s.5,1.2,1,1.2c.6,0,1.1-.5,1.4-1,2.1-3,4.2-6.1,5.3-9.7.2-.6.3-1.2.3-1.8,0-.6-.4-1.2-1-1.4h0Z"/>
    <path class="st6" d="M668.3,647.9c-.8,0-1.6.3-2,1-.2.5-.3,1-.3,1.5,0,.2,0,.3.1.5,0,.1.2.2.3.2.4.2.9.5,1.4.4.7-.1,1.1-.9,1.3-1.6.2-.6.3-1.4-.2-1.8-.2-.1-.4-.2-.6-.2h0Z"/>
  </g>
  <g>
    <path class="st15" d="M374.8,103.5c-.2,0-.4.2-.3.5.1.2.4.4.5.6.1.2.2.5.2.8,0,.6-.4,1.1-1,1.2-1.4.3-2.1-1.4-1.1-2.3.3-.3-.1-.7-.5-.4-.7.6-1,1.6-.6,2.5.4.9,1.4,1.3,2.3,1.1.9-.2,1.6-.9,1.7-1.8,0-.7-.4-2.2-1.3-2.1Z"/>
    <path class="st15" d="M386.5,101.5c-.2,0-.3.3-.2.4.1.3.4.4.4.8s-.2.6-.6.6c-1,0-1.2-1.2-.9-1.9.2-.4-.4-.8-.7-.4-.5.7-.6,1.6-.2,2.3.4.7,1.2,1.1,2,.9.7-.1,1.2-.7,1.3-1.5,0-.6-.4-1.6-1.1-1.4h0Z"/>
    <path class="st15" d="M383.4,110c-.2-.3-.7-.2-.7.2,0,.6.2,1.4-.5,1.8-.5.3-1.1,0-.9-.6.2-.4-.3-.7-.6-.4-.4.4-.4,1-.1,1.5.3.5.9.8,1.5.7,1.4-.2,2-2,1.3-3.2h0Z"/>
    <g>
      <g>
        <path class="st9" d="M417.6,51c-.6,3-2.8,5.7-5.9,7.2-2.1,1-4.5,1.6-6.9,2.1-3.2.7-6.6,1-9.7,1.5-6.3,1-12.7,1.9-19.1,2.2-3.1.2-7.2.7-9.5-1.8-.8-.8-1.2-1.8-1.5-2.8,8.6,2.3,18.3,2.1,27,.7,4.4-.7,8.9-1.8,13.2-3.3,4.4-1.5,8.6-3.5,12.5-5.9h0Z"/>
        <path class="st9" d="M413.6,61.1c-3.4,1.4-6.9,2.6-10.4,3.6-3.3.9-6.7,1.7-10.2,2.2-7.2,1.1-14.2.8-21.4,1,0-.4-.3-.7-.5-1-.2-.4-.4-.8-.6-1.2,0,0,.1,0,.2,0,8,.6,16.5-1,24.3-2.2,3.1-.5,6.3-1,9.4-1.6.9-.2,1.8-.4,2.7-.6,2.2-.5,4.5-1.2,6.5-2.3,0,.7,0,1.5,0,2.2h0Z"/>
        <path class="st12" d="M389.5,68.9c.6,5.4.2,10.7,2.8,15.7,1.2,2.4,3.2,3.9,5.4,5.2,1.2.7,2.5,1.5,3.2,2.7.3,0,.6-.2.9-.2.2,0,.4,0,.5-.1-2-4-6.3-6-8.4-9.9-2.1-4-2.7-9.4-1.7-13.8-.9.1-1.8.3-2.8.4h0Z"/>
        <path class="st1" d="M381.9,45.7c0-.1,0-.2,0-.4-1.5-2-2.9-4.2-4.5-6.2-1,5.2-.3,10.1,1.3,15.1,3.7,0,7.4,0,11.1-.6,5.1-.7,10-2,14.9-3.6,0,0,0,0,0,0-.6-4.7-1.4-9.2-3-13.6-.2,1.5-.4,3.1-.6,4.6.1.9.3,1.9.3,2.8,0,.5-.6.5-.8.1,0-.2-.1-.5-.2-.7-.1,0-.3-.1-.2-.3,0-.2,0-.3,0-.5-.6-2.5-1.1-5-1.8-7.5-.6-2.2-1.4-4.4-2.1-6.5-1,5.2-1.6,10.4-2,15.7.1.6.2,1.2.3,1.8,0,.7-.9.7-1.1.2-.9-2.4-1.6-4.8-2.6-7.2-.9-2.1-2-4.1-3.1-6-.7,3.4-1.1,6.9-1.2,10.4,0,.5-.8.8-1,.3-.9-1.9-1.8-3.8-2.9-5.6,0,2.5,0,5.1,0,7.6,0,.5-.8.6-.9.1h0Z"/>
        <path class="st9" d="M417.8,49.5c-4.2,2.3-8.4,4.3-12.8,5.9-4.1,1.5-8.3,2.7-12.6,3.4-9.4,1.6-18.3,1-27.6-.2-.4-1.7-.3-3.6-.4-5.3.7-.3,1.4-.6,2.2-.8.7-.2,1.6-.2,2.2-.6,0,0,0,0,0,0,.6.8,1.2,1.5,2,2.2-1.8-.1-3.6-.3-5.4-.4-.3,0-.4.5,0,.6,8.2,2.2,17.4,2,25.7.7,4.5-.7,8.9-1.7,13.2-3.1,3.7-1.2,7.3-2.7,10.7-4.5.5-.3.3-.9-.1-1.1,0,0,0-.1,0-.2,0-.7,0-1.3-.1-2,.4.2.9.2,1.4.1h0c1.1,1.8,1.6,3.7,1.5,5.5h0Z"/>
        <path class="st13" d="M372.4,54c1.7.1,3.3.2,5,.2-2.4-5.2-2.5-11.4-1.1-16.9.2-.6.9-.6,1.2-.2,1.5,1.8,2.9,3.8,4,5.8-.2-2.4-.2-4.9,0-7.3,0-.6.8-.9,1.2-.3,1.2,1.8,2.2,3.7,3.1,5.7.5-3.3.9-6.6,1.3-10,0-.5.8-.5,1-.1,2.2,2.8,4.1,6.3,5.3,9.8.2-5,1-10.1,2.1-15,.2-.7,1.1-.6,1.3,0,1.5,4,3,8.4,3.9,12.7.1-1.3.3-2.6.4-3.9,0-.4.6-.7.8-.2,2.2,4.7,3.8,10,4.1,15.3,2.7-1,5.3-2.1,7.9-3.3-.1,0-.2-.2-.2-.4,0-2.8-.4-5.7-.7-8.5,0,.5-.1,1-.2,1.4-.1.6-1,.4-1-.1-.5-5-1.6-9.8-3.1-14.5-.5,2.5-.9,5.1-1.3,7.6,0,.2-.1.3-.3.3-.2.3-.8.3-.9-.1-1-3.4-1.5-6.9-2.4-10.4-.8-2.8-1.8-5.5-2.8-8.2-.2,1.1-.4,2.3-.7,3.4.3,1.3.5,2.7.6,4,0,.5-.6.5-.8.1-1.9-5.9-3.4-11.8-5.6-17.5-1.1,6.4-2,12.7-3,19.1.3,1.1.5,2.3.7,3.5.1.7-.8,1-1,.3-1.2-3.1-2-6.4-3.2-9.5-1-2.5-2-5-3.2-7.5-.2,4.2-.5,8.4-.7,12.6,0,.1.1.3.1.4,0,.3-.1.5-.4.6-.2.1-.4,0-.5-.2h0c-.6-1.1-1.2-2.3-1.9-3.4-.4,2.4-.4,4.9-.8,7.3,0,.1,0,.2-.2.2-.1.3-.5.3-.7,0-1.6-4.6-3.1-9-5.3-13.3-.5,5.2-.5,10.4-.8,15.6,0,.1,0,.2.1.4,0,.2,0,.3-.2.4h0c0,.4-.5.4-.6,0,0-.2,0-.4,0-.6-.9-1.6-1.7-3.3-2.4-5-.4,4.7-1.5,9.2-2.3,14-1,5.7-.4,11.7,4.2,15.5h0Z"/>
        <path class="st11" d="M433.8,85.7c-2.1,2.6-5.2,3.9-8.5,4.7-2.3.6-4.7,1-6.9,1.5-6,1.3-12.1,2.4-18.2,3.5-6.4,1.1-12.8,1.8-19.2,2.3-3.2.3-6.3.6-9.5.9-2.4.2-5.5.9-7.3-1.1.4-.6.8-1.1,1.3-1.6,0,0,0-.1.1-.2h.1c5-1,9.8-2.5,14.8-3.3,5.2-.8,10.6-.8,15.8-1.6.2,0,.3,0,.4-.2.8.5,1.6,1,2.3,1.6.3.4.5.8.8,1.1.2.2.4.2.6.1.2.2.5,0,.6-.2.3,0,.5,0,.8,0,.5,0,1.1,0,1.6-.4.3-.2.2-.6,0-.7,0,0,0-.2,0-.2-.3-.9-.8-1.8-1.4-2.5,5.4,0,10.9-1.1,16.3-1.8,1.9-.2,3.9-.4,5.8-.6,3.3-.3,6.6-.7,9.7-1.4,0,0,.1,0,.2,0h0Z"/>
        <path class="st9" d="M426.2,111.7c-9.3,4.3-19.4,6.7-29.5,7.9-1.7.2-3.3.4-5,.5-6,.5-12,.7-18,.4-6.3-.4-13.4-2.7-14.8-9.6-1.4-6.6,1.9-14.1,4.7-19.9,3-6.3,7-11.8,11.5-17.2,0,0,0,0,0,0,.1,0,.2-.2.2-.3.2-.8,0-1.6-.2-2.4-.1-.6-.3-1.2-.4-1.8,4.6.5,9.3.3,14-.2-.7,4.9-.4,10.6,1.8,15,1,1.9,2.4,3.8,4.1,5.1.2.2.5.4.7.5-4.8-.3-10,.6-14.6,1.4-5.1.9-10.4,2-15.1,4.1,0,0-.1,0-.2.2-.1,0-.3,0-.4,0-5.6,4.7-6.1,13.1-1.1,18.5,5.9,6.5,16.2,4.7,23.9,4.1,6.2-.5,12.5-1.3,18.6-2.6,2.7-.6,5.4-1.3,8.1-2.1,7.9-2.4,16.8-6,22.8-11.9,2.6-2.6,4.1-6,3.4-9.7-.7-3.5-3.2-6.4-6.6-7.5-.4-.2-.7,0-.8.4-3.2,0-6.6.5-9.9,1.1-2,.3-4,.7-6,.9-5.1.7-10.5,1.1-15.5,2.3,0,0-.1,0-.2.1-1.8-2-4.2-3.4-5.6-5.6-3-4.6-2.1-9.8-2.9-14.9,0,0,.1,0,.2,0,3.7-.6,7.3-1.3,10.9-2.4,2.9-.8,5.7-1.8,8.4-2.8,0,.8.1,1.6.3,2.4.1.8.1,1.7.8,2.2,0,0,.1,0,.2,0,.2,0,.3-.1.4-.2,5.8,1.3,11.2,3.4,16.3,6.4,4.9,2.9,10,6.7,12.9,11.7,7.2,12.4-7.6,21.5-17.2,26h0Z"/>
        <path class="st17" d="M439.4,93.5c.1,4.1-3.1,7-6.1,9.2-5.8,4.1-12.5,7.1-19.3,9.2-1,.3-2,.6-3,.8h0c-6.1,1.7-12.4,2.7-18.7,3.4-3.5.4-7,.6-10.5.8-3.7.2-7.7.5-11.3-.6-8.2-2.4-10.8-11.5-6.6-18.2.7,1.2,1.9,1.8,3.4,2,3.2.5,6.8-.4,10-.7,7.4-.8,14.8-1.8,22.2-2.7,7.1-.9,14.2-2.1,21.2-3.9,1.5-.4,3.2-.7,4.9-1.2,3.7-.9,7.4-2.3,9.5-5.3,2.5,1.5,4.2,4.2,4.3,7.2h0Z"/>
        <path class="st15" d="M434.7,74.9c-6.1-4.3-13.1-7.3-20.4-8.9h0c0-.2-.1-.4-.1-.7-.2-.9-.4-1.7-.7-2.5.3,0,.5-.2.8-.3.4-.2.5-.5.5-.9,0,0,.1-.2.1-.3.1-1,0-2.1,0-3.1.1,0,.3-.2.4-.3,4.5-3.5,5.5-9.9,2.5-14.7-.2-.4-.6-.4-.9-.3,0,0,0,0,0,0-.4,0-.8,0-1.1-.2-.3,0-.5-.2-.8-.1-.2-3.2-.7-6.3-1.6-9.4-.1-.5-.8-.3-.8.1,0,.3,0,.6-.1,1-.6-4.4-1.6-8.7-3.2-12.9-.3-.8-1.3-.6-1.4.2-.2,2.4-.6,4.9-.9,7.3-.4-2.6-1.1-5.2-1.8-7.6-1-3.5-2.1-6.9-3.8-10.1-.2-.4-.9-.3-1,.1-.1,1.1-.3,2.3-.5,3.4-1.1-4.9-2.9-9.6-4.9-14.1-.3-.6-1.3-.8-1.4,0-1.2,6.4-2.2,12.9-2.7,19.5-1.5-4.8-3.6-9.5-5.9-13.7-.3-.6-1.2-.3-1.2.4,0,4.5-.1,9-.2,13.6-.5-1-1.1-1.9-1.7-2.8-.3-.4-1-.4-1.2.2-.4,1.7-.8,3.5-.9,5.3-1.2-4.2-3-8.3-5-12.1-.4-.7-1.3-.2-1.3.4-.6,5-1,10.2-.6,15.3-.6-1.6-1.3-3.3-2-4.9-.3-.7-1.2-.1-1.1.5,1.1,6.9-2.9,13.8-3.1,20.7,0,2.8.5,5.7,1.8,8.1-.7,0-1.4.2-2.1.4-.9.3-1.7.7-2.3,1.5h0c-.1,0-.2,0-.2.2-1.1,5.3.1,11.3,5.7,12.5h0c.2.6.5,1.2.7,1.8.2.5.4,1.2.9,1.5,0,0,.2,0,.3,0,0,0,0,0,0,0,.6.1,1.3.2,2,.3,0,.7.1,1.3.2,2,.1.7.1,1.4.4,2-4.8,4.6-8.6,10.4-11.5,16.4-2.7,5.5-5.4,11.8-5.5,18.1-.1,6,3.1,10.8,8.6,13,6.2,2.5,13.6,1.8,20.1,1.5,13.5-.5,27.1-2.7,39.6-8.2,9.2-4.1,23.9-11.9,21.3-24.2-1.3-6.4-6.8-11.2-11.9-14.8h0ZM368.3,38.5c.8-4.7,1.9-9.2,2.3-14,.7,1.7,1.5,3.4,2.4,5,0,.2,0,.4,0,.6,0,.4.6.4.6,0h0c.1-.1.2-.3.2-.5,0-.1,0-.2-.1-.4.3-5.2.4-10.4.8-15.6,2.2,4.3,3.7,8.7,5.3,13.3.1.4.5.3.7,0,0,0,.1-.1.2-.2.4-2.5.4-4.9.8-7.3.7,1.1,1.2,2.3,1.9,3.4h0c0,.2.3.3.5.2.2,0,.4-.3.4-.6,0-.1,0-.3-.1-.4.3-4.2.5-8.4.7-12.6,1.1,2.5,2.2,4.9,3.2,7.5,1.2,3.1,2,6.4,3.2,9.5.3.7,1.2.4,1-.3-.2-1.1-.4-2.3-.7-3.5,1-6.4,1.9-12.8,3-19.1,2.2,5.7,3.7,11.6,5.6,17.5.1.4.8.3.8-.1-.1-1.3-.4-2.7-.6-4,.2-1.1.4-2.3.7-3.4,1,2.7,2,5.4,2.8,8.2,1,3.4,1.5,7,2.4,10.4.1.5.7.4.9,0,.1,0,.2-.1.3-.3.5-2.5.9-5,1.3-7.6,1.5,4.7,2.6,9.6,3.1,14.5,0,.5.9.8,1,.1,0-.5.1-1,.2-1.4.3,2.8.6,5.6.7,8.5,0,.2,0,.3.2.4-2.6,1.2-5.2,2.3-7.9,3.3-.3-5.3-1.8-10.5-4.1-15.3-.2-.4-.8-.1-.8.2-.1,1.3-.3,2.6-.4,3.9-.9-4.3-2.4-8.7-3.9-12.7-.2-.6-1.1-.7-1.3,0-1.1,4.9-1.9,9.9-2.1,15-1.2-3.6-3.1-7.1-5.3-9.8-.2-.3-.9-.4-1,.1-.4,3.3-.8,6.6-1.3,9.9-.9-2-1.9-3.8-3.1-5.7-.4-.6-1.2-.3-1.2.3-.1,2.4-.2,4.9,0,7.3-1.1-2.1-2.5-4-4-5.8-.4-.4-1.1-.4-1.2.2-1.4,5.5-1.2,11.6,1.1,16.9-1.7,0-3.3-.1-5-.2-4.6-3.9-5.2-9.9-4.2-15.5h0ZM382.7,37.9c1,1.8,1.9,3.7,2.9,5.6.3.5,1,.2,1-.3.1-3.5.6-7,1.2-10.4,1.1,2,2.2,4,3.1,6,1,2.3,1.7,4.8,2.6,7.2.2.5,1.2.5,1.1-.2,0-.6-.2-1.2-.3-1.8.4-5.3.9-10.5,2-15.7.8,2.2,1.5,4.3,2.1,6.5.7,2.5,1.2,5,1.8,7.5,0,.2,0,.3,0,.5,0,.2.1.3.2.3,0,.2.1.5.2.7.1.4.8.3.8-.1,0-.9-.2-1.8-.3-2.8.2-1.5.4-3.1.6-4.6,1.5,4.5,2.4,8.9,3,13.6,0,0,0,0,0,0-4.8,1.7-9.8,2.9-14.9,3.6-3.8.5-7.4.7-11.1.6-1.6-5.1-2.3-10-1.3-15.2,1.5,2,3,4.1,4.5,6.2,0,.1,0,.2,0,.4,0,.5.9.4.9-.1,0-2.5-.1-5.1,0-7.6h0ZM364.4,53.3c.7-.2,1.4-.6,2.2-.8.7-.2,1.6-.2,2.2-.6,0,0,0,0,0,0,.5.8,1.2,1.5,2,2.2-1.8-.1-3.6-.3-5.4-.4-.3,0-.4.5,0,.6,8.2,2.2,17.4,2,25.7.8,8.3-1.2,16.5-3.7,23.9-7.6.5-.3.3-.9-.1-1.1,0,0,0-.1,0-.2,0-.7,0-1.3-.1-2,.4.2,1,.2,1.4.1,0,0,0,0,0,0,1.1,1.8,1.6,3.6,1.5,5.5-8,4.4-16.3,7.8-25.4,9.4-9.4,1.6-18.3,1-27.6-.2-.4-1.7-.3-3.6-.3-5.3h0ZM366.5,62.2c-.8-.8-1.2-1.8-1.5-2.8,8.6,2.3,18.3,2.1,27,.7,8.9-1.4,18-4.4,25.7-9.2-.6,3-2.8,5.7-5.9,7.2-5,2.3-11.2,2.7-16.6,3.6-6.3,1-12.7,1.9-19.1,2.2-3.1.1-7.2.7-9.5-1.8h0ZM371.7,67.9c0-.4-.3-.7-.5-1-.2-.4-.4-.8-.6-1.2,0,0,.1,0,.2,0,8,.6,16.5-1,24.3-2.2,4-.7,8.1-1.3,12.1-2.1,2.2-.5,4.5-1.2,6.5-2.3,0,.7-.1,1.5,0,2.2-6.7,2.7-13.5,4.7-20.6,5.8-7.2,1.1-14.2.8-21.4,1h0ZM393.9,82.3c2.1,3.9,6.3,5.9,8.4,9.9-.2,0-.4,0-.5.1-.3,0-.6.1-.9.2-.7-1.2-2-2-3.2-2.7-2.2-1.4-4.1-2.9-5.4-5.2-2.6-5-2.2-10.3-2.8-15.7.9-.1,1.8-.2,2.8-.4-1,4.4-.4,9.8,1.7,13.8h0ZM418.4,92c-6,1.3-12.1,2.4-18.2,3.5-6.4,1.1-12.8,1.8-19.2,2.4-3.2.3-6.3.6-9.5.9-2.4.2-5.5.9-7.3-1.1.4-.6.8-1.1,1.3-1.6,0,0,0-.1.1-.2h.1c5-1,9.8-2.5,14.8-3.3,5.2-.8,10.6-.8,15.8-1.6.2,0,.3,0,.4-.2.8.5,1.6,1,2.3,1.6.3.4.5.8.8,1.2.2.2.4.2.6.1.2.1.5,0,.6-.2.3,0,.5,0,.8,0,.5,0,1.1,0,1.6-.4.2-.2.2-.6,0-.7,0,0,0-.2,0-.2-.3-1-.8-1.8-1.4-2.5,5.4,0,10.9-1.1,16.3-1.8,5.1-.6,10.5-.8,15.5-2,0,0,.1,0,.2,0-3.5,4.3-10.3,5.1-15.4,6.2h0ZM435,86.3c2.5,1.5,4.2,4.2,4.3,7.2.1,4-3.1,7-6.1,9.2-5.8,4.1-12.5,7.1-19.3,9.2-7,2.2-14.3,3.5-21.7,4.3-3.5.4-7,.6-10.5.8-3.7.2-7.7.5-11.3-.6-8.2-2.4-10.8-11.5-6.6-18.2.7,1.2,1.9,1.8,3.4,2,3.2.5,6.8-.4,10-.7,7.4-.8,14.8-1.8,22.2-2.7,7.1-.9,14.2-2.1,21.2-3.9,4.8-1.2,11.4-2.1,14.4-6.5h0ZM426.2,111.7c-10.8,5.1-22.7,7.5-34.5,8.4-6,.5-12,.7-18,.4-6.3-.4-13.4-2.7-14.8-9.6-1.4-6.6,1.9-14.1,4.7-19.9,3-6.3,7-11.8,11.5-17.2,0,0,0,0,0,0,.1,0,.2-.2.2-.3.2-.8,0-1.6-.2-2.4-.1-.6-.3-1.2-.4-1.8,4.6.5,9.3.3,14-.2-.7,4.9-.4,10.6,1.8,15,1,1.9,2.4,3.8,4.1,5.1.2.2.5.4.7.5-4.8-.3-10,.6-14.6,1.4-5.1.9-10.4,2-15.1,4.1,0,0-.1,0-.1.2-.1,0-.3,0-.4,0-5.6,4.7-6.1,13.1-1.1,18.5,5.9,6.5,16.2,4.7,23.9,4.1,9-.7,18-2.1,26.7-4.8,7.9-2.4,16.8-6,22.8-11.9,2.6-2.6,4.1-6,3.4-9.6-.7-3.5-3.2-6.4-6.6-7.5-.4-.1-.7,0-.8.4-5.2,0-10.7,1.3-15.9,2-5.1.7-10.5,1.1-15.5,2.3,0,0-.1,0-.2.1-1.8-1.9-4.2-3.4-5.6-5.6-3.1-4.6-2.1-9.8-2.9-14.9,0,0,.1,0,.2,0,6.6-1,13.1-2.7,19.3-5.2,0,.8.1,1.6.3,2.4.1.8.1,1.7.8,2.2.2.1.5,0,.6-.2h0c5.8,1.3,11.2,3.4,16.3,6.4,4.9,2.9,10,6.7,12.9,11.7,7.2,12.4-7.6,21.6-17.2,26h0Z"/>
        <path class="st10" d="M413.6,61.1c-3.4,1.4-6.9,2.6-10.4,3.6.5-.9,1-1.9,1.2-2.9.9-.2,1.8-.4,2.7-.6,2.2-.5,4.5-1.2,6.5-2.3,0,.7,0,1.5,0,2.2h0Z"/>
        <path class="st10" d="M404.8,60.3c.2-1.2.3-2.3.2-3.4,4.4-1.5,8.6-3.5,12.5-5.9-.6,3-2.8,5.7-5.9,7.2-2.1,1-4.5,1.6-6.9,2.1h0Z"/>
        <path class="st10" d="M414.9,46.1c0,0,0-.1,0-.2,0-.7,0-1.3-.1-2,.4.2.9.2,1.4.1h0c1.1,1.8,1.6,3.7,1.5,5.5-4.2,2.3-8.4,4.3-12.8,5.9-.1-1.5-.4-2.8-.7-3.7,3.7-1.2,7.3-2.7,10.7-4.5.5-.3.3-.9-.1-1.1h0Z"/>
        <path class="st20" d="M425.3,90.5c-.3-1.1-.7-2.3-1.3-3.4,3.3-.3,6.6-.7,9.7-1.4,0,0,.1,0,.2,0-2.1,2.6-5.2,3.9-8.5,4.7h0Z"/>
        <path class="st20" d="M422.7,103c3-3.6,3.7-7.5,2.9-11.4,3.7-.9,7.4-2.3,9.5-5.3,2.5,1.5,4.2,4.2,4.3,7.2.1,4.1-3.1,7-6.1,9.2-5.8,4.1-12.5,7.1-19.3,9.2-1,.3-2,.6-3,.8,4.3-2.7,8.4-5.9,11.6-9.7h0Z"/>
        <path class="st10" d="M426.2,111.7c-9.3,4.3-19.4,6.7-29.5,7.9,3.1-1.2,6.4-2.6,9.7-4.3,2.7-.6,5.4-1.3,8.1-2.1,7.9-2.4,16.8-6,22.8-11.9,2.6-2.6,4.1-6,3.4-9.7-.7-3.5-3.2-6.4-6.6-7.5-.4-.2-.7,0-.8.4-3.2,0-6.6.5-9.9,1.1-5-9.1-15.6-17.1-19.2-19.6,2.9-.8,5.7-1.8,8.4-2.8,0,.8.1,1.6.3,2.4.1.8.1,1.7.8,2.2,0,0,.1,0,.2,0,.2,0,.3-.1.4-.2,5.8,1.3,11.2,3.4,16.3,6.4,4.9,2.9,10,6.7,12.9,11.7,7.2,12.4-7.6,21.5-17.2,26h0Z"/>
        <path class="st6" d="M370,90.9c.3.4.9.6,1.5.5s1-.4,1.4-.7c1.7-1.4,2.6-3.6,3.4-5.7.2-.6.5-1.2.5-1.8,0-.6-.2-1.3-.7-1.7-.6-.4-1.4-.4-2,0s-1.1.9-1.5,1.5c-1.3,1.8-2.2,3.9-2.7,6.1-.2.7-.3,1.4.1,1.9h0Z"/>
        <path class="st6" d="M376.8,77.2c-.9.4-1.4,1.4-1,2.3s1.5,1.3,2.3.9c.7-.3,1-1.1,1.2-1.8,0-.2.2-.4.2-.7,0-.8-.9-1.5-1.7-1.4-.8,0-.6,0-1,.7h0Z"/>
      </g>
      <g>
        <path class="st12" d="M403.4,98.2c-.6,0-1.2.1-1.8,0,0,.4,0,1-.2,1.4.1,1.7-.5,3.1-1.4,4.5-.8,1.3-2.2,3.3-1.5,4.8.5,1.1,1.3,1.6,2.3,2-1-1.1-1.5-2.7-1.3-4.2.5-3.4,4.8-5.1,4.2-8.8,0,0-.1,0-.3.1h0Z"/>
        <path class="st15" d="M403.8,97.5c0-.2-.2-.3-.5-.3-.7,0-1.5,0-2.2.3-.2,0-.3.3-.2.5-.3.6-.4,1.5-.4,2.1,0,.1,0,.2.2.2-.7,2.9-3.9,5.1-3.5,8.3.3,2.3,2.5,3.7,4.8,3.6.5,0,.5-.7,0-.8,0,0,0,0,0,0-1.2-1-2-2.3-1.9-4,0-2.1,1.7-3.4,2.9-4.8,1.2-1.4,2.1-3.1,1.5-5-.1-.3-.4-.3-.6-.2h0ZM399.4,106.9c-.2,1.5.4,3,1.3,4.2-1-.4-1.8-.9-2.3-2-.7-1.6.8-3.6,1.5-4.8.9-1.5,1.5-2.8,1.4-4.5.1-.5.2-1,.2-1.4.6,0,1.2,0,1.8,0,.1,0,.2,0,.3-.1.6,3.7-3.8,5.4-4.2,8.8h0Z"/>
      </g>
      <path class="st15" d="M417.1,97.3c-.4-.2-.7.1-.6.5.1.5.3.9.1,1.4-.2.5-.6.7-1.1.6-1.2-.2-1.2-1.7-.3-2.2.4-.2.1-1-.4-.8-1.9.8-1.8,3.7.3,4.1,1,.2,1.9-.2,2.4-1.1.4-.8.4-2.2-.5-2.6h0Z"/>
      <path class="st15" d="M412.9,105.7c-.3.3-.5.9-.9,1.1-.4.2-.9,0-.6-.5.2-.3,0-.7-.4-.6-1,.3-.7,1.8.2,2,1.1.3,2.2-.8,2.1-1.8,0-.3-.4-.5-.6-.2h0Z"/>
    </g>
    <path class="st15" d="M426.7,93.6c-.2,0-.4,0-.4.3,0,.3,0,1.3-.6,1.1-.4-.2-.3-.8-.1-1.1.2-.3-.2-.7-.5-.5-1.1.6-.6,2.3.5,2.6.6.1,1.2-.2,1.5-.8.3-.5.3-1.3-.3-1.6h0Z"/>
    <path class="st15" d="M409.8,90.7c-.2-.3-.6-.2-.7,0-.2.5-.6,1.3-1.3.9-.6-.3-.5-1.1,0-1.5.3-.2-.1-.8-.4-.5-1,.7-1,2.3.1,2.9,1.1.6,3-.7,2.3-1.9h0Z"/>
    <path class="st15" d="M386.6,93.2c-.1,0-.2,0-.3.2-.1-.2-.3-.3-.6-.2-.6.3-1,1.1-.8,1.8.2.8,1,1.2,1.7,1.1.7-.1,1.3-.7,1.2-1.5,0-.7-.6-1.4-1.3-1.3ZM386.6,95.1c-.7.1-.9-.8-.3-1.1.1,0,.2-.2.2-.2,0,0,0,0,0,0,.5.3.8,1.1,0,1.3h0Z"/>
    <path class="st15" d="M379,95.7c-.2.3-.6.6-.9.3-.4-.2-.2-.8.1-.9.3-.2,0-.7-.3-.6-.9.3-1.2,1.5-.5,2.2.7.6,2,.2,2-.8,0-.2-.4-.4-.5-.2h0Z"/>
    <path class="st15" d="M418.4,89c-.2-.2-.6-.2-.6.2,0,.2,0,.6-.4.6-.2,0-.4-.4-.3-.6.2-.4-.4-.8-.7-.4-.5.7,0,1.7.9,1.8.8,0,1.6-.9,1.1-1.7h0Z"/>
    <path class="st15" d="M428,101.1c-.1-.2-.4-.2-.5,0-.1.2-.4.7-.7.4-.4-.3-.9.2-.5.6.4.3.9.4,1.3.2.4-.2.8-.7.4-1.2h0Z"/>
  </g>
  <g>
    <path class="st0" d="M610.7,119.3c-1.1-1-2.2-1.9-3.8-2.3-2.4-.6-4.4.2-6.5,1.1-.2.2-.3.6-.3.9,0,.2.1.4.2.6,3.5,0,6.9-.2,10.4-.2h0Z"/>
    <path class="st0" d="M571.4,126.5c7.4-1,14.8-1.7,22.3-2.3,7.1-.5,14.7-1.4,21.8-.8.1-.2.5-.3.7,0,1,1.1,1.7,2.3,3.1,2.9,1.6.7,3.4.4,4.9-.3.5-4.1-4-5-7.2-5-3.2,0-6.4,0-9.6,0l-19.1.2c-6.4,0-12.7.1-19.1.2-6,0-12.2.5-18.2,0,6.7,1.4,13.5,3.1,20.1,5.1,0,0,.2,0,.3,0h0Z"/>
    <path class="st0" d="M615,124.4c-1.5.2-3,.3-4.5.4,6.1,7.2,10.3,16.1,13.5,24.9,6,3.8,11.8,8.1,17.2,12.8-4-6.1-7.8-12.3-11.9-18.3-4.6-6.6-9.6-12.9-14.2-19.5,0-.1,0-.2,0-.3h0Z"/>
    <path class="st9" d="M640.2,169c-3.1,6.4-8.5,11.4-15,13.9,0-.1,0-.3-.1-.4,0,0,0-.1,0-.1h0c-.6-1.6-1.2-3.1-1.7-4.6-2.2-6.1-4.1-12.3-5.9-18.5,0-.3-.6-.2-.5.2,1.6,6.3,3.6,12.5,5.8,18.6.5,1.5,1.1,2.9,1.6,4.4,0,0,0,.1,0,.2,0,.2,0,.4,0,.6-3.9,1.3-8.1,1.8-12.5,1.2-2.5-.4-4.9-1.1-7.2-2.1-3.5-1.6-6.6-3.9-9.1-6.8-4.4-5.1-6-11.1-6.9-17.6,0-.5-.6-.6-.9-.3-.2-.3-.5-.6-.9-.4-6.8,1.7-14.4,3.5-21.6,3.1-3.7-9.3-7.5-18.5-11.1-27.9-.1-.3-.6-.2-.5.1,3.1,9.4,6.6,18.7,10.8,27.7-5-.3-9.8-1.7-14.1-4.9-4.9-3.6-7.5-9-7.3-15.1.1-3.3,1-6.5,2.2-9.5.6-1.7,1.4-3.3,2.2-4.9,5.3,1.9,10.7,3.7,16.1,5.6,1.8,4.9,3.6,9.9,5.9,14.6.2.3.7,0,.6-.2-1.6-4.8-3.6-9.5-5.6-14.1,10.4,3.6,20.8,7.3,31,11.3,2.8,11.6,6.2,23.5,11.1,34.4.1.3.6,0,.5-.2-1.9-5.7-4.1-11.4-6-17.1-1.8-5.6-3.5-11.2-5-16.8.9.4,1.8.7,2.7,1.1,12.9,5.2,25.6,11.4,36.4,20.3,1.7,1.4,3.4,2.9,5,4.5h0Z"/>
    <path class="st0" d="M549,122.3c-.3.9-.7,1.8-1.1,2.7,17.4,5.1,34.7,11.4,51.5,18.1,15,6,29.6,13.3,41.4,24.6.2-.6.5-1.2.7-1.8,0-.2.2-.4.4-.5-12.3-11.1-26.6-19.8-41.7-26.5-16.5-7.3-33.8-11.8-51.2-16.6h0Z"/>
    <path class="st15" d="M643.5,163.8c-3.9-7.2-8.6-14-13.3-20.7-3.7-5.3-7.4-10.5-11.5-15.5,1.9.6,4.2.4,5.8-.6.3.2.7.2.9-.2,2.2-4.7-3.6-7.2-7.2-7.4-1.9,0-3.9-.1-5.8-.1-2.2-4.4-9.5-5.2-12.8-1.7-.4.2-.6.6-.7,1.1,0,.3,0,.6,0,.8-1.1,0-2.2,0-3.4,0-7.5,0-15,.2-22.5.2-7.7,0-15.8-.4-23.5.5-.4,0-.5.4-.4.7,0,0-.1,0-.2,0-.5-.1-.8.5-.7.8-7.3,9.9-10.2,25.3.4,33.9,11.1,9.1,26,6,38.8,2.8.1,0,.2,0,.3-.1-1,13.8,11.6,25.9,24.6,27.5,13.5,1.7,26.6-6.8,30.7-19.8,0-.2,0-.4,0-.5.4-.2.6-.6.4-1,.2-.2.3-.5.2-.8h0ZM629.2,144.3c4.2,6,7.9,12.2,11.9,18.3-5.4-4.7-11.2-8.9-17.2-12.8-3.1-8.8-7.4-17.8-13.5-24.9,1.5-.1,3-.2,4.5-.4,0,0,0,.2,0,.3,4.6,6.6,9.6,12.9,14.2,19.5h0ZM621.9,148.5c-6.7-4.1-13.7-7.8-21-11-8.6-3.8-17.5-7.1-26.5-9.9,6.4-.8,12.8-1.4,19.2-1.9,5.2-.4,10.6-.4,15.9-.8,4.7,7.6,9.2,15.2,12.3,23.6h0ZM600.3,118c2.1-.9,4.1-1.7,6.5-1.1,1.6.4,2.7,1.3,3.8,2.3-3.5,0-6.9.1-10.4.2-.1-.2-.2-.4-.2-.6,0-.3,0-.7.3-.9h0ZM569.2,121.4c6.4,0,12.7-.1,19.1-.2l19.1-.2c3.2,0,6.4-.1,9.6,0,3.2,0,7.8.9,7.2,5-1.6.7-3.3,1-4.9.3-1.4-.6-2.1-1.8-3.1-2.9-.2-.2-.6-.1-.7,0-7.1-.6-14.7.3-21.8.8-7.4.6-14.9,1.3-22.3,2.3,0,0-.2,0-.3,0-6.7-2-13.4-3.7-20.1-5.1,6,.4,12.2,0,18.2,0h0ZM625.2,182.8c0-.1,0-.3-.1-.4,0,0,0-.1,0-.1,0,0,0,0,0,0-3-7.5-5.4-15.2-7.6-23,0-.3-.6-.2-.5.1,2,7.8,4.6,15.5,7.5,23,0,0,0,.1,0,.2,0,.2,0,.4,0,.6-3.9,1.4-8.1,1.8-12.5,1.2-6.3-.9-12.1-4.1-16.3-8.9-4.4-5.1-6-11.1-6.9-17.6,0-.5-.6-.6-.9-.3-.2-.3-.5-.6-.9-.4-6.8,1.7-14.4,3.5-21.5,3.1-3.7-9.3-7.5-18.5-11.1-27.9-.1-.3-.6-.2-.5.1,3.1,9.4,6.7,18.7,10.8,27.7-5-.3-9.8-1.7-14.1-4.9-4.9-3.6-7.5-9-7.3-15.1.1-3.3,1-6.5,2.2-9.5.6-1.7,1.5-3.3,2.2-4.9,5.3,1.9,10.7,3.7,16,5.6,1.8,4.9,3.6,9.9,5.9,14.6.2.3.7,0,.6-.2-1.6-4.8-3.6-9.5-5.6-14.1,10.4,3.6,20.8,7.3,31,11.3,2.8,11.6,6.2,23.5,11.1,34.4.1.3.7,0,.5-.2-1.9-5.7-4.1-11.4-6-17.1-1.8-5.6-3.5-11.2-5-16.8.9.4,1.8.7,2.7,1.1,15,6.1,29.7,13.4,41.4,24.8-3.1,6.4-8.5,11.4-15,13.9h0ZM641.5,165.8c-.2.6-.4,1.2-.7,1.8-11.7-11.2-26.4-18.6-41.4-24.6-16.9-6.8-34.1-13-51.5-18.1.4-.9.8-1.8,1.1-2.7,17.4,4.8,34.7,9.3,51.2,16.6,15.1,6.7,29.4,15.4,41.7,26.5-.2,0-.3.2-.4.5h0Z"/>
    <path class="st6" d="M546,135c-.2,0-.3.4-.4.6-.5,2.9-1.1,5.9-.5,8.8.5,2.6,1.9,5,3.9,6.8,1.3,1.2,2.8,2.2,4.5,2.8-1.4-2.7-2.6-5.5-3.2-8.5-.6-3-.6-6.1.5-9-1.4-.5-2.9-1-4.3-1.5-.2,0-.3-.1-.5,0h0Z"/>
    <path class="st6" d="M552.2,130.3c0,0,0-.1,0-.2,0-.1-.2-.1-.2-.2-1.3-.5-2.7-.8-4.1-1.2-.9,1.3-1.5,2.9-1.7,4.4,1.6.6,3.3,1.2,4.9,1.8.4-1.6.8-3.1,1.1-4.6h0Z"/>
    <path class="st10" d="M624.4,182.6c0,.2,0,.4,0,.6-3.9,1.3-8.1,1.8-12.5,1.2-2.5-.4-4.9-1.1-7.2-2.1,5.2-.1,12-1,18-4.2.5,1.5,1.1,2.9,1.6,4.4,0,0,0,.1,0,.2h0Z"/>
    <path class="st10" d="M640.2,169c-3.1,6.4-8.5,11.4-15,13.9,0-.1,0-.3-.1-.4,0,0,0-.1,0-.1h0c-.6-1.6-1.2-3.1-1.7-4.6,4.8-2.7,9.1-6.8,11.8-13.2,1.7,1.4,3.4,2.9,5,4.5h0Z"/>
  </g>
  <g>
    <path class="st14" d="M486.2,130.9c0,0-.2,0-.2-.1-1.2.6-2.4,1.1-2.6,2.5-.3,1.5,1,2.9,2.4,3.1,1.5.2,3-1.2,3-2.7,0-1.4-1.2-2.6-2.6-2.9h0Z"/>
    <path class="st14" d="M493.1,126.3c0,0-.1,0-.2,0-.2.7-.6,1.3-.4,2.1.3.9,1.2,1.3,2,.9.8-.4,1.4-1.3.9-2.2-.4-.8-1.5-1.2-2.3-.8Z"/>
    <path class="st5" d="M510.6,131.7c-.3-2.9-3.2-3.1-5.5-3.8-3.6-1-4.9-3.4-4.9-7,0-2.7.5-6-2.3-7.5-.7-.4-1.5-.6-2.3-.5-1.1,0-2.1.6-2.8,1.4-.9,1.1-1,2.2-1.2,3.5-.8,3.7-4,4.3-7.3,3.2-1.2-.4-2.4-1.1-3.6-1.3-1.1-.2-2-.1-2.9.7-1.2,1.1-.7,2,0,3.4.7,1.4,1.4,2.3,1.3,3.9-.2,2.3-1.7,4.3-3.7,5.1,0,0,0,0,0,0-2.5,1.1-6.6,2.4-6.3,5.9.3,4,5.4,1.7,7.7,1.8,3.7,0,4.6,3,5.8,5.7.6,1.4,1.4,2.8,2.7,3.6,3.9,2.4,4.1-2.8,5-5,.6-1.4,1.5-2.5,2.8-3.4,3.6-2.6,8.2-2.1,12.3-3.4,2.8-.9,5.7-3.1,5.4-6.4h0ZM492.5,125.9h0c0,0,0-.2.2-.2,1.2-.7,2.8-.3,3.5.9.8,1.2.2,2.8-1,3.5-1.2.7-2.8.4-3.5-.9-.5-.9-.6-3,.8-3.2h0ZM482.2,133.5c.1-1.8,1.8-3.8,3.7-3.4,0,0,0,0,0,0,0,0,.2-.2.3-.1,2.1.2,3.8,1.9,3.7,4.1-.1,2-2.1,3.7-4.1,3.6-2.1-.1-3.9-2.1-3.7-4.2h0Z"/>
    <path class="st15" d="M507.4,127c-1.5-.4-3.3-.5-4.5-1.6-1.1-1.1-1.2-2.6-1.2-4,0-2.3.3-4.7-.8-6.8-2-3.8-7.5-3.9-9.7-.3-.7,1.1-.7,2.2-1,3.4-.9,3-3.1,3-5.5,2.2-2.4-.8-4.9-2.2-7.3-.8-1.8,1-2.3,2.8-1.5,4.6.8,1.6,2.1,2.7,1.8,4.7-.4,2.1-2.1,3.7-4.2,3.9h0c-.1,0-.2,0-.3,0-1.8.6-3.8,2-4.7,3.6h0c-.9,1.2-1.3,2.7-.6,4.4.6,1.5,1.9,2.4,3.5,2.5,3.7.3,6.8-2.1,9.2,2.2,1.6,2.8,3.7,9.2,8.3,6.7,1.7-.9,2-2.9,2.5-4.6.9-3.5,3.4-5.1,6.8-6,4.8-1.2,11.2-.8,13.6-6.1,1.7-3.8-.2-7-4.1-8h0ZM505.2,138.1c-4.1,1.3-8.7.9-12.3,3.4-1.2.9-2.2,2-2.8,3.4-.9,2.2-1,7.4-5,5-3.8-2.3-2.9-9.1-8.5-9.3-2.4,0-7.4,2.2-7.7-1.8-.3-3.5,3.8-4.7,6.3-5.9,0,0,0,0,0,0,2-.8,3.5-2.8,3.7-5.1.1-1.6-.6-2.6-1.3-3.9-.7-1.3-1.2-2.3,0-3.4.9-.8,1.8-.8,2.9-.7,1.3.2,2.4.9,3.6,1.3,3.3,1.1,6.5.5,7.3-3.2.3-1.3.3-2.4,1.2-3.5,1.3-1.5,3.4-1.9,5.2-1,2.8,1.5,2.3,4.9,2.3,7.5s1.2,6,4.9,7c2.3.6,5.2.8,5.5,3.7.3,3.3-2.6,5.5-5.4,6.4h0Z"/>
    <path class="st15" d="M486.3,130c-.1,0-.2,0-.3.1,0,0,0,0,0,0-1.9-.4-3.6,1.6-3.7,3.4-.2,2.1,1.6,4.1,3.7,4.2,2,.1,3.9-1.6,4.1-3.6.2-2.2-1.6-3.8-3.7-4.1h0ZM485.7,136.4c-1.4-.2-2.7-1.6-2.4-3.1.3-1.4,1.5-1.9,2.6-2.5,0,0,.1.1.2.1,1.4.2,2.5,1.4,2.6,2.9,0,1.5-1.5,2.9-3,2.7h0Z"/>
    <path class="st15" d="M492.7,125.7c-.1,0-.2.2-.2.2h0c-1.3.3-1.2,2.3-.8,3.2.7,1.3,2.3,1.6,3.5.9,1.2-.7,1.8-2.2,1-3.5-.8-1.2-2.3-1.6-3.5-.9ZM494.5,129.3c-.9.4-1.7,0-2-.9-.3-.8.1-1.4.4-2.1,0,0,.1,0,.2,0,.8-.4,1.9,0,2.3.8.5.8,0,1.8-.9,2.2Z"/>
    <path class="st4" d="M505.2,138.1c-4.1,1.3-8.7.9-12.3,3.4-1.2.9-2.2,2-2.8,3.4-.9,2.2-1,7.4-5,5-1.3-.8-2.1-2.1-2.7-3.6,3.7,1.6,5-1.2,6.5-5.9,1.8-5.7,4.8,1,12.3-5,7.5-6.1-4-6.3-3.2-12.7.6-4.5-1.3-8-2.5-9.7.8,0,1.6,0,2.3.5,2.8,1.5,2.3,4.9,2.3,7.5s1.2,6,4.9,7c2.3.6,5.2.8,5.5,3.8.3,3.3-2.6,5.5-5.4,6.4h0Z"/>
  </g>
  <g>
    <path class="st20" d="M218.3,259.3s0,0,0,0c-.8-.5-1.9-.4-2.6,0-.9.5-1.2,1.3-1.2,2.3,0,.7.4,1.5.8,1.9.5.5,1.1.7,1.9.8h0c.8,0,1.9-.5,2.2-1.3,0,0,0,0,0,0,.6-1.4.3-2.8-1-3.6h0Z"/>
    <path class="st20" d="M212.9,276.2c-2.2,0-2.1,3.4,0,3.4s2.1-3.4,0-3.4Z"/>
    <path class="st20" d="M225.2,279c0-1-1-1.9-1.9-1.9-1,0-1.9.9-1.9,1.9,0,.6.2,1.1.6,1.5.7.8,1.8.8,2.5,0,.4-.4.6-1,.7-1.6h0Z"/>
    <path class="st20" d="M153.1,301.8c-3.1,0-3,4.8,0,4.8s3-4.8,0-4.8Z"/>
    <path class="st20" d="M156.4,314.3c-2.2,0-2.2,3.5,0,3.5s2.2-3.5,0-3.5Z"/>
    <path class="st20" d="M94.1,286.7c-.4.2-.8.5-1.1.9-.7.9-.8,2.2,0,3,.9.8,2.1.7,3,0,.3-.3.6-.7.8-1.1,1-1.7-1.1-3.8-2.8-2.7h0Z"/>
    <path class="st20" d="M115.4,275c-2.3,0-2.3,3.6,0,3.6s2.3-3.6,0-3.6Z"/>
    <path class="st20" d="M130.3,172.4c-.2,0-.4.1-.6.2-.2,0-.4.2-.6.4-.4.3-.4.3,0,0-.6.5-1,1-1.1,1.8,0,.7.1,1.6.7,2,.3.2.4.4.7.6.3.1.6.3,1,.4,1.7.5,3.5-1,3.5-2.7,0-1.8-1.8-3.2-3.6-2.6h0Z"/>
    <path class="st20" d="M120,188.3c-.5-.6-1.7-1-2.4-.4-.2.2-.4.3-.6.5-.7.7-.7,2,0,2.7.8.7,2,.7,2.7,0,0,0,.2-.2.2-.3.6-.7.7-1.7,0-2.4Z"/>
    <path class="st20" d="M130.4,189.6c-2.3,0-2.2,3.6,0,3.6s2.2-3.6,0-3.6Z"/>
    <path class="st20" d="M158,144.4c0-.1-.1-.2-.1-.3-.6-1.2-2.4-1.3-3.3-.4-.9,1-.7,2.7.5,3.3.1,0,.2.1.3.1.8.4,1.8.3,2.4-.4.6-.7.7-1.6.3-2.4h0Z"/>
    <path class="st20" d="M166,151.4c-2.5,0-2.5,3.9,0,3.9s2.5-3.9,0-3.9Z"/>
    <path class="st20" d="M95.3,132.8h-.2c-1.1,0-2.1,1.1-2.1,2.1,0,1.1,1,2.1,2.1,2.1h.2c1.1,0,2.1-1,2.1-2.1,0-1.2-1-2-2.1-2.1h0Z"/>
    <path class="st20" d="M190.1,42.9c-.4-1.5-2-2.3-3.5-1.9-.7.2-1.3.7-1.7,1.3-.6.9-.4,2,0,2.9.5,1,1.8,1.5,2.9,1.3,1.7-.2,2.8-1.9,2.3-3.6Z"/>
    <path class="st20" d="M178.8,52.8s0,0-.1,0c-1.2-.7-2.9.3-2.8,1.7,0,1.5,1.6,2.3,2.9,1.6,0,0,0,0,.1,0,1.2-.7,1.1-2.4,0-3.1Z"/>
    <path class="st20" d="M191.9,62.1c-1.7.1-2.4,2.1-1.3,3.3,0,0,0,0,0,0,.6.7,1.9.6,2.5,0h0c1.1-1.3.3-3.4-1.4-3.3h0Z"/>
    <path class="st20" d="M195.6,100.1c-.1-.8-.8-1.5-1.6-1.6-.7,0-1.5.3-1.9.9-.4.7-.3,1.8.3,2.3h.1c.6.5,1.5.8,2.1.3,0,0,0,0,0,0,.6-.5,1-1.1.9-1.9h0Z"/>
    <path class="st20" d="M240.7,122.6c-1.4,0-2.7,1.3-2.6,2.7,0,1.4,1.2,2.6,2.7,2.6s2.7-1.3,2.6-2.7c0-1.4-1.2-2.6-2.7-2.6Z"/>
    <path class="st20" d="M243.9,138.1s0,0-.1,0c-1.3.8-1.2,2.7,0,3.4,0,0,0,0,.1,0,1.4.8,3.1-.3,3.1-1.9,0-1.6-1.8-2.5-3.2-1.7h0Z"/>
    <path class="st20" d="M206.9,170.5c-1.3,0-2.5,1.2-2.4,2.5,0,1.4,1.1,2.4,2.5,2.4s2.5-1.2,2.4-2.5c0-1.4-1.1-2.4-2.5-2.4Z"/>
    <path class="st20" d="M242.1,326c0-.7-.5-1.6-1.4-1.7-.7,0-1.1,0-1.7.3-1.2.6-1.2,2.3-.4,3.2.9.9,2.6.7,3.1-.5.2-.4.4-.8.3-1.2h0Z"/>
    <path class="st20" d="M249.6,334.1c-2.3,0-2.2,3.6,0,3.6s2.2-3.6,0-3.6Z"/>
    <path class="st20" d="M237.7,396.7c0-.3-.2-.6-.4-.9-.7-1.5-3.1-1.3-3.8,0-.2.5-.4.9-.4,1.4-.1.7,0,1.3.3,1.9.4.7,1.1,1,1.8,1.1.7,0,1.3,0,1.8-.5.5-.4,1-1.2.9-1.9,0-.4,0-.7-.2-1.1h0Z"/>
    <path class="st20" d="M244.4,382.5c-.6-.4-1.2-.4-1.9-.5-1.2,0-2.3,1.1-2.2,2.3,0,1.2,1,2.3,2.3,2.2.7,0,1.3-.1,1.9-.5,1.4-.8,1.2-2.8,0-3.5h0Z"/>
    <path class="st20" d="M315,359.4c0-.5-.4-.9-.7-1.3-.6-.8-2-.6-2.6,0-.6.7-.8,2,0,2.6.4.3.8.6,1.3.7.2,0,.5.1.8.1.8,0,1.4-.7,1.4-1.5,0-.3,0-.5-.1-.7h0Z"/>
    <path class="st20" d="M328.6,375.9c-1.1,0-2,1-2,2,0,1.1.9,2,2,2s2-1,2-2c0-1.1-.9-2-2-2Z"/>
    <path class="st20" d="M323.3,313.1c-.6,0-1,.2-1.6.5-1.6.8-1.6,3.1-.5,4.2,1.2,1.1,3.5,1,4.2-.6.3-.6.4-1,.4-1.6,0-1.3-1.3-2.5-2.6-2.5h0Z"/>
    <path class="st20" d="M414.4,235.2c0-1.1-1-2.2-2.2-2.1-1.2,0-2,1-2.1,2.2,0,.2,0,.4,0,.5,0,1.1,1,2.2,2.2,2.1,1.2,0,2.1-1,2.1-2.2,0-.2,0-.4,0-.5h0Z"/>
    <path class="st20" d="M402.6,243.3c-2.5,0-2.4,3.8,0,3.8s2.4-3.8,0-3.8Z"/>
    <path class="st20" d="M365.7,349.7c-.5-.2-1.1-.2-1.6,0-.6.3-.9.7-1.2,1.4,0,.2-.1.4-.2.6-.4.9.4,2,1.2,2.3,1,.4,1.9,0,2.5-.9.1-.2.2-.4.3-.5.7-1,0-2.5-1-2.9h0Z"/>
    <path class="st20" d="M452.4,265.5c-.6-.6-1.6-.8-2.4-.6-.9.3-1.4.9-1.7,1.7,0,0,0,.2,0,.3-.1.8,0,1.6.6,2.2.6.6,1.4.7,2.2.5.1,0,.2,0,.3,0,.8-.3,1.5-.9,1.7-1.7.2-.9,0-1.8-.7-2.4Z"/>
    <path class="st20" d="M447.2,280.8h-.2c-1.4-.3-2.8.6-2.8,2.2,0,.6.3,1.2.7,1.5.6.6,1.4.7,2.2.5,0,0,.1,0,.2,0,.9-.2,1.6-1.3,1.6-2.1,0-.9-.7-1.9-1.6-2.1h0Z"/>
    <path class="st20" d="M308.7,163.4c-2.7,0-2.6,4.2,0,4.2s2.6-4.2,0-4.2Z"/>
    <path class="st20" d="M319.7,158.5c-2.1,0-2,3.2,0,3.2s2-3.2,0-3.2Z"/>
    <path class="st20" d="M376.1,119.6c-.4-.7-1.1-1.1-1.9-1.2s-1.6.2-2.2.8c-.6.6-1,1.7-.6,2.6.3.6.5,1.3,1,1.7.4.3.9.6,1.5.6.6,0,1-.3,1.5-.7.3-.3.6-.7.7-1.1.4-.9.5-1.8,0-2.6h0Z"/>
    <path class="st20" d="M372.4,132.5c-2.6,0-2.5,4.1,0,4.1s2.5-4.1,0-4.1Z"/>
    <path class="st20" d="M340.2,90c0-.6-.2-1.2-.7-1.6-.4-.3-.8-.6-1.3-.6-1-.1-2.3.6-2.5,1.7,0,0,0,.1,0,.2-.2,1.4.5,2.7,2,2.9.6,0,1.2,0,1.7-.5.5-.4,1-1.2.9-1.9,0,0,0-.1,0-.2h0Z"/>
    <path class="st20" d="M298.7,47.7c-1.1,0-2.1,1-2.1,2.1,0,1.2,1,2.1,2.1,2.1s2.1-1,2.1-2.1c0-1.2-1-2.1-2.1-2.1Z"/>
    <path class="st20" d="M301.2,60.4c-2.4,0-2.3,3.7,0,3.7s2.3-3.7,0-3.7Z"/>
    <path class="st20" d="M425,94.3c-.2,0-.3,0-.5-.1-1.2-.2-2.4.6-2.4,1.9,0,.5.2,1,.6,1.4.5.5,1.2.6,1.9.5.2,0,.3,0,.5-.1,1.8-.5,1.6-3,0-3.5h0Z"/>
    <path class="st20" d="M433.6,107.8c-2.4,0-2.3,3.6,0,3.6s2.3-3.6,0-3.6Z"/>
  </g>
  <g>
    <path class="st20" d="M521.1,562.1s0,0,0,0c-.8-.5-1.9-.4-2.6,0-.9.5-1.2,1.3-1.2,2.3,0,.7.3,1.5.8,1.9.5.5,1.2.7,1.9.8h0c.8,0,1.9-.5,2.2-1.3,0,0,0,0,0,0,.6-1.3.3-2.8-1-3.6Z"/>
    <path class="st20" d="M515.7,579c-2.2,0-2.1,3.4,0,3.4s2.1-3.4,0-3.4Z"/>
    <path class="st20" d="M527.9,581.7c0-1-1-1.9-1.9-1.9-1,0-1.9.9-1.9,1.9,0,.6.2,1.1.6,1.5.7.8,1.8.8,2.5,0,.5-.4.6-1,.7-1.6h0Z"/>
    <path class="st20" d="M455.9,604.5c-3.1,0-3,4.8,0,4.8s3-4.8,0-4.8Z"/>
    <path class="st20" d="M459.1,617c-2.2,0-2.2,3.5,0,3.5s2.2-3.5,0-3.5Z"/>
    <path class="st20" d="M396.8,589.4c-.4.2-.8.5-1,.9-.7.8-.8,2.2,0,3,.9.8,2.1.7,3,0,.3-.3.6-.7.8-1.1,1-1.7-1.1-3.8-2.8-2.7h0Z"/>
    <path class="st20" d="M418.1,577.8c-2.3,0-2.3,3.6,0,3.6s2.3-3.6,0-3.6Z"/>
    <path class="st20" d="M433.1,475.1c-.2,0-.4.1-.6.2-.2,0-.4.2-.6.4-.4.3-.4.3,0,0-.6.5-1,1-1.1,1.8,0,.7.1,1.6.7,2,.3.2.4.4.7.6.3.1.6.3,1,.4,1.7.5,3.5-1,3.5-2.7,0-1.8-1.8-3.2-3.6-2.6h0Z"/>
    <path class="st20" d="M422.7,491c-.5-.6-1.7-1-2.4-.4-.2.2-.4.3-.6.5-.7.7-.7,2,0,2.7.8.7,2,.7,2.7,0,0,0,.1-.2.2-.3.6-.7.7-1.7.1-2.5h0Z"/>
    <path class="st20" d="M433.1,492.4c-2.3,0-2.2,3.6,0,3.6s2.2-3.6,0-3.6Z"/>
    <path class="st20" d="M460.7,447.1c0-.1-.1-.2-.1-.3-.6-1.2-2.4-1.3-3.3-.4-.9,1-.7,2.7.5,3.3.1,0,.2.1.3.1.8.4,1.8.3,2.4-.4.6-.7.7-1.6.3-2.4h0Z"/>
    <path class="st20" d="M468.7,454.1c-2.5,0-2.5,3.9,0,3.9s2.5-3.9,0-3.9Z"/>
    <path class="st20" d="M398,435.5h-.2c-1.1,0-2.1,1-2.1,2.1,0,1.1,1,2.1,2.1,2.1h.2c1.1,0,2.1-1,2-2.1,0-1.2-1-2-2.1-2h0Z"/>
    <path class="st20" d="M492.8,345.7c-.5-1.5-2-2.3-3.5-1.9-.7.2-1.3.7-1.7,1.3-.5.9-.4,2,0,2.9.5,1,1.8,1.5,2.9,1.3,1.7-.2,2.8-1.9,2.3-3.6h0Z"/>
    <path class="st20" d="M481.5,355.6s0,0-.1,0c-1.2-.7-2.9.3-2.8,1.7,0,1.5,1.6,2.3,2.9,1.6,0,0,0,0,.1,0,1.2-.7,1.1-2.4,0-3.1h0Z"/>
    <path class="st20" d="M494.7,364.8c-1.7.1-2.4,2.1-1.3,3.3,0,0,0,0,0,0,.6.7,1.9.6,2.5,0h0c1.1-1.3.3-3.4-1.4-3.3h0Z"/>
    <path class="st20" d="M498.3,402.8c-.1-.8-.8-1.5-1.6-1.6-.7,0-1.5.3-1.9.9-.4.7-.3,1.8.3,2.3h.1c.6.5,1.5.8,2.1.3,0,0,0,0,0,0,.6-.5,1-1.1.9-1.9h0Z"/>
    <path class="st20" d="M543.4,425.3c-1.4,0-2.7,1.3-2.6,2.7,0,1.5,1.2,2.6,2.7,2.6s2.7-1.3,2.6-2.7c0-1.5-1.2-2.6-2.7-2.6Z"/>
    <path class="st20" d="M546.6,440.8s0,0-.1,0c-1.3.8-1.2,2.7,0,3.4,0,0,0,0,.1,0,1.4.8,3.1-.3,3.1-1.9,0-1.6-1.8-2.5-3.2-1.7h0Z"/>
    <path class="st20" d="M509.6,473.2c-1.3,0-2.5,1.2-2.4,2.5,0,1.4,1.1,2.4,2.5,2.4s2.5-1.2,2.4-2.5c0-1.4-1.1-2.4-2.5-2.4h0Z"/>
    <path class="st20" d="M544.8,628.8c0-.7-.5-1.6-1.4-1.7-.7,0-1.1,0-1.7.3-1.2.6-1.2,2.3-.3,3.2.9.9,2.6.7,3.2-.5.2-.4.4-.8.3-1.2h0Z"/>
    <path class="st20" d="M552.3,636.9c-2.3,0-2.2,3.6,0,3.6s2.2-3.6,0-3.6Z"/>
    <path class="st20" d="M540.4,699.5c0-.3-.2-.6-.4-.9-.7-1.5-3.1-1.3-3.8,0-.2.5-.4.9-.4,1.4,0,.7,0,1.3.3,1.9.4.7,1.1,1,1.8,1.1.7,0,1.3,0,1.8-.5.5-.4,1-1.2.9-1.9,0-.3,0-.7-.2-1.1h0Z"/>
    <path class="st20" d="M547.1,685.3c-.6-.3-1.2-.4-1.9-.5-1.2,0-2.3,1.1-2.2,2.3,0,1.2,1,2.3,2.3,2.2.7,0,1.3-.1,1.9-.5,1.3-.8,1.2-2.8,0-3.5h0Z"/>
    <path class="st20" d="M617.7,662.1c0-.5-.4-.9-.7-1.3-.6-.8-2-.6-2.6,0-.6.7-.8,2,0,2.6.4.3.8.6,1.3.7.2,0,.5.1.8.1.8,0,1.4-.7,1.4-1.5,0-.3,0-.5-.1-.7h0Z"/>
    <path class="st20" d="M631.3,678.6c-1.1,0-2,1-2,2,0,1.1.9,2,2,2s2-1,2-2c0-1.1-.9-2-2-2Z"/>
    <path class="st20" d="M626,615.8c-.6,0-1,.2-1.6.5-1.6.8-1.6,3.1-.5,4.2,1.2,1.1,3.5,1,4.2-.6.3-.6.4-1,.4-1.6,0-1.3-1.3-2.5-2.6-2.5h0Z"/>
    <path class="st20" d="M717.1,537.9c0-1.1-1-2.2-2.2-2.1-1.2,0-2,1-2.1,2.2,0,.2,0,.3,0,.5,0,1.1,1,2.2,2.2,2.1,1.2,0,2.1-1,2.1-2.2,0-.2,0-.3,0-.5h0Z"/>
    <path class="st20" d="M705.3,546c-2.5,0-2.4,3.8,0,3.8s2.4-3.8,0-3.8Z"/>
    <path class="st20" d="M668.5,652.4c-.5-.2-1.1-.2-1.6,0-.6.3-.9.7-1.2,1.4,0,.2-.2.4-.2.6-.4.9.4,2,1.2,2.3,1,.4,1.9,0,2.5-.9.1-.2.2-.4.3-.5.7-1,0-2.5-1-2.9h0Z"/>
    <path class="st20" d="M755.1,568.2c-.6-.6-1.6-.8-2.4-.6-.9.3-1.3.9-1.7,1.7,0,0,0,.2,0,.3-.1.8,0,1.6.6,2.2.6.6,1.4.7,2.2.5,0,0,.2,0,.3,0,.8-.3,1.5-.9,1.7-1.7.2-.8,0-1.8-.7-2.4Z"/>
    <path class="st20" d="M749.9,583.5h-.2c-1.4-.3-2.8.6-2.8,2.2,0,.6.3,1.2.7,1.5.6.6,1.4.7,2.2.5,0,0,.1,0,.2,0,.9-.2,1.6-1.3,1.6-2.1,0-.9-.7-1.9-1.6-2.1h0Z"/>
    <path class="st20" d="M611.4,466.1c-2.7,0-2.6,4.2,0,4.2s2.6-4.2,0-4.2Z"/>
    <path class="st20" d="M622.4,461.2c-2.1,0-2,3.2,0,3.2s2-3.2,0-3.2Z"/>
    <path class="st20" d="M678.8,422.3c-.4-.7-1.1-1.1-1.9-1.2s-1.6.2-2.2.8c-.6.6-1,1.7-.6,2.5.3.6.5,1.3,1,1.7.4.4.9.6,1.5.6.6,0,1-.3,1.5-.6.3-.3.6-.7.7-1.1.4-.9.5-1.8,0-2.6h0Z"/>
    <path class="st20" d="M675.1,435.2c-2.6,0-2.5,4.1,0,4.1s2.5-4.1,0-4.1Z"/>
    <path class="st20" d="M642.9,392.7c0-.6-.2-1.2-.7-1.6-.4-.3-.8-.5-1.3-.6-1-.1-2.3.6-2.5,1.7,0,0,0,.1,0,.2-.2,1.4.5,2.7,2,2.9.7,0,1.2,0,1.7-.5.5-.4,1-1.1.9-1.9,0,0,0-.1,0-.2h0Z"/>
    <path class="st20" d="M601.4,350.4c-1.1,0-2.1,1-2.1,2.1,0,1.1,1,2.1,2.1,2.1s2.1-1,2.1-2.1c0-1.1-1-2.1-2.1-2.1Z"/>
    <path class="st20" d="M603.9,363.1c-2.4,0-2.3,3.7,0,3.7s2.3-3.7,0-3.7Z"/>
    <path class="st20" d="M727.7,397c-.2,0-.3,0-.5-.1-1.2-.2-2.4.6-2.4,1.9,0,.5.2,1,.6,1.4.5.5,1.2.6,1.9.5.2,0,.3,0,.5-.1,1.8-.5,1.6-3,0-3.5h0Z"/>
    <path class="st20" d="M736.3,410.5c-2.3,0-2.3,3.6,0,3.6s2.3-3.6,0-3.6Z"/>
  </g>
  <g>
    <path class="st3" d="M181.8,571.3c-20.4-8.6-46.9-17.9-77.3,26.5-27.1,39.8-46.4,108.4-46.4,108.4l106.6,30.7s1.3-27.9,15.4-61.5c14.1-33.6,26.9-54,27.5-66.4.7-12.4-4.8-28.8-25.8-37.7h0Z"/>
    <path class="st3" d="M67.4,682.7s-9,21.6-12.2,29.8c-3.1,8.2-4.1,10.1.2,12.7,4.3,2.5,7.7,4.8,9.1,3.8s.5-2.5.5-2.5c0,0,2.7,2.5,4.8,1.4,1.8-1,.4-3.3.4-3.3,0,0,2.2,2.3,3.5,1.3s.7-2,.2-2.8c-1.2-1.7-5-4.2-3.5-6.5s13.2-10.4,13.2-10.4l-16.1-23.6h0Z"/>
    <path class="st3" d="M143.4,704.6s2.4,17.3,3.7,29.6c.9,8.7.8,14.3,5.4,16.3,4.6,1.9,8.3,3.8,9.5,2.6,1.3-1.1.1-2.5.1-2.5,0,0,3,2.2,4.9.8,1.7-1.2,0-3.3,0-3.3,0,0,2.4,2,3.7.9,1.3-1.1.4-2.1-.2-2.8-1.4-1.5-4.1-3.3-4.3-6-.5-9.7,1-26.8,1-26.8l-23.8-8.7h0Z"/>
    <path class="st3" d="M118.2,589.7c-3.9-.7-43.7,16.3-71.3,41.1-19,17-40.1,58.3-42.1,69.2-1.4,7.5,1.4,12.4,4,13s6.8-6,6.8-6c0,0,.2,8.1,5.5,8.7,6.6.8,6.8-6,6.8-6,0,0,2.4,7.5,7.4,6.8s4.7-7.3,4.7-16.1c0-8.9,3.3-26.1,20.4-49.8,30.2-42,55-47.6,55-47.6l2.9-13.2h0Z"/>
    <path class="st3" d="M190.9,601.1c3.5,1.8,24,39.3,30.4,75.5,4.4,24.9,0,64.8-9.5,79.5-4.1,6.3-8.6,8.7-11.1,7.7-2.4-1-1.6-8.8-1.6-8.8,0,0-5.1,6.1-9.6,3.4-5.6-3.4-1.6-8.8-1.6-8.8,0,0-6.4,4.4-9.9.8-3.4-3.6,0-8.4,6.7-14.1,7.5-6.4,15-23.2,16.2-52,2.1-51.1-15.9-71.1-15.9-71.1l5.8-12.1h0Z"/>
    <path class="st3" d="M149.1,566.7s2.3-3.4,3.4-9.9c1.6-9.4-2.4-13.5-2.4-13.5,0,0,2.9-5.7,9.3-5,8.5.9,7.5,8.5,7.5,8.5,0,0-3.5,2.2-5.4,6.7-2.5,5.8-3.5,12.9-3.5,12.9l-8.9.3h0Z"/>
    <path class="st19" d="M153.9,544.7s0,0-.1,0c-.5-.2-.8-.7-.6-1.3.4-1.2,2.2-3.4,5.9-2.7,6,1.1,5.6,4.9,5.6,5.1,0,0-.1.7-1,.6-.8,0-1-.8-1-.8,0,0,0-2.2-4-2.9-2.9-.5-3.7,1.2-3.7,1.4-.2.5-.7.7-1.1.6h0Z"/>
    <path class="st3" d="M191.7,585.3s3.9-1.1,9.1-5.2c7.4-6,7.1-11.7,7.1-11.7,0,0,5.9-2.4,10.3,2.4,5.7,6.3,0,11.3,0,11.3,0,0-4.1-.6-8.4,1.5-5.7,2.7-11.2,7.4-11.2,7.4l-6.9-5.6h0Z"/>
    <path class="st19" d="M209.9,571.9s0,0,0-.1c-.3-.5,0-1.1.4-1.3,1.1-.6,3.9-1,6.2,1.9,3.7,4.8,1,7.4.8,7.5,0,0-.6.4-1.1-.2-.6-.6-.2-1.3-.2-1.3,0,0,1.5-1.6-1.1-4.9-1.8-2.3-3.6-1.5-3.7-1.4-.4.2-1,.1-1.3-.3h0Z"/>
    <g>
      <path class="st6" d="M200.2,597.6c-1.7-6.2-15.4-.5-30.2-7.7-9.7-4.7-16.2-20.2-22.8-17.5-6.5,2.7-5.8,21.4,9.4,30.8,24.9,15.4,46.3,4.9,43.5-5.6h0Z"/>
      <path class="st19" d="M200.2,597.7c-.5-2-2.3-2.8-5-3.1,0,1.5-.3,4.8-3.7,4.3-3.3-.5-2.5-3.3-1.9-4.7-2.2-.1-4.7-.2-7.3-.6-.2,1.4-.9,4.2-4.2,3.9-3.3-.4-2.4-3.5-1.7-5.1-2.1-.6-4.2-1.4-6.3-2.4-.4-.2-.8-.4-1.1-.6-.8.8-4,3.7-6.3.9-2-2.4,0-4.3,1.1-5.1-1.8-1.8-3.5-3.8-5.2-5.6-.9.5-5,2.5-6.7-.7-1.3-2.5.6-3.8,1.8-4.4-2.2-1.9-4.2-2.8-6.3-2-3.4,1.4-4.8,7-3.3,13.5.6-.7,1.9-1.4,3.6.3,2.1,2.1-.3,4.9-1.3,5.9,1.2,2.3,2.8,4.5,4.8,6.6.6-1.2,2.4-3.5,5.1-1,2.3,2.1,1.3,4.2.3,5.4,0,0,.1,0,.2.1,3,1.9,6,3.3,8.9,4.5.4-1.2,1.6-3.2,5.1-2,3.3,1.2,3.3,3.2,3,4.4,3.4.7,6.6.9,9.6.8-.2-1.4.1-3.4,3-4.4,3.6-1.3,4.2,1.8,4.3,3.1,7.1-2.3,11-7.2,9.7-12h0Z"/>
    </g>
    <path class="st19" d="M142.3,577.3c-.2,0-.4-.3-.3-.5,0-.3,1.3-6.2,5.4-6.9,4.3-.7,7.6,3.6,7.8,3.7.1.2.1.5,0,.6-.2.1-.5.1-.6,0,0,0-3.2-4-6.9-3.4-3.6.6-4.7,6.1-4.7,6.2,0,.2-.3.4-.5.3,0,0,0,0,0,0h0Z"/>
    <path class="st19" d="M199.5,606.3c0,0-.1,0-.2-.1-.2-.2-.1-.5,0-.6,0,0,3.6-3.3,2.2-7.3-.7-1.9-2.6-3.1-2.6-3.1-.2-.1-.3-.4-.1-.6s.4-.3.6-.1c0,0,2.2,1.4,3,3.6,1.6,4.6-2.3,8.1-2.5,8.3-.1.1-.3.1-.4,0h0Z"/>
    <path class="st21" d="M89.2,624.3s10.4-.8,11.3,4.5c.9,5.3,1,16.2-4.5,19.1-5.5,2.9-16.4-1.8-16.4-1.8,0,0,2.3-6.1,4.7-11.2,2.4-5,4.9-10.6,4.9-10.6Z"/>
    <path class="st21" d="M105.6,655.9c-6.8.2-10.2-1.1-9.2,5.3,1,6.4,5,12.5,7.8,12.3,2.8-.3,11.4-5.7,11.4-9.4s-6.6-8.2-10-8.1h0Z"/>
    <path class="st21" d="M81,663.1c5.7.1,9.3-.5,12.2,4.7,3,5.2,6.1,11.1-.5,15.4-6.6,4.3-14.5,4.8-17.7,1.6-3.2-3.2-3.3-15.1-1-17.5,2.3-2.4,5.5-4.2,6.9-4.2Z"/>
    <path class="st21" d="M169.6,706.8c-1.3-.3-9.9-2.7-13.1.2-3.1,2.9-7.4,7.4-5.2,10.4,2.2,3,8.8,8.7,11.3,9.5,1.6.5,3.7,1,3.7,1,0,0,0-3.8,1-9.3.9-5.1,2.3-11.7,2.3-11.7h0Z"/>
    <path class="st21" d="M161.4,669.4c-5.7-1-9,.9-8.3,5.5s2.4,8.4,5.3,8.9c2.9.5,8.4,1.3,10.3-2.9,1.8-4.2-4.1-10.9-7.4-11.5Z"/>
    <path class="st21" d="M160.4,689.4c-6-3-8.8,0-8,3.2s1.9,5.6,4.9,5.7c3,.1,9.2,1.1,9.4-2.2s-3.3-5.3-6.3-6.8h0Z"/>
    <path class="st21" d="M177.2,682.4s-9.8-8-7.4-14.1,6.9-10.6,10-10.5c3,.1,6.5,3.2,6.5,3.2,0,0-1.6,4-3.9,8.9-2.7,5.8-5.2,12.5-5.2,12.5Z"/>
    <path class="st21" d="M110.4,640.7c-3.8,0-7,2.2-5.4,4.9s4.3,5.2,6.6,4.5c2.2-.7,6.5-2.6,4.6-5.8-1.8-3.2-3.1-3.5-5.8-3.6h0Z"/>
    <path class="st21" d="M61.4,695.3s6-4.5,7.9-.3,2.7,8.8-.5,11.7c-3.1,2.9-11.7,1-11.7,1l4.3-12.5h0Z"/>
    <path class="st21" d="M111.7,589.7s-3.3,7.6,1.8,10c5.1,2.4,11.9.9,13.2-1.1,1.2-2,1.2-13.2-.6-15s-6.9-3.2-6.9-3.2c0,0-1.2,1-3.5,3.6-2.4,2.6-3.9,5.9-3.9,5.9h0Z"/>
    <path class="st21" d="M196.7,638.7c-2.1-2.3-4.3-3.5-5.8-3.2-1.4.3-5.7,1.1-5.4,4.9.3,3.8,4.5,11.7,5.3,10.7.7-1,5.9-12.4,5.9-12.4h0Z"/>
    <path class="st21" d="M25,658.5s-1.7,7.9,4.1,8.8c5.8.9,12.6-.3,12.9-3.9.3-3.6-1.6-12.9-4.1-13.6s-8.7,2.3-8.7,2.3c0,0-4.2,6.5-4.2,6.5Z"/>
    <path class="st21" d="M47,645.4c-1.4,3.5,2.3,6.4,3.4,6.3,1,0,6.3-2,6.8-3.9s-.5-5.5-4-6.5-5.1,1.3-6.2,4.1h0Z"/>
    <path class="st21" d="M56.2,624.9c-1,2.1-.9,3.5,1,5s4.9,2,6.4,0c1.5-1.9,2.9-4.3,1.4-6.4-1.5-2.1-8.1-.2-8.8,1.3h0Z"/>
    <path class="st21" d="M193.2,723.7c.2,3.1,1.6,9.3,5.3,9.3,3.7,0,10.9-2.8,11.1-6.1s-.9-10.4-5.2-10.9c-4.3-.5-9.3,3.1-9.3,3.1l-1.9,4.6h0Z"/>
    <path class="st21" d="M215.3,692.5c-2.5.4-7.6,5.7-8.2,7.9s3.3,10.4,6.1,11.1,9.5-1.1,9.5-1.1c0,0,.3-3.4.3-8.6,0-5.4,0-8.8,0-8.8,0,0-3.7-1.2-7.6-.6h0Z"/>
    <path class="st21" d="M208.1,677.8c2,3.9,10,8.1,10.4,4.2.4-3.9,0-7.1-2.1-8.4-2-1.2-10.2.3-8.2,4.2Z"/>
    <path class="st21" d="M216.2,746.7c-1.9-1.5-2.5-4.9-2.1-7.5.4-2.6,6.4-10.9,6.4-10.9,0,0-.2,2.8-1.3,7.9s-3,10.5-3,10.5h0Z"/>
    <path class="st21" d="M175.8,645.3c-3.8-2.5-5.7-1.2-5,2,.8,3.3,1.5,5.8,4.2,5.5s5.3-4.6.7-7.6h0Z"/>
    <path class="st18" d="M7,710.5s.9,11,1.8,11c.9,0,2.6-10.2,2.6-10.2,0,0,0-1.5-2.1-1.6-2.1,0-2.3.9-2.3.9h0Z"/>
    <path class="st18" d="M19.4,712.2s.9,11,1.8,11c.9,0,2.6-10.2,2.6-10.2,0,0,0-1.5-2.1-1.6s-2.3.9-2.3.9h0Z"/>
    <path class="st18" d="M33,713.3s.9,11,1.8,11c.9,0,2.6-10.2,2.6-10.2,0,0,0-1.5-2.1-1.6-2.1,0-2.3.9-2.3.9h0Z"/>
    <path class="st18" d="M203.7,764.1s-7.6,8.1-8.2,7.4c-.7-.6,4.4-9.6,4.4-9.6,0,0,1-1.2,2.6,0,1.6,1.3,1.3,2.1,1.3,2.1h0Z"/>
    <path class="st18" d="M193,757.6s-7.6,8.1-8.2,7.4c-.7-.6,4.4-9.6,4.4-9.6,0,0,1-1.2,2.6,0,1.6,1.3,1.3,2.1,1.3,2.1h0Z"/>
    <path class="st18" d="M181.7,750s-7.6,8.1-8.2,7.4c-.7-.6,4.4-9.6,4.4-9.6,0,0,1-1.2,2.6,0,1.6,1.3,1.3,2.1,1.3,2.1h0Z"/>
  </g>
</svg>