<?xml version="1.0" encoding="UTF-8"?>
<svg id="Capa_1" xmlns="http://www.w3.org/2000/svg" version="1.1" viewBox="0 0 371 220">
  <!-- Generator: Adobe Illustrator 29.0.0, SVG Export Plug-In . SVG Version: 2.1.0 Build 186)  -->
  <defs>
    <style>
      .st0 {
        fill: #37474f;
      }

      .st1, .st2 {
        fill: #9a4e9e;
      }

      .st3 {
        fill: #f89728;
      }

      .st4 {
        fill: #fceaed;
      }

      .st5 {
        fill: #56b848;
      }

      .st2 {
        stroke: #9a4e9e;
        stroke-miterlimit: 10;
        stroke-width: .5px;
      }

      .st6 {
        fill: #f6feff;
      }

      .st7 {
        fill: #6fcc62;
      }
    </style>
  </defs>
  <path class="st2" d="M205.7,46.2c-1.3-1.4,1.2-9.8,1.6-11,.8-2.7,1.9-5.3,3.1-7.8,2.1-4.3,7-14.9,12.2-16.3,7.4-2.1-4.3-12.2-5-3.8-.3,3.8-5.5,8.5-7.5,11.7s-3.8,6.6-5.2,10.1c-2.1,5.2-5,13.3-2.9,18.8.3.9,1.2,1.2,2.1,1.2h.6c1.3,0,2-1.9,1.1-2.8h0Z"/>
  <path class="st2" d="M149.5,48.9l.6-.2c.6-.2,1.1-1,1.2-1.6.6-5.5-3.2-12.1-5.9-16.5s-4.6-6.6-7.3-9.5c-2.4-2.6-7.5-6-8.5-9.3-2.2-7.3-12.1,4.1-3.8,5,5.2.6,11.3,9.5,14.3,13.7,2,2.9,8.8,12.7,7.3,16.1-.7,1.5.9,2.6,2.3,2.2h0Z"/>
  <g>
    <path class="st5" d="M238.3,89.9c2.7-5,2.6-10.7-3-17-3.3-3.6-5.9-7.9-6.9-12.7-1.4-6.5-4.9-9.9-9.4-11.1-5.1-1.5-9.9-4-13.3-7.8-.7-.8-1.4-1.7-2-2.6-.4-.8-1-1.5-1.6-2.1-3.1-3.5-7.8-5.2-14.7-3.8-4.8,1-9.8,1.1-14.4-.4-6.4-2-11-.7-14.4,2.6-2.5,2.4-5.3,4.5-8.4,5.9-1.2.6-2.4,1.1-3.7,1.4-1.5.4-3,.7-4.6.7-5.7.1-10.6,3.1-13.2,11.1-1.6,4.6-3.9,9-7.6,12.3-4.2,3.8-5.7,7.9-5.3,11.8,0,.6.2,1.3.3,1.9,1.5,6.2,1.6,12.8-1.5,18.4-1.1,1.9-1.7,4-1.7,6.1-.1,3.4,1.2,7.1,4.7,10.9,3.2,3.6,5.8,7.9,6.9,12.7,1.4,6.5,4.9,9.9,9.4,11.2,6.1,1.8,11.9,5,15.2,10.4,3,4.9,8,7.6,16.2,5.9,4.8-1,9.8-1.1,14.5.4,6.3,2,11,.7,14.4-2.6,4.6-4.4,10.2-7.8,16.7-8,5.7-.1,10.6-3.1,13.2-11.1,1.5-4.7,3.9-9,7.5-12.3,1.3-1.2,2.4-2.4,3.2-3.7,2.2-3.3,2.6-6.7,1.8-10-.9-3.3-1.3-6.8-1-10.2.2-2.9,1-5.6,2.4-8.2Z"/>
    <g>
      <g>
        <path class="st6" d="M146.8,132.9c1.9.2,3.3-4,4.3-6.8-3.1-1.2-6.1-2.6-8.9-4.3.7,4.5,2.4,10.9,4.6,11.2Z"/>
        <path class="st6" d="M211.2,120.3c-2.9,1.9-6.1,3.6-9.4,4.9,1,2.7,2.4,7.9,4.6,7.7,0,0,.2,0,.2,0,2.4-.8,4.1-8.3,4.6-12.6Z"/>
        <path class="st3" d="M211.2,120.3c2.9-1.9,5.6-4,8-6.5.9-.9,1.1-2,1-3-.3-2.9-4-5.2-6.5-2.5-18,18.2-55.2,19.4-74.1,2-3.6-3.4-9,2-5.4,5.5,2.4,2.3,5.1,4.2,8,6,2.8,1.7,5.8,3.1,8.9,4.3,15.8,6.1,35,5.7,50.7-.9,3.3-1.4,6.5-3,9.4-4.9Z"/>
      </g>
      <g>
        <path class="st4" d="M176.5,55.4c-41.3,1.6-41.3,60.9,0,62.5,17.2,0,31.2-14,31.2-31.2s-13.9-31.2-31.2-31.2ZM157.1,86.7c-.4-16.2,19.8-25.5,31.9-14.9-10.8,1.5-9.9,17.4,1.1,17.6,2.3,0,4.3-.9,5.9-2.3-1.2,25.4-38.1,25.1-38.8-.4Z"/>
        <path class="st0" d="M195.9,87c-1.6,1.4-3.6,2.3-5.9,2.3-11-.2-11.9-16.1-1.1-17.6-12-10.6-32.2-1.3-31.8,14.9.8,25.5,37.6,25.8,38.8.4Z"/>
      </g>
    </g>
  </g>
  <circle class="st1" cx="125.9" cy="12.2" r="8.2"/>
  <circle class="st1" cx="219.9" cy="8.2" r="8.2"/>
  <circle class="st7" cx="140.2" cy="59.2" r="6.1"/>
  <circle class="st7" cx="160.7" cy="46.9" r="2"/>
  <circle class="st7" cx="189.2" cy="46.9" r="6.1"/>
  <circle class="st7" cx="215.8" cy="65.3" r="8.2"/>
  <path class="st7" d="M235.1,118.3c-.3,0-.7,0-1,0-5.6,0-10.2-4.6-10.2-10.2s4.6-10.2,10.2-10.2,1.2,0,1.8.2c-.3,3.4.1,6.9,1,10.2.8,3.3.4,6.7-1.8,10Z"/>
  <path class="st7" d="M134.1,91.8c0,7.9-6.4,14.3-14.3,14.3s-4.6-.6-6.6-1.6c0-2.1.6-4.2,1.7-6.1,3.1-5.6,3-12.2,1.5-18.4-.2-.7-.3-1.3-.3-1.9,1.2-.4,2.4-.5,3.8-.5,7.9,0,14.3,6.4,14.3,14.3Z"/>
  <circle class="st7" cx="158.6" cy="138.8" r="4.1"/>
  <circle class="st7" cx="181.1" cy="140.8" r="6.1"/>
</svg>