<?xml version="1.0" encoding="UTF-8"?>
<svg id="Capa_1" xmlns="http://www.w3.org/2000/svg" version="1.1" viewBox="0 0 595.28 841.89">
  <!-- Generator: Adobe Illustrator 29.0.0, SVG Export Plug-In . SVG Version: 2.1.0 Build 186)  -->
  <defs>
    <style>
      .st0 {
        fill: #9a4e9e;
      }

      .st1 {
        fill: #fff;
      }

      .st2 {
        fill: none;
        stroke: #56b848;
        stroke-linecap: round;
        stroke-linejoin: round;
        stroke-width: 3px;
      }

      .st3 {
        fill: #56b848;
      }

      .st4 {
        fill: #ffc106;
      }
    </style>
  </defs>
  <polygon class="st2" points="471.61 512.41 457.6 480.57 478.17 452.53 512.74 456.32 526.75 488.16 506.18 516.2 471.61 512.41"/>
  <polygon class="st4" points="481.64 498.72 474.47 482.42 485 468.06 502.71 470 509.88 486.31 499.35 500.67 481.64 498.72"/>
  <polygon class="st2" points="520.6 548.09 506.6 516.25 527.17 488.2 561.74 491.99 575.75 523.83 555.18 551.88 520.6 548.09"/>
  <polygon class="st4" points="530.64 534.4 523.47 518.1 534 503.74 551.71 505.68 558.88 521.98 548.34 536.34 530.64 534.4"/>
  <polyline class="st2" points="568.23 432.76 582.24 464.6 561.67 492.65 527.1 488.86 513.09 457.02 533.66 428.97"/>
  <line class="st2" x1="457.6" y1="480.57" x2="401.65" y2="474.44"/>
  <line class="st2" x1="471.61" y1="512.41" x2="451.14" y2="539.51"/>
  <path class="st0" d="M401.87,474.46c-.42,3.83-3.87,6.6-7.7,6.18s-6.6-3.87-6.18-7.7,3.87-6.6,7.7-6.18,6.6,3.87,6.18,7.7Z"/>
  <path class="st3" d="M457.98,541.22c-.42,3.83-3.87,6.6-7.7,6.17s-6.6-3.86-6.18-7.7,3.87-6.6,7.7-6.18,6.6,3.87,6.18,7.7Z"/>
  <path class="st3" d="M540.19,429.69c-.42,3.83-3.87,6.6-7.7,6.18s-6.6-3.87-6.18-7.7,3.87-6.6,7.7-6.18,6.6,3.87,6.18,7.7Z"/>
  <path class="st3" d="M575.59,433.57c-.42,3.83-3.87,6.6-7.7,6.18s-6.6-3.87-6.18-7.7,3.87-6.6,7.7-6.18,6.6,3.87,6.18,7.7Z"/>
  <path class="st0" d="M487.06,453.5c-.54,4.91-4.96,8.45-9.86,7.91s-8.45-4.95-7.91-9.86c.54-4.91,4.95-8.45,9.86-7.91s8.45,4.95,7.91,9.86Z"/>
  <path class="st0" d="M515.34,518.53c-.54,4.91-4.95,8.45-9.86,7.91s-8.45-4.95-7.91-9.86c.54-4.91,4.95-8.45,9.86-7.91s8.45,4.95,7.91,9.86Z"/>
  <path class="st0" d="M584.58,525.33c-.54,4.91-4.96,8.45-9.86,7.91s-8.45-4.95-7.91-9.86,4.95-8.45,9.86-7.91,8.45,4.95,7.91,9.86Z"/>
  <path class="st1" d="M475.94,445.61l-.47-.05c-1.28-.14-2.46.81-2.6,2.09s.81,2.46,2.09,2.6l.47.05c1.28.14,2.46-.81,2.6-2.09s-.81-2.46-2.09-2.6h0Z"/>
  <path class="st1" d="M503.54,511.16l-.47-.05c-1.28-.14-2.46.81-2.6,2.09s.81,2.46,2.09,2.6l.47.05c1.28.14,2.46-.81,2.6-2.09s-.81-2.46-2.09-2.6h0Z"/>
  <path class="st1" d="M572.49,518.72l-.47-.05c-1.28-.14-2.46.81-2.6,2.09s.81,2.46,2.09,2.6l.47.05c1.28.14,2.46-.81,2.6-2.09s-.81-2.46-2.09-2.6h0Z"/>
</svg>