<?xml version="1.0" encoding="UTF-8"?>
<svg id="Capa_1" xmlns="http://www.w3.org/2000/svg" version="1.1" xmlns:xlink="http://www.w3.org/1999/xlink" viewBox="0 0 1920 913">
  <!-- Generator: Adobe Illustrator 29.0.0, SVG Export Plug-In . SVG Version: 2.1.0 Build 186)  -->
  <defs>
    <style>
      .st0 {
        fill: none;
      }

      .st1 {
        clip-path: url(#clippath-1);
      }

      .st2 {
        fill: #a3f295;
      }

      .st3 {
        clip-path: url(#clippath);
      }
    </style>
    <clipPath id="clippath">
      <rect class="st0" y="65.4" width="1920" height="631.9"/>
    </clipPath>
    <clipPath id="clippath-1">
      <rect class="st0" y="281.1" width="1920" height="631.9"/>
    </clipPath>
  </defs>
  <g class="st3">
    <path class="st2" d="M1920,697.3V132.5c-46.7-6.4-102.5,8.7-151.1,2.4-48.1-6.3-90.4-35.1-140.5-40.2-48.6-4.9-103.4,14.1-153.8,10.4-49-3.6-95.1-30.1-145.5-32.5-49.3-2.4-101.4,19.3-151.9,18.1-49.5-1.2-98.8-25.3-149.2-25.3s-99.7,24.2-149.2,25.3c-50.5,1.2-102.6-20.5-151.9-18.1-50.4,2.4-96.5,28.9-145.5,32.5-50.3,3.7-105.1-15.3-153.8-10.4-50.1,5.1-92.4,33.9-140.5,40.2-49.8,6.5-107.2-9.3-154.7-1.6-49,8-86.3,38.8-132.4,48.4v515.6h1920Z"/>
  </g>
  <g class="st1">
    <path class="st2" d="M0,199.4v515.6c46.1,9.5,83.4,40.4,132.4,48.4,47.5,7.7,104.8-8.1,154.7-1.6,48.1,6.3,90.4,35.1,140.5,40.2,48.6,4.9,103.4-14.1,153.8-10.4,49,3.6,95.1,30.1,145.5,32.5,49.3,2.4,101.4-19.3,151.9-18.1,49.5,1.2,98.7,25.3,149.2,25.3s99.8-24.2,149.2-25.3c50.5-1.2,102.6,20.5,151.9,18.1,50.4-2.4,96.5-28.9,145.5-32.5,50.3-3.7,105.1,15.3,153.8,10.4,50.1-5.1,92.4-33.9,140.5-40.2,48.6-6.3,104.3,8.8,151.1,2.4V199.4H0Z"/>
  </g>
</svg>