<?xml version="1.0" encoding="UTF-8"?>
<svg id="Capa_1" xmlns="http://www.w3.org/2000/svg" version="1.1" viewBox="0 0 34 40">
  <!-- Generator: Adobe Illustrator 29.0.0, SVG Export Plug-In . SVG Version: 2.1.0 Build 186)  -->
  <defs>
    <style>
      .st0 {
        fill: #fdfcfc;
      }

      .st0, .st1, .st2, .st3, .st4, .st5, .st6, .st7, .st8, .st9, .st10 {
        fill-rule: evenodd;
      }

      .st1 {
        fill: #ecefed;
      }

      .st11 {
        opacity: .6;
      }

      .st11, .st2 {
        fill: #7e9b2b;
      }

      .st3 {
        fill: #f6f8f8;
      }

      .st4 {
        fill: #9abd34;
      }

      .st5 {
        fill: #f4f6f5;
      }

      .st6 {
        fill: #fefefe;
      }

      .st7 {
        fill: #f9f8f8;
      }

      .st8 {
        fill: #fbfafa;
      }

      .st10 {
        fill: #f6f9f8;
      }
    </style>
  </defs>
  <g>
    <path class="st2" d="M6.5,13.2c0,0,0-.2,0-.3.2,0,.3.2.4.3.4.8,1,1.6,1.6,2.3.7.9,1.6,1.5,2.6,2,1.3.7,2.8,1,4.3,1,1.9,0,3.7-.2,5.5-.7,1.5-.5,2.9-1.3,3.8-2.6.5-.7.8-1.4,1.2-2.1,0-.2.2-.4.4-.6,0,.5,0,.9,0,1.3,0,.9-.3,1.8-.6,2.6-.4,1-.9,1.9-1.5,2.7-.1.2-.2.3,0,.5.4.7.7,1.3.8,2.1.5,0,.9-.2,1.3-.4.5-.2,1.1-.4,1.7-.5.3,0,.4-.1.4-.4,0-.4.2-.7.4-1,.2-.3.5-.4.9-.3.2,0,.4.4.4.8,0,.1,0,.3,0,.4.2,0,.5,0,.7,0,.3,0,.6.2.7.5,0,.3,0,.6-.3.8-.1,0-.3.1-.4.2,0,.2.2.3.3.5.2.5-.1.9-.7,1-.3,0-.5-.1-.7-.2-.3-.1-.5-.5-.8-.4-.3,0-.5.2-.8.3-.7.3-1.5.6-2.2,1-.4.2-.4.3-.2.7.2.4.4.8.5,1.2,0,.2.1.3.3.4.7.4,1.6.7,2.3,1.1.1,0,.2,0,.3,0,.2-.2.5-.3.7-.5.2-.1.4-.2.7-.1.4,0,.7.5.6.9,0,.2-.2.4-.3.6.1.1.3.1.4.2.2.1.4.5.3.7,0,.3-.4.5-.6.5-.3,0-.5,0-.8,0,0,.2,0,.3,0,.4,0,.3-.2.7-.4.8-.3.1-.7,0-.9-.3-.2-.3-.4-.6-.4-1,0-.2,0-.3-.3-.3-.6-.1-1.1-.3-1.7-.5-.1,0-.1.2-.1.2-.1,1.1-.6,2-1.1,3-.6,1-1.4,1.7-2.5,2.2-.7.3-1.4.6-2.1.7-.2,0-.3.1-.3.3,0,.8,0,1.7,0,2.6,0,.1,0,.3,0,.4,0,.2.1.3.3.3.3,0,.7.1,1,.3.4.2.7.5.6.9,0,.3-.4.7-.8.7-.9.1-1.8,0-2.6-.4-.3-.1-.4-.5-.5-.8,0-.7-.1-1.3-.2-2,0-.6,0-1.2-.1-1.8,0-.2,0-.3-.3-.3-.5,0-1.1,0-1.6,0-.2,0-.3,0-.3.3,0,1.2-.1,2.3-.3,3.4,0,.2,0,.4,0,.5,0,.3-.2.5-.5.6-.8.3-1.6.4-2.4.4-.3,0-.5,0-.7-.3-.4-.4-.3-.9.2-1.1.3-.2.6-.2.9-.3.7-.1.7-.2.7-.9,0-.9,0-1.7,0-2.6,0-.2,0-.3-.3-.4-.6-.2-1.2-.4-1.8-.7-.2,0-.4-.2-.5-.3-.6-.6-1.2-1.1-1.7-1.9-.4-.6-.8-1.2-1.1-1.9-.2-.4-.3-.7-.4-1.2-.6.3-1.3.5-1.9.6-.2,0-.2.2-.2.3,0,.4-.1.7-.3,1-.2.3-.6.5-.9.3-.3-.1-.4-.5-.4-.8,0-.1,0-.2,0-.4-.2,0-.5,0-.7,0-.3,0-.6-.2-.7-.5,0-.3.1-.6.4-.8,0,0,.2,0,.3-.2,0-.2-.2-.3-.3-.5-.2-.5.1-.9.6-.9.3,0,.6.1.9.3.4.4.8.4,1.3,0,.4-.3.9-.4,1.4-.6.2,0,.3-.2.3-.5,0-.7,0-1.3.1-2,0-.2,0-.3-.2-.3-.5-.3-1-.5-1.5-.7-.3-.1-.6-.3-.8-.3-.3,0-.5.3-.8.5-.2.1-.4.2-.6.2-.6,0-1-.5-.7-1,0-.1.2-.3.2-.4,0-.1-.2-.1-.3-.2-.3-.2-.4-.5-.4-.8,0-.3.4-.5.7-.5.1,0,.2,0,.3,0,.1,0,.2,0,.4,0,0-.2,0-.3,0-.5,0-.3.2-.6.4-.7.3-.1.6,0,.9.2.2.3.4.7.4,1.1,0,.2,0,.3.3.3.8.1,1.5.5,2.2.7.3.1.3,0,.4-.3,0-.4.1-.7.3-1,0,0,0,0,0,0,.1-.3.4-.6.4-.9,0-.3-.4-.5-.6-.7-1.2-1.3-1.9-2.9-2.2-4.6,0-.2,0-.4,0-.6Z"/>
    <path class="st4" d="M26.4,13.7v-1.3c-.1.2-.2.3-.3.4-.2.7-.6,1.3-1,1.9-.4.7-1,1.3-1.6,1.8-1.2.9-2.6,1.5-4.2,1.7-1.5.2-3,.4-4.5.3-1.2,0-2.4-.3-3.5-.8-.8-.3-1.4-.8-2.1-1.3-.7-.5-1.2-1.2-1.7-1.8-.4-.5-.7-1-.9-1.5,0,0-.1-.2-.2-.2,0-1.2-.2-2.3,0-3.5.3-1.1.7-2.2,1.3-3.2.3-.4.6-.8,1-1.1.3-.2.3-.2,0-.5-.2-.4-.5-.8-.7-1.2,0-.1-.2-.2-.4-.3-1.3-.2-1.4-1.3-1.1-2,.2-.5.5-1,1.2-1,.7,0,1.3,0,1.7.7.3.4.3.8.1,1.3,0,.2,0,.3,0,.4.2.3.4.7.7,1.1.2.4.2.4.6.2.8-.4,1.7-.7,2.6-.9.7-.2,1.3-.2,2-.2,1.5,0,2.9,0,4.3.5.6.2,1.2.3,1.7.5.2,0,.2,0,.3-.1.2-.4.4-.7.7-1.1,0-.1,0-.2,0-.3-.4-1,.3-1.8,1.3-2,1.4-.2,2.1,1.3,1.7,2.3-.2.5-.6.7-1,.8-.2,0-.4.1-.5.3-.2.3-.4.7-.6,1-.1.2,0,.3,0,.4.8.6,1.2,1.4,1.7,2.2.2.3.3.6.5.9.4.7.4,1.5.5,2.3.1,1,.1,2.1.1,3.1,0,.1,0,.2,0,.3Z"/>
    <path class="st4" d="M6.5,13.2c.1.2,0,.4,0,.6-.1-.2,0-.4,0-.6Z"/>
    <path class="st9" d="M13.9,14.9c-.6-.6-.8-1.4-.7-2.2,0-.2,0-.2.5,0,.3.2.2.6.5.9.3-.2.2-.7.6-.8,0,0,0,0,.1,0,.2.1.3.4.5.6.2.3.3.4.5,0,.5-.7.5-.7,1,0,.2.3.3.3.5,0,.1-.2.2-.4.4-.6,0,0,0,0,.1,0,.3.1.3.4.4.7.1.2.2.2.3,0,.2-.2.1-.6.4-.7.4,0,.4,0,.4.4,0,.8-.3,1.5-.8,2.1-.3-.2-.4-.2-.6.2,0,.2-.1.4-.3.5,0,0,0,.2-.2.2-.3,0-.3-.5-.6-.5-.2,0-.3.4-.4.6,0,0-.2.2-.3.1h0s0,0,0,0c-.3,0-.4-.3-.5-.5-.2-.3-.3-.3-.5,0,0,0-.1.2-.2.2-.2.1-.2,0-.3-.1-.2-.1-.3-.3-.4-.5,0-.2-.2-.3-.5-.2Z"/>
    <path class="st6" d="M9.5,8.7c0-1.4,1.1-2.5,2.5-2.4,1.4,0,2.4,1.1,2.4,2.5,0,1.4-1.1,2.4-2.5,2.4-1.4,0-2.4-1.1-2.4-2.5Z"/>
    <path class="st6" d="M22.9,8.8c0,1.4-1.1,2.4-2.4,2.4-1.4,0-2.5-1.1-2.5-2.5,0-1.4,1.1-2.5,2.5-2.5,1.4,0,2.5,1.1,2.4,2.5Z"/>
    <path class="st0" d="M17.8,12.6c-.1.3-.3.5-.4.8-.2.3-.3.3-.5,0-.2-.2-.3-.5-.5-.8-.2.3-.4.6-.6.8-.2.3-.3.3-.4,0-.2-.3-.4-.6-.5-.9.9,0,1.8,0,2.7,0,0,0,.2,0,.3.1Z"/>
    <path class="st8" d="M19.1,12.5c0,.3-.1.5-.3.8,0,.1-.1.3-.3.3-.2,0-.2-.2-.3-.3-.1-.2-.2-.5-.3-.7.4-.2.8,0,1.2,0Z"/>
    <path class="st7" d="M14.7,12.6c-.1.2-.2.5-.3.7,0,.1,0,.3-.2.3-.2,0-.2-.2-.3-.3-.1-.2-.2-.5-.3-.7.4-.1.8-.2,1.1,0Z"/>
    <path class="st10" d="M16.3,16c.2-.2.4-.5.5-.7.2-.3.3-.3.5,0,.1.2.2.3.3.5-.4.2-.8.4-1.3.2Z"/>
    <path class="st3" d="M15,15.7c0-.2.2-.3.3-.5.1-.2.2-.2.4,0,.2.3.4.5.5.8-.4.2-.9,0-1.2-.3Z"/>
    <path class="st5" d="M17.8,15.6c.1-.2.2-.5.3-.7,0-.1,0-.3.2-.3.1,0,.2.1.3.2,0,0,0,0,0,.1-.2.3-.4.5-.7.6,0,0-.1,0-.2,0Z"/>
    <path class="st1" d="M13.9,14.9c.3-.4.3-.4.5,0,.1.2.2.5.3.7-.4-.1-.6-.4-.8-.8Z"/>
    <path class="st9" d="M13.8,8.8c0,1.1-.8,1.9-1.9,1.9-1,0-1.9-.8-1.9-1.9,0-1,.8-1.9,1.9-1.9,1,0,1.8.8,1.9,1.9Z"/>
    <path class="st9" d="M22.2,8.7c0,1.1-.8,1.9-1.9,1.9-1,0-1.9-.8-1.9-1.9,0-1,.9-1.9,1.9-1.9,1,0,1.8.8,1.9,1.9Z"/>
  </g>
  <path class="st11" d="M12.4,13.4c0,.6-.7,1-1.6,1s-1.6-.5-1.6-1,.7-1,1.6-1,1.6.5,1.6,1Z"/>
  <path class="st11" d="M23.2,13.4c0,.6-.7,1-1.6,1s-1.6-.5-1.6-1,.7-1,1.6-1,1.6.5,1.6,1Z"/>
</svg>