<?xml version="1.0" encoding="UTF-8"?>
<svg id="Capa_1" xmlns="http://www.w3.org/2000/svg" version="1.1" viewBox="0 0 45 40">
  <!-- Generator: Adobe Illustrator 29.0.0, SVG Export Plug-In . SVG Version: 2.1.0 Build 186)  -->
  <defs>
    <style>
      .st0 {
        fill: #faf9f9;
      }

      .st0, .st1, .st2, .st3, .st4, .st5, .st6, .st7, .st8, .st9, .st10, .st11, .st12 {
        fill-rule: evenodd;
      }

      .st1 {
        fill: #010101;
      }

      .st2 {
        fill: #f9f7f7;
      }

      .st3 {
        fill: #e94b59;
      }

      .st4, .st5 {
        fill: #bf3d49;
      }

      .st5 {
        opacity: .6;
      }

      .st6 {
        fill: #f9fafa;
      }

      .st7 {
        fill: #f6f6f6;
      }

      .st8 {
        fill: #fdfdfd;
      }

      .st10 {
        fill: #fafbfb;
      }

      .st11 {
        fill: #f9f9f9;
      }

      .st12 {
        fill: #f7f6f6;
      }
    </style>
  </defs>
  <g>
    <path class="st4" d="M14.8,33c0-.2.2-.4.4-.4h3.6c0,.4,0,.9,0,1.3,0,1.1-.1,2.1-.2,3.2s-.3,1.2-.8,1.5-.2.1-.3.2c-1.2.7-2.6,1.1-4,1-.3,0-.7,0-1-.3-.6-.6-.5-1.5.2-2,.2-.1.4-.2.6-.4.2-.1.5-.3.8-.4.5-.2.7-.6.7-1.2,0-.8,0-1.7,0-2.5Z"/>
    <path class="st4" d="M33.2,38.9c0,0,0,.2,0,.3,0,1-.5,1.5-1.5,1.5-1.2,0-2.3-.2-3.4-.7-.2,0-.3-.1-.5-.2-1-.3-1.3-.7-1.3-1.7,0-.9,0-1.8-.1-2.6,0-.8-.1-1.5-.1-2.3s.3-.6.6-.6h2.6c.3,0,.6.2.6.5,0,1,0,2,0,3q0,.5.5.6c.6.2,1.2.3,1.7.6.6.3,1,.8.9,1.5Z"/>
    <path class="st4" d="M45,17.5c-.1.4-.3.6-.8.7-.2,0-.4,0-.6,0-.3,0-.5,0-.4.3,0,.3-.1.5-.3.7-.3.4-.6.4-1,.3-.5-.2-.8-.6-.9-1.1-.2-.5-.2-.5-.7-.5-.6,0-1.3,0-1.9,0-.4,0-.5,0-.5.4,0,1.1-.2,2.3-.4,3.4,0,.3,0,.4.3.5.9.3,1.8.6,2.7.8.3,0,.5,0,.7-.2.3-.3.7-.5,1.1-.7.6-.2,1,0,1.1.7,0,.3,0,.7-.2.9-.2.2-.2.4,0,.6.3.3.5.7.5,1.2,0,.5-.3.8-.8.8,0,0,0,0,0,0-.5-.1-.7,0-.9.5-.2.4-.5.7-1,.6-.4,0-.8-.3-.9-.8-.1-.4-.2-.7-.2-1.1,0-.3,0-.5-.4-.6-.8-.3-1.5-.6-2.3-.9q-.4-.2-.6.2c-1.3,2.6-3.2,4.7-5.4,6.6-.3.2-.6.5-.9.6-.3.2-.3.3-.3.6,0,1,0,1.9.1,2.9,0,0,0,.2,0,.3h-3.7c0-.5,0-1.1,0-1.6,0-.5,0-.4-.5-.4-2.3.2-4.6.3-6.8-.4,0,0-.1,0-.2,0-.2.1-.1.3-.1.4,0,.7,0,1.3,0,2h-3.8c.1-1.3.2-2.7.3-4,0-.3,0-.5-.3-.7-2.3-1.7-4.1-3.8-5.3-6.5-.4-.8-.2-.8-1.1-.4-1.1.4-2.1.8-3.2,1.2-.2,0-.3.2-.3.5,0,.3,0,.7,0,1,0,.4-.3.6-.6.8-.3.2-.6.2-.9,0-.2-.2-.5-.4-.6-.7,0-.3-.2-.5-.5-.3,0,0,0,0-.1,0-.9,0-1.4-.7-.9-1.5.2-.3.4-.5.6-.7-.2-.4-.4-.7-.4-1.2,0-.7.5-1.1,1.2-.8.4.2.8.4,1.1.7.2.2.3.2.5.1,1.3-.3,2.6-.7,3.9-1.3.3-.1.4-.3.3-.7-.2-1.1-.4-2.2-.4-3.3-.2-.1-.4,0-.5,0-1,.1-2,.2-3,.2-.5,0-.5,0-.6.5-.1.4-.3.8-.8,1-.7.4-1.3,0-1.4-.7,0-.2,0-.4,0-.5-.3,0-.6,0-.9,0-.5,0-.7-.2-.9-.7-.1-.4,0-.7.3-1,.2-.2.5-.2.6-.4,0-.2-.1-.4-.1-.7,0-.2,0-.4,0-.6.2-.6.8-.8,1.3-.4.3.3.6.6.9.9.2.2.3.3.6.3,1.4,0,2.8,0,4.1,0q.5,0,.6-.5c0-.5.2-1.1.3-1.6-.4,0-.9,0-1.2-.2-1.4-.5-2.7-1.1-3.8-2.1-.3-.3-.4-.3-.8,0-.5.3-1.1.5-1.8.5-.4,0-.7,0-.9-.4-.2-.4,0-.8.2-1.1.2-.3.6-.5,1-.8-.2-.2-.4-.3-.5-.4-.5-.4-.5-1.2-.1-1.8.2-.3.6-.4,1-.2.2.1.5.3.8.4.1-.2.2-.5.4-.7.2-.3.5-.6.9-.5.5,0,.7.4.8.9.1.5.2.9.1,1.4,0,.4.1.6.4.8,1.3.8,2.6,1.4,4.1,1.6.3,0,.5,0,.6-.3.2-.3.4-.7.6-1,.3,0,.2.2.3.4.2,1.6.8,3,1.4,4.4.9,2,2.4,3.4,4.2,4.7,1.8,1.3,3.7,1.8,5.8,1.8,1.3,0,2.6,0,3.8-.2,2.4-.4,4.2-1.7,5.8-3.5.9-1,1.8-2.1,2.2-3.4.2-.8.4-1.6.4-2.5,0-1,0-1.9,0-2.9,0-.2,0-.4.2-.5.6.8,1.1,1.6,1.7,2.4.2.3.3.3.6.2,1.1-.3,2.1-.8,3-1.4.3-.2.5-.4.4-.8,0-.4,0-.8.1-1.3,0-.1,0-.2,0-.3.3-.9,1-1,1.6-.3.2.2.2.7.5.7.2,0,.5-.3.7-.4.4-.2.8,0,1,.4.3.6.2,1.2-.2,1.7-.1.1-.3.2-.4.4.3.2.5.4.8.6.2.1.3.4.4.6.1.6-.1,1-.7,1-.7,0-1.3,0-1.9-.5-.4-.3-.4-.2-.8,0-1.1,1-2.3,1.7-3.7,2.1q-.5.1-.3.6c.1.5.2.9.3,1.4,0,.2.1.3.4.3,1.1,0,2.2,0,3.4,0,.2,0,.3-.1.5-.2.3-.3.6-.6.9-.9.5-.4,1.1-.2,1.3.4.2.4,0,.9-.1,1.3.3.1.5.2.8.4.3.3.4.6.3,1Z"/>
    <path class="st3" d="M34.5,7.9c-.1.1,0,.3,0,.5.2,1.5.2,3,0,4.5-.3,1.4-.9,2.7-1.9,3.8-.5.6-1,1.2-1.6,1.7-1.3,1.2-2.8,2-4.6,2.4-.8.2-1.6.3-2.4.3-1,0-1.9,0-2.9-.1-.5,0-1-.1-1.5-.2-1.2-.3-2.3-.9-3.3-1.6-1.5-1-2.6-2.2-3.6-3.7-.4-.5-.6-1.1-.8-1.7-.4-1.1-.8-2.2-1.1-3.4,0-.3,0-.7-.2-1,.8-1.5,1.9-2.7,3.2-3.7.3-.2.4-.4.4-.7.2-1.2.3-2.3.7-3.5.3-.9,1-1.4,1.9-1.4.5,0,.9.3,1.2.6.3.4.5.8.7,1.2,0,.2.1.3.4.2,1.8-.7,3.6-.9,5.5-.7.6,0,1.1.2,1.7.4.3,0,.5,0,.6-.3.2-.4.4-.8.6-1.2.3-.4.6-.7,1.1-.9.5-.2,1,0,1.4.4.7.8.9,1.7.9,2.7,0,.6,0,1.1,0,1.7,0,.3,0,.5.4.7,1.2.8,2.3,1.7,3.2,2.9,0,0,.1.2.2.2Z"/>
    <path class="st9" d="M21.5,11.9c.3,0,.5-.2.8,0,.3.2.2.6.4.9,0,.1.1.3.3.3.2,0,.2-.2.3-.3.2-.3.1-.7.5-.9.2,0,.3,0,.5,0,.2,0,.3.1.4.3.3.2.3.6.5.9,0,0,0,.2.2.3.2,0,.2-.2.3-.3.1-.2.1-.5.4-.6.8.3,1.3,1,1.7,1.8.3.8,0,1.7-.7,2-.3-.2-.3-.6-.4-.8,0-.1,0-.3-.3-.4-.2,0-.2.2-.3.3-.2.3-.2.8-.5,1.1-.2,0-.5.1-.7-.2-.3-.2-.2-.5-.3-.7-.1-.2,0-.6-.4-.6-.2,0-.2.3-.3.5-.1.2-.1.6-.4.7-.3.1-.5,0-.8,0-.3-.3-.2-.7-.4-1,0-.1,0-.3-.3-.3-.1,0-.2.2-.2.3-.2.3-.2.8-.5,1.1-.2,0-.3,0-.4,0-.3-.2-.3-.6-.5-.9,0,0,0-.2-.2-.3-.1,0-.2.1-.2.2-.2.3-.1.7-.4,1,0,.2-.1.3-.4.2-.6-.2-1.2-1.1-1.1-1.7.2-1,1-2.1,2.2-2.5.2.1.3.4.4.7,0,.1,0,.4.3.4.2,0,.2-.2.3-.4.2-.3.2-.8.5-1.1Z"/>
    <path class="st8" d="M21,8c0,1.4-1,2.4-2.4,2.4-1.3,0-2.4-1.1-2.4-2.4,0-1.3,1.1-2.3,2.4-2.4,1.4,0,2.4,1,2.4,2.4Z"/>
    <path class="st8" d="M24.5,8c0-1.4,1-2.4,2.4-2.4,1.3,0,2.4,1,2.4,2.4,0,1.3-1,2.4-2.4,2.4-1.4,0-2.4-1-2.4-2.4Z"/>
    <path class="st6" d="M19.3,16.3c0-.5.2-.9.4-1.3,0-.1,0-.2.2-.2.1,0,.2.1.3.2.2.4.3.8.5,1.3-.4.3-.8.2-1.2.3-.2,0-.1-.2-.2-.2Z"/>
    <path class="st10" d="M25.5,16.4c0-.5.3-1,.5-1.5,0-.1.1-.3.3-.2.1,0,.2.2.2.3.2.4.3.8.4,1.2-.5.3-1,.2-1.5.2Z"/>
    <path class="st11" d="M23.4,16.2c.1-.4.3-.9.5-1.3,0-.1.1-.3.3-.2.1,0,.2.1.2.2.2.4.4.8.4,1.3,0,0,0,.1-.1.1-.4,0-.9,0-1.3-.1Z"/>
    <path class="st2" d="M21.5,11.9c-.1.5-.3.9-.5,1.3,0,.2-.1.4-.3.4-.2,0-.2-.2-.3-.4-.2-.3-.3-.6-.3-1,.4-.3.9-.4,1.5-.4Z"/>
    <path class="st7" d="M21.2,16.3c0-.5.3-.9.5-1.4,0-.1.1-.3.3-.3.1,0,.2.1.2.2.2.4.4.9.4,1.4-.5,0-1,0-1.4,0Z"/>
    <path class="st12" d="M23.7,11.9c-.2.4-.3.8-.5,1.2,0,.1-.1.3-.3.2-.1,0-.2-.1-.2-.2-.2-.4-.4-.8-.4-1.2.5-.2.9-.1,1.4,0Z"/>
    <path class="st0" d="M26,12.4c-.1.3-.2.7-.4,1-.1.3-.3.3-.5,0-.2-.4-.3-.8-.5-1.3,0,0,0-.3.1-.2.4,0,.9.1,1.2.5Z"/>
    <path class="st9" d="M20.4,8c0,1.1-.8,1.8-1.8,1.8-1,0-1.8-.8-1.8-1.9,0-1,.8-1.8,1.8-1.8,1,0,1.9.9,1.8,1.9Z"/>
    <path class="st1" d="M28.7,8c.1.9-.7,1.9-1.8,1.9-1,0-1.8-.8-1.8-1.8,0-1,.8-1.9,1.9-1.9,1,0,1.8.8,1.8,1.8Z"/>
  </g>
  <path class="st5" d="M17.1,13.3c0,.6-.9,1.1-2.1,1.1s-2.1-.5-2.1-1.1.9-1.1,2.1-1.1,2.1.5,2.1,1.1Z"/>
  <path class="st5" d="M32.9,13.3c0,.6-.9,1.1-2.1,1.1s-2.1-.5-2.1-1.1.9-1.1,2.1-1.1,2.1.5,2.1,1.1Z"/>
</svg>