<?xml version="1.0" encoding="UTF-8"?>
<svg id="Capa_1" xmlns="http://www.w3.org/2000/svg" version="1.1" viewBox="0 0 40 40">
  <!-- Generator: Adobe Illustrator 29.0.0, SVG Export Plug-In . SVG Version: 2.1.0 Build 186)  -->
  <defs>
    <style>
      .st0 {
        fill: #f6f7f8;
      }

      .st0, .st1, .st2, .st3, .st4, .st5, .st6, .st7, .st8, .st9 {
        fill-rule: evenodd;
      }

      .st1 {
        fill: #fff;
      }

      .st2 {
        fill: #f7f8f9;
      }

      .st3 {
        fill: #f7f5f5;
      }

      .st4 {
        fill: #f9fafa;
      }

      .st5 {
        fill: #8b6df0;
      }

      .st10 {
        opacity: .6;
      }

      .st10, .st7 {
        fill: #7259c5;
      }

      .st6 {
        fill: #edf1f2;
      }

      .st9 {
        fill: #f8f6f6;
      }
    </style>
  </defs>
  <g>
    <path class="st5" d="M4.8,13.3c.5-3.2,1.7-6,4.1-8.3,2.5-2.4,5.4-3.9,8.8-4.3,1.9-.2,3.8-.3,5.7.1.9.2,1.8.4,2.7.7,1.9.6,3.5,1.7,4.9,3.1,1.9,1.8,2.9,4,3.6,6.5,0,0,0,.2,0,.3-.1,1.2-.6,2.2-1,3.3-.9,2.3-1.8,4.4-3.4,6.3-.6.7-1.2,1.3-2,1.8-2,1.1-4,2.1-6.2,2.6-1.1.3-2.3.3-3.4.2-2.2-.1-4.4-.7-6.4-1.8-2.1-1.2-3.9-2.7-5.3-4.7-.7-1-1-2.1-1.4-3.2-.2-.5-.3-.9-.5-1.4-.1-.4-.2-.8-.2-1.2Z"/>
    <path class="st7" d="M16.6,33c.2,0,.4.2.4.4,0,.7,0,1.4,0,2.1,0,.3,0,.6,0,1,0,.5-.3,1-.7,1.2-1,.6-2,1.2-3.1,1.5-.3,0-.6.1-.9.1-.8,0-1.4-.4-1.5-1-.2-.8.1-1.6.8-1.9.6-.3,1.1-.5,1.7-.8.3-.1.4-.3.4-.6,0-.5,0-1.1,0-1.6s.2-.4.4-.4h2.7Z"/>
    <path class="st7" d="M27.2,37.1c.7,1.1-.5,2.4-1.7,2.3s-.5,0-.8-.2c-1-.3-1.9-.9-2.7-1.4-.5-.3-.8-.8-.8-1.4,0-1.1,0-2.1,0-3.2s0,0,0,0h3.2s0,0,0,0c0,.6,0,1.2,0,1.7s-.1.6.5.8c.5.2,1,.4,1.5.7.3.1.5.4.7.6Z"/>
    <path class="st7" d="M37.8,37.1c-.3.2-.6.1-.9,0-.2,0-.3-.2-.5-.2,0,.2,0,.5,0,.7,0,.2,0,.4-.1.6-.2.5-.7.6-1.1.2-.4-.3-.5-.7-.6-1.2-.2,0-.3.1-.4.2-.2.1-.5.2-.7.2-.7,0-1.1-.6-.9-1.2.2-.5.5-.9.9-1.3.3-.3.4-.6.5-1,.2-1.9.1-3.8,0-5.6,0-1.9-.2-3.8-.3-5.7-.2,0-.2,0-.3.2-.5.7-1.1,1.3-1.6,2-.6.8-1.5,1.2-2.2,1.8-1.4,1.1-3,1.8-4.5,2.4-.5.2-.6.4-.5.9,0,1.1,0,2.2,0,3.4h-3.3c0-.8,0-1.5,0-2.3,0-.3,0-.6,0-.8,0-.3-.1-.4-.4-.4-.5,0-1,0-1.4,0-.8,0-1.5,0-2.2-.2-.2.1-.1.3-.1.4,0,1.1,0,2.2,0,3.2h-3.3c0-1.4,0-2.8,0-4.2s0-.5-.4-.7c-.8-.4-1.6-1-2.3-1.7-1.1-1-2.3-2-3.3-3.2-.4-.5-.7-1.1-1.2-1.8,0,.5,0,.8-.1,1.1-.1,2.6-.3,5.2-.4,7.9,0,1.2,0,2.3.1,3.5,0,.3.2.6.4.8.4.4.7.8,1,1.3.3.7-.2,1.3-.9,1.3-.2,0-.4,0-.6-.2-.2,0-.3-.2-.4-.3-.2,0-.1.3-.2.4,0,.3-.2.6-.5.8-.4.3-.9.3-1.2-.2,0-.2-.2-.4-.1-.6,0-.2,0-.4,0-.6-.2,0-.3,0-.5.1-.3.1-.6.2-.9,0-.3-.2-.2-.6-.2-.9.1-.7.5-1.3,1.2-1.6.2-.1.4-.2.4-.5,0-1.4.1-2.8,0-4.2-.1-2.1,0-4.2.1-6.4.1-1.7.3-3.4.4-5.1.1-1.5.3-3.1.5-4.6,0-.2,0-.3.1-.5.3.8.6,1.7.8,2.5.5,1.5,1.1,3,2.1,4.2.7.8,1.5,1.4,2.2,2.1.9.9,2,1.5,3.1,2,1.3.6,2.8,1,4.2,1.3,1.1.2,2.3.2,3.4.1.7,0,1.4-.2,2.1-.4.8-.2,1.5-.5,2.2-.9.8-.4,1.6-.7,2.3-1.1,1.1-.6,2.1-1.4,2.9-2.3,1.3-1.6,2.2-3.4,3-5.3.5-1.2,1-2.4,1.3-3.7,0-.1,0-.3.2-.4.3,1.3.6,2.6.7,4,.2,2.5.5,4.9.7,7.4.2,2.5.2,5,.2,7.5,0,1.3,0,2.6,0,3.8s0,.5.4.6c.7.3,1,1,1.2,1.7,0,.3.1.6-.2.8Z"/>
    <path class="st1" d="M22.7,11c.4-1.1,1.2-1.7,2.2-2,2.3-.7,4.4.7,4.9,2.8.4,1.9-.6,3.8-2.5,4.4-1.9.7-3.9-.2-4.7-2,0-.2-.2-.4-.1-.6.3,0,.4.3.5.5.7.8,1.6,1,2.6.7.9-.3,1.5-.9,1.6-1.8.2-1-.2-1.9-1-2.5-.8-.6-2.1-.5-2.9.2-.2.1-.3.4-.6.4Z"/>
    <path class="st1" d="M9.8,10.7c-.1-.2,0-.3,0-.4.9-1.3,2.7-1.8,4.2-1.3,1.6.5,2.6,1.9,2.7,3.5.1,2.2-1.8,4.2-4.2,4-1.4-.1-2.8-1.2-3.2-2.6,0-.1,0-.2,0-.4.3,0,.3.3.5.5.6.8,1.8,1.1,2.7.7,1-.4,1.6-1.4,1.6-2.3,0-1-.8-2-1.7-2.2-.7-.2-1.5-.2-2.1.3-.1.1-.3.2-.5.2Z"/>
    <path class="st8" d="M22.7,11c.6-.7,1.3-1.1,2.2-1.1,1.2,0,2.2.9,2.5,2,.3,1.2-.3,2.4-1.4,2.9-1.1.5-2.4.2-3.1-.7-.1-.2-.2-.3-.3-.5-.1-.6-.3-1.1-.1-1.7,0-.3.3-.6.4-.9Z"/>
    <path class="st8" d="M9.8,10.7c.8-.8,1.7-1,2.8-.7,1.1.4,1.8,1.4,1.7,2.5,0,1.1-.8,2.1-1.9,2.4-1.1.3-2.2-.1-2.8-1,0-.1-.2-.3-.2-.4-.4-1-.2-2,.5-2.8Z"/>
    <path class="st8" d="M22.5,20.9c-.3.2-.4,0-.5-.2,0,0,0,0,0,0-.2-.2-.2-.6-.5-.6-.4,0-.4.5-.5.7,0,.2-.1.4-.3.5-.1,0-.2.2-.3.1-.2-.2-.1-.5-.2-.7,0-.2,0-.5-.4-.5-.2,0-.3.2-.4.4-.1.2-.1.5-.4.7-.1.2-.2.3-.4.1-.2-.3-.1-.6-.3-.9,0-.1-.1-.3-.3-.3-.2,0-.2.1-.3.3-.1.2-.2.5-.4.7-.1,0-.2,0-.4-.1-.2-.2-.1-.5-.2-.8-.2-.5-.3-.5-.7-.1,0,0-.1.1-.2.1,0,0-.1.1-.2,0-.6-.5-1-1-1.1-1.8,0-.3,0-.4.4-.4.2,0,.4,0,.6,0q.5.7,1.1,0c.2,0,.4,0,.5,0q.5.7,1.1,0c.2,0,.5-.1.7.2q.5.5,1,0c.3-.3.5-.3.8,0q.5.5,1,0c.3-.3.4-.3.7,0q.5.5,1,0c0,0,.1-.2.3-.2.3,0,.6,0,.8,0,.2,0,.1.2.1.3,0,.7-.4,1.3-1,1.7-.4-.3-.7-.2-.8.3,0,.2-.2.3-.3.5Z"/>
    <path class="st4" d="M19,21.3c.1-.4.2-.8.5-1.1.2-.4.5-.3.7,0,.2.4.3.8.2,1.2-.4.1-.7,0-1.1,0-.1,0-.2,0-.2-.2Z"/>
    <path class="st4" d="M20.7,21.3c.1-.4.3-.8.5-1.2.2-.4.5-.4.7,0,.1.2.2.4.2.6,0,.3,0,.5-.4.5-.3,0-.7.3-1,0Z"/>
    <path class="st2" d="M17.2,21.1c0-.3.2-.6.4-.9,0-.1.2-.3.3-.3.2,0,.3.2.4.3.2.4.3.7.2,1.1-.5,0-.9,0-1.3-.3Z"/>
    <path class="st0" d="M15.7,20.2c0-.2.1-.3.2-.5.2-.3.4-.3.6,0,.2.4.4.8.3,1.3-.3,0-.6-.2-.9-.4-.2,0-.2-.2-.2-.4Z"/>
    <path class="st9" d="M16.5,18.1c0,.2-.1.4-.2.6,0,.1-.2.3-.3.3-.2,0-.3-.2-.4-.3,0-.2-.2-.4-.2-.6.4,0,.8,0,1.1,0Z"/>
    <path class="st9" d="M18.2,18.1c0,.2-.1.4-.2.6,0,.1-.2.3-.3.3-.2,0-.3-.2-.4-.3,0-.2-.2-.4-.2-.6.4,0,.8,0,1.1,0Z"/>
    <path class="st6" d="M22.5,20.9c0-.3.2-.6.3-.9.2-.4.4-.4.7,0,0,0,0,.1,0,.2-.3.4-.7.5-1.1.7Z"/>
    <path class="st3" d="M23.4,18.3c0,0,0,.2-.1.3,0,.2-.2.4-.4.4-.3,0-.3-.3-.4-.4,0,0,0-.1,0-.2.3-.3.7-.3,1,0Z"/>
    <path class="st3" d="M21.7,18.3c0,0,0,.2-.1.3,0,.2-.2.4-.4.4-.3,0-.3-.3-.4-.4,0,0,0-.1,0-.2.3-.3.7-.3,1,0Z"/>
    <path class="st3" d="M19.9,18.3c0,0,0,.2-.1.3,0,.2-.2.4-.4.4-.3,0-.3-.3-.4-.4,0,0,0-.1,0-.2.3-.3.7-.3,1,0Z"/>
  </g>
  <circle class="st10" cx="11.3" cy="19.4" r="1.5"/>
  <circle class="st10" cx="27.1" cy="19.4" r="1.5"/>
</svg>