<?xml version="1.0" encoding="UTF-8"?>
<svg xmlns="http://www.w3.org/2000/svg" viewBox="0 0 2070 250">
  <defs>
    <style>
      .cls-1 {
        fill: #37474f;
      }

      .cls-2, .cls-3 {
        fill: #9a4e9e;
      }

      .cls-4, .cls-5 {
        fill: #fff;
      }

      .cls-6 {
        fill: none;
      }

      .cls-7 {
        fill: #f89728;
      }

      .cls-8 {
        isolation: isolate;
      }

      .cls-9 {
        mix-blend-mode: multiply;
      }

      .cls-9, .cls-5 {
        opacity: .4;
      }

      .cls-9, .cls-10 {
        fill: #95ceff;
      }

      .cls-11 {
        fill: #afdef9;
      }

      .cls-12 {
        fill: #fceaed;
      }

      .cls-13 {
        fill: #56b848;
      }

      .cls-3 {
        stroke: #9a4e9e;
        stroke-miterlimit: 10;
        stroke-width: .5px;
      }

      .cls-14 {
        fill: #f6feff;
      }

      .cls-15 {
        fill: #6fcc62;
      }
    </style>
  </defs>
  <g class="cls-8">
    <g id="Capa_1" data-name="Capa 1">
      <path class="cls-6" d="M1137.24,126.49c-.18-.44-.37-.89-.58-1.33-.15-.32-.31-.65-.47-.97-.39-.77-.8-1.53-1.26-2.3-.02-.03-.04-.07-.06-.1-1.06-1.75-2.31-3.49-3.74-5.16-.1-.12-.2-.24-.31-.35-.57-.66-1.18-1.3-1.8-1.93-6.96-6.97-16.69-11.8-26.61-11.52-22.18,0-36.73,20.09-36.73,31.99h73.45c-.12-2.78-.81-5.59-1.91-8.33Z"/>
      <path class="cls-13" d="M763.19,246.12c-6.73-1.62-13.05-3.7-18.7-6.26,6.26,2.87,12.89,4.97,18.7,6.26Z"/>
      <path class="cls-13" d="M828.04,173.74c0-11.66,8.53-21.27,19.66-22.97-26.27-18.24-67.08-20.57-67.08-34.67,0-7.84,7.27-11.23,14.9-11.23,17.46,0,34.17,13.28,45.46,13.28,13.45,0,23.63-9.22,23.63-22.5,0-27.54-42.55-37.78-65.47-37.78-9.14-.37-18.38,1.07-27.08,3.98,3.65-1.14,7.49-2.06,11.51-2.72,6.8,2.64,11.6,9.22,11.6,16.98,0,10.05-8.14,18.24-18.21,18.24-14.18.43-23.14-16.76-15.24-28.17-20.64,10.32-36.08,29.31-35.64,51.97,0,28.6,15.65,38.81,44.71,50.03,31.65,12.25,44,13.28,44,24.19,0,5.44-4.36,10.52-16,10.52-24.34,0-36.69-15.29-54.54-15.29-12.7,0-23.24,10.52-23.24,25.53-.24,11.86,10.64,20.74,23.08,26.52-.6-14.93,21.38-15.69,21.82-.72,0,2.72-1.02,5.28-2.71,7.17h0c45.52,12.35,107.59-4.2,106.09-57.56-13.33,16.72-41.5,6.91-41.25-14.81ZM854.8,95.66c-.37,14.81-22.05,14.81-22.42,0,.37-14.81,22.05-14.81,22.42,0ZM811.97,68.37c-.14,8.42-12.65,8.42-12.79,0,.14-8.42,12.65-8.42,12.79,0ZM739.35,140.98c.14-8.08,12.14-8.08,12.28,0-.14,8.08-12.14,8.08-12.28,0ZM745.49,213.2c.03-6.21,9.46-6.21,9.48,0-.03,6.21-9.46,6.21-9.48,0ZM799.18,218.01c.41-16.18,24.09-16.19,24.5,0-.41,16.18-24.09,16.19-24.5,0ZM829.93,207.33c.02-5.11,7.78-5.11,7.8,0-.02,5.11-7.78,5.11-7.8,0Z"/>
      <path class="cls-13" d="M1006.04,97.95c1.65-3.83,2.28-8.32,1.66-13.37.1,1.05.15,2.14.15,3.28,0,3.88-.67,7.19-1.82,10.1Z"/>
      <path class="cls-13" d="M1052.38,71.45c1.64-.95,3.3-1.88,5.01-2.74-1.68.86-3.35,1.78-5.01,2.74Z"/>
      <path class="cls-13" d="M1042.8,77.67c2.1-1.57,4.3-3.03,6.54-4.43-2.2,1.38-4.39,2.85-6.54,4.43Z"/>
      <path class="cls-13" d="M1195.85,148.1c.41-69.82-74.88-110.44-136.77-80.24,5.37-2.57,11.05-4.71,17.04-6.32,5.7,3.86,9.44,10.4,9.44,17.81-1.05,29.46-44.05,27.76-42.78-1.65,0,0,0,0,0,0-71.8,54.26-37.01,174.69,61.11,172.2,42.9,0,89.06-17.02,89.06-42.9,0-13.63-10.89-22.81-23.63-22.81s-30.16,16.7-58.16,16.7c-36.37,0-45.46-18.4-45.46-29.63h102.55c18.17,0,27.6-4.45,27.6-23.17ZM1031,202.62c.13-7.71,11.58-7.71,11.71,0-.13,7.71-11.58,7.71-11.71,0ZM1016.94,153.17c.86-27.92,41.31-27.91,42.17,0-.86,27.92-41.31,27.92-42.17,0ZM1160.51,221.4c-.5,19.68-29.29,19.68-29.78,0,.5-19.68,29.29-19.68,29.78,0ZM1117.67,218.9c-.19,11.48-17.24,11.48-17.44,0,.19-11.48,17.24-11.48,17.44,0ZM1093.58,236.66c-.02,5.26-8.01,5.26-8.03,0,.02-5.26,8.01-5.26,8.03,0ZM1108.6,75.9c-.17,9.89-14.86,9.89-15.02,0,.17-9.89,14.86-9.89,15.02,0ZM1127.31,134.82h-29.77c-1.27,18.04-27.44,18.03-28.7,0h-3.15c0-11.9,14.55-31.99,36.73-31.99,9.92-.28,19.65,4.55,26.61,11.52-.13-.13-.25-.28-.38-.41,11.35-19.58,42.44-11.18,42.23,11.74-.12,24.62-33.84,31.44-43.57,9.14Z"/>
      <path class="cls-13" d="M1136.19,124.18c.16.32.32.65.47.97-.15-.32-.3-.65-.47-.97Z"/>
      <path class="cls-13" d="M1137.24,126.49c1.1,2.75,1.78,5.55,1.91,8.33,0-2.5-.68-5.37-1.91-8.33Z"/>
      <path class="cls-13" d="M1130.83,116.27c.1.12.21.24.31.35-.1-.12-.21-.24-.31-.35Z"/>
      <path class="cls-13" d="M1134.88,121.79s.04.06.06.1c-.02-.03-.04-.06-.06-.1Z"/>
      <path class="cls-2" d="M1475.65,198.91h-63.26V34.82c0-19.41-12.36-29.28-29.44-29.28s-29.45,9.88-29.45,29.28v187.58c0,17.7,14.18,27.57,29.45,27.57,0,0,92.7,0,92.7,0,39.51,1.17,39.38-52.69,0-51.07Z"/>
      <path class="cls-2" d="M1648.72,78.42c-13.29-14.64-28.49-20.43-50.9-20.43-51.65,0-91.54,42.56-91.54,96.01s39.89,96,91.54,96c22.41,0,37.61-5.79,50.9-20.43,12.09,26.13,56.89,21.43,57.35-10.55V88.98c-.45-31.99-45.22-36.7-57.35-10.56ZM1606.17,198.94c-26.19,0-40.64-20.42-40.64-44.94s14.45-44.94,40.64-44.94c54.12-1.15,54.12,91.03,0,89.88Z"/>
      <path class="cls-2" d="M1981.28,116.1c0-7.82,7.28-11.24,14.9-11.24,17.45,0,34.18,13.28,45.45,13.28,13.45,0,23.62-9.19,23.62-22.46,0-27.57-42.54-37.79-65.43-37.79-45.44,0-73.07,29.96-73.07,60.26,0,28.61,15.63,38.81,44.71,50.05,31.63,12.26,43.99,13.28,43.99,24.17,0,5.45-4.37,10.55-16,10.55-24.35,0-36.71-15.32-54.53-15.32-12.73,0-23.27,10.55-23.27,25.53,0,23.48,39.99,36.76,75.62,36.76,38.9,0,72.72-22.12,72.72-59.57,0-58.22-88.72-53.45-88.72-74.22Z"/>
      <path class="cls-11" d="M1822.72,0h-37.75c3.66,0,22.22,0,37.75,0h0Z"/>
      <path class="cls-11" d="M1844.34,0h0s-10.14,0-10.14,0h0c4.94,0,8.69,0,10.14,0Z"/>
      <path class="cls-11" d="M1844.34,65.64V15.93h-10.14v58.41s64.46,21.59,61.96,81.14c.07-.04.21-.13.21-.13-4.32,108.61-159.12,108.53-163.4,0,0,0,38.42-23.91,81.7,0,30.62,16.92,58.74,9.9,72.61,4.35-2.33-21.52-11.62-47.64-39.9-63.93.05.46.15.88.16,1.37-.47,18.4-27.37,18.39-27.84,0,.13-4.96,2.21-8.54,5.14-10.82-.64-.19-1.23-.4-1.88-.58l-.19-69.8h-37.79v49.71c-100.11,34.81-77.76,182.25,29.69,184.26,52.1,0,94.37-42.31,94.37-94.55,0-41.8-27.13-77.26-64.68-89.71ZM1824.19,131.15c-.18,10.88-16.35,10.89-16.53,0,.19-10.89,16.35-10.89,16.53,0ZM1811.98,62.06c-.13,7.62-11.44,7.62-11.57,0,.13-7.63,11.45-7.62,11.57,0Z"/>
      <path class="cls-13" d="M1887.28,159.7c-13.87,5.56-41.99,12.58-72.61-4.35-43.27-23.92-81.7,0-81.7,0,4.28,108.53,159.08,108.61,163.4,0,0,0-.14.09-.21.13-.5,11.93-3.63,25.34-10.56,40.44.34-1.46,3.77-17,1.69-36.22ZM1777.95,188.3c.24-14.16,21.26-14.16,21.5,0-.24,14.15-21.26,14.15-21.5,0ZM1814.34,208.63c.12-7.06,10.6-7.05,10.72,0-.12,7.05-10.6,7.06-10.72,0ZM1837.25,190.56c.19-11.01,16.54-11.01,16.72,0-.19,11.01-16.54,11.01-16.72,0Z"/>
      <path class="cls-13" d="M1819.69,97.13c.47,18.39,27.37,18.4,27.84,0-.01-.49-.11-.91-.16-1.37-6.47-3.73-13.93-6.94-22.54-9.46-2.94,2.28-5.02,5.86-5.14,10.82Z"/>
      <path class="cls-13" d="M1807.66,131.15c.18,10.89,16.35,10.89,16.53,0-.18-10.89-16.35-10.89-16.53,0Z"/>
      <path class="cls-13" d="M1811.98,62.06c-.12-7.63-11.45-7.63-11.57,0,.13,7.62,11.45,7.62,11.57,0Z"/>
      <path class="cls-4" d="M1814.34,208.63c.12,7.06,10.6,7.05,10.72,0-.12-7.05-10.6-7.06-10.72,0Z"/>
      <path class="cls-4" d="M1837.25,190.56c.19,11.01,16.54,11.01,16.72,0-.19-11.01-16.54-11.01-16.72,0Z"/>
      <path class="cls-4" d="M1777.95,188.3c.24,14.15,21.26,14.15,21.5,0-.24-14.16-21.26-14.16-21.5,0Z"/>
      <path class="cls-11" d="M1822.95,85.73c.65.18,1.24.4,1.88.58,7.66-5.96,21.25-2.8,22.54,9.46,28.28,16.3,37.57,42.42,39.9,63.93,5.14-2.06,8.28-3.87,8.88-4.22,2.51-59.55-61.96-81.14-61.96-81.14V15.93h-11.44l.19,69.8Z"/>
      <path class="cls-5" d="M1822.95,85.73c.65.18,1.24.4,1.88.58,7.66-5.96,21.25-2.8,22.54,9.46,28.28,16.3,37.57,42.42,39.9,63.93,5.14-2.06,8.28-3.87,8.88-4.22,2.51-59.55-61.96-81.14-61.96-81.14V15.93h-11.44l.19,69.8Z"/>
      <path class="cls-11" d="M1834.2,0h0s-11.48,0-11.48,0h0c4.17,0,8.1,0,11.48,0Z"/>
      <path class="cls-5" d="M1834.2,0h0s-11.48,0-11.48,0h0c4.17,0,8.1,0,11.48,0Z"/>
      <path class="cls-13" d="M1885.59,195.92c6.93-15.11,10.06-28.52,10.56-40.44-.6.36-3.73,2.16-8.88,4.22,2.08,19.22-1.34,34.75-1.69,36.22Z"/>
      <path class="cls-5" d="M1885.59,195.92c6.93-15.11,10.06-28.52,10.56-40.44-.6.36-3.73,2.16-8.88,4.22,2.08,19.22-1.34,34.75-1.69,36.22Z"/>
      <path class="cls-13" d="M1824.83,86.31c8.6,2.52,16.07,5.73,22.54,9.46-1.28-12.26-14.88-15.42-22.54-9.46Z"/>
      <path class="cls-5" d="M1824.83,86.31c8.6,2.52,16.07,5.73,22.54,9.46-1.28-12.26-14.88-15.42-22.54-9.46Z"/>
      <path class="cls-10" d="M1778.48,12.35c-.19-.34-.36-.7-.48-1.07.13.38.29.72.48,1.07Z"/>
      <path class="cls-10" d="M1847.49.51c.83.3,1.51.75,2.08,1.29-.58-.56-1.29-.98-2.08-1.29Z"/>
      <path class="cls-10" d="M1781.89,15.44c-.27-.11-.51-.28-.76-.42.26.14.49.31.76.42Z"/>
      <path class="cls-10" d="M1849.89,2.19c.4.45.73.94,1,1.48-.27-.54-.61-1.04-1-1.48Z"/>
      <path class="cls-10" d="M1779.91,14.18c-.27-.24-.5-.51-.73-.79.23.28.45.55.73.79Z"/>
      <path class="cls-10" d="M1851.13,4.14c.29.71.49,1.47.6,2.26-.11-.79-.3-1.56-.6-2.26Z"/>
      <path class="cls-10" d="M1851.75,6.61c.09.84.1,1.71.01,2.56.11-.87.08-1.72-.01-2.56Z"/>
      <path class="cls-10" d="M1840.94,11.37c5.91-.12,7.65-5.91,6.5-10.87-.73-.28-1.52-.48-2.42-.48h-22.3c-15.53,0-34.09,0-37.75,0h-.65c-5.03.05-7.32,4.61-6.75,9.16,0,.62.2,1.18.35,1.75.73.27,1.5.45,2.32.45h60.7Z"/>
      <path class="cls-9" d="M1777.82,10.89c.04.14.13.25.17.39-.04-.12-.04-.25-.07-.37-.03-.01-.07,0-.1-.02Z"/>
      <path class="cls-9" d="M1781.13,15.02c-.44-.24-.86-.5-1.23-.83.37.33.79.59,1.23.83Z"/>
      <path class="cls-9" d="M1779.18,13.4c-.27-.32-.5-.67-.7-1.04.2.37.43.71.7,1.04Z"/>
      <path class="cls-9" d="M1850.89,3.67c.08.16.17.3.24.47-.07-.17-.16-.31-.24-.47Z"/>
      <path class="cls-9" d="M1784.32,15.93c-.86,0-1.66-.2-2.42-.49.76.3,1.56.49,2.42.49Z"/>
      <path class="cls-9" d="M1849.57,1.81c.12.12.21.26.32.38-.11-.13-.2-.27-.32-.38Z"/>
      <path class="cls-9" d="M1847.44.48s0,0,0,.01c.02,0,.03.01.05.02-.02,0-.03-.03-.05-.03Z"/>
      <path class="cls-9" d="M1851.73,6.4c0,.07.02.14.02.21,0-.07-.01-.14-.02-.21Z"/>
      <path class="cls-10" d="M1834.2,15.93h10.82c3.71,0,6.75-3.04,6.75-6.76.09-.85.08-1.72-.01-2.56,0-.07-.01-.14-.02-.21-.1-.79-.31-1.55-.6-2.26-.07-.16-.16-.31-.24-.47-.27-.54-.6-1.04-1-1.48-.11-.12-.2-.27-.32-.38-.57-.54-1.26-.99-2.08-1.29-.02,0-.03-.01-.05-.02,1.15,4.97-.59,10.75-6.5,10.87h-60.7c-.82,0-1.59-.18-2.32-.45.03.12.04.25.07.37.13.38.3.73.48,1.07.2.37.44.72.7,1.04.23.28.46.55.73.79.37.33.79.59,1.23.83.25.14.49.31.76.42.76.3,1.56.49,2.42.49h49.88Z"/>
      <path class="cls-9" d="M1834.2,15.93h10.82c3.71,0,6.75-3.04,6.75-6.76.09-.85.08-1.72-.01-2.56,0-.07-.01-.14-.02-.21-.1-.79-.31-1.55-.6-2.26-.07-.16-.16-.31-.24-.47-.27-.54-.6-1.04-1-1.48-.11-.12-.2-.27-.32-.38-.57-.54-1.26-.99-2.08-1.29-.02,0-.03-.01-.05-.02,1.15,4.97-.59,10.75-6.5,10.87h-60.7c-.82,0-1.59-.18-2.32-.45.03.12.04.25.07.37.13.38.3.73.48,1.07.2.37.44.72.7,1.04.23.28.46.55.73.79.37.33.79.59,1.23.83.25.14.49.31.76.42.76.3,1.56.49,2.42.49h49.88Z"/>
      <g>
        <path class="cls-13" d="M176.65,240.01c-2.56,3.04-5.55,5.4-9.07,7.06,3.52-1.65,6.51-4.01,9.07-7.06Z"/>
        <path class="cls-13" d="M237.7,3.77c3.98.44,8.04,1.49,11.94,3.27-3.93-1.95-8.01-3.12-11.94-3.27Z"/>
        <path class="cls-13" d="M265.19,21.98c.62,1.15,1.27,2.25,1.82,3.54-.56-1.23-1.17-2.41-1.82-3.54Z"/>
        <path class="cls-13" d="M270.81,38.2c-.63-4.39-1.9-8.27-3.46-11.86.87,2.11,1.66,4.37,2.32,6.86-17.54,4.36-34.87-11.5-32.01-29.43h0c-33.62-2.64-41.01,12.92-56.62,59.29,0,0-28.74,83.4-28.74,83.4h-.71l-27.76-80.57c-17.07,2.5-25.31-20.8-10.7-29.59,1.93,4.68,4.07,10.58,6.26,16.8-7.89-23.19-17.06-48.42-40.78-49.34,3.46,4.41,5.5,9.97,5.5,15.99-.08,27.53-37.37,35.99-49.43,11.74.52-1.64,1.08-3.19,1.68-4.65-.6,1.46-1.15,3.01-1.68,4.65C27.08,70.76,3.26,190.14,0,223.72c0,12.25,10.15,26.2,27.61,26.2,26.54,0,31.26-17.69,34.17-36.4l17.46-107.59h.71l39.64,119.18c5.35,16.23,13.13,23.56,28.12,24.66-19.72-26.07,18.5-54.86,37.91-28.6,0,0,38.34-115.24,38.34-115.24h.71l7.71,47.63c9.39-23.13,44.37-16.65,44.51,8.71.28,21.32-27.26,31.24-40.62,15.09l5.86,36.17c2.31,20.88,11.34,37.31,34.17,36.4,4.02.08,7.81-.75,11.24-2.23-8.14,3.06-19,2.77-25.83-.18,8.18-8.21,22.8-10.23,33.08-4.48,5.58-4.9,9.13-11.87,9.15-19.32,0-8.16-5.11-35.73-9.83-60.95l-23.28-124.58ZM13.49,215.26c.62-24.32,36.2-24.32,36.81,0-.62,24.32-36.2,24.32-36.81,0ZM41.6,188.93c.15-8.59,12.91-8.59,13.05,0-.15,8.59-12.91,8.59-13.05,0ZM66.7,75.66c.21-12.64,18.98-12.64,19.19,0-.21,12.64-18.98,12.64-19.19,0ZM106.85,168.4c.82-26.59,39.34-26.59,40.16,0-.82,26.59-39.34,26.59-40.16,0ZM183.16,100.84c.62-24.67,36.72-24.66,37.34,0-.62,24.67-36.72,24.67-37.34,0ZM207.25,68.5c.16-9.42,14.14-9.41,14.3,0-.16,9.42-14.14,9.41-14.3,0ZM256.56,102.96c.15-8.64,12.97-8.63,13.11,0-.15,8.64-12.97,8.63-13.11,0ZM246.74,196.58c.13-7.49,11.25-7.49,11.38,0-.13,7.49-11.25,7.49-11.38,0Z"/>
        <path class="cls-13" d="M178.29,237.65c-.52.74-.98,1.58-1.54,2.26.56-.67,1.02-1.51,1.54-2.26Z"/>
        <path class="cls-13" d="M78.36,3.75c-10.16-.75-20.51-.01-29.04,5.91,8.52-5.92,18.88-6.64,29.04-5.91Z"/>
        <path class="cls-15" d="M13.49,215.26c.61,24.32,36.2,24.32,36.81,0-.61-24.32-36.2-24.32-36.81,0Z"/>
        <path class="cls-15" d="M41.6,188.93c.14,8.59,12.91,8.59,13.05,0-.14-8.59-12.91-8.59-13.05,0Z"/>
        <path class="cls-15" d="M84.11,19.76c0-6.03-2.04-11.58-5.5-15.99h0c-.08,0-.17,0-.25-.01-10.16-.73-20.52,0-29.04,5.91-5.14,3.57-9.62,8.99-12.96,17.19-.59,1.46-1.15,3.01-1.68,4.65,12.06,24.25,49.35,15.79,49.43-11.74Z"/>
        <path class="cls-15" d="M123.83,65.9c-1.47-4.28-2.97-8.6-4.44-12.79-2.19-6.22-4.33-12.12-6.26-16.8-14.62,8.79-6.38,32.08,10.7,29.59Z"/>
        <path class="cls-15" d="M66.7,75.66c.21,12.64,18.98,12.64,19.19,0-.21-12.64-18.98-12.64-19.19,0Z"/>
        <path class="cls-15" d="M106.85,168.4c.82,26.59,39.34,26.59,40.16,0-.82-26.59-39.34-26.59-40.16,0Z"/>
        <path class="cls-15" d="M147.69,249.76h.04c7.98.71,14.51-.19,19.85-2.7,3.51-1.65,6.51-4.01,9.07-7.06.03-.04.07-.06.1-.1.56-.67,1.02-1.51,1.54-2.26,3.06-4.37,5.5-9.78,7.31-16.49h0c-19.41-26.26-57.63,2.54-37.91,28.6Z"/>
        <path class="cls-15" d="M183.16,100.84c.62,24.67,36.71,24.67,37.34,0-.62-24.67-36.71-24.67-37.34,0Z"/>
        <path class="cls-15" d="M207.25,68.5c.16,9.42,14.14,9.42,14.3,0-.16-9.41-14.14-9.42-14.3,0Z"/>
        <path class="cls-15" d="M276.87,162.26c-.14-25.35-35.12-31.84-44.51-8.71v.04l3.89,23.72v.04c13.36,16.15,40.9,6.24,40.62-15.09Z"/>
        <path class="cls-15" d="M246.74,196.58c.13,7.49,11.25,7.49,11.38,0-.13-7.49-11.25-7.49-11.38,0Z"/>
        <path class="cls-15" d="M261.69,247.52c6.83,2.95,17.68,3.24,25.83.18,2.91-1.1,5.5-2.59,7.4-4.59-.05-.03-.1-.04-.14-.06-10.29-5.75-24.91-3.73-33.08,4.48Z"/>
        <path class="cls-15" d="M269.67,33.2c-.66-2.5-1.45-4.75-2.32-6.86-.11-.27-.22-.55-.34-.81-.55-1.28-1.2-2.39-1.82-3.54-4.11-7.56-9.6-12.22-15.56-14.94-3.9-1.78-7.96-2.84-11.94-3.27-.01,0-.02,0-.03,0h0c-2.87,17.93,14.47,33.79,32.01,29.43Z"/>
        <path class="cls-15" d="M256.56,102.96c.15,8.63,12.97,8.64,13.11,0-.15-8.63-12.97-8.64-13.11,0Z"/>
      </g>
      <path class="cls-15" d="M776.96,94.36c10.07,0,18.21-8.19,18.21-18.24,0-7.76-4.8-14.34-11.6-16.98-4.02.66-7.86,1.57-11.51,2.72-3.56,1.11-6.94,2.44-10.12,3.98-.08.11-.14.24-.22.35-7.9,11.41,1.06,28.6,15.24,28.17Z"/>
      <path class="cls-15" d="M811.97,68.37c-.14-8.42-12.64-8.42-12.79,0,.14,8.42,12.64,8.42,12.79,0Z"/>
      <path class="cls-15" d="M854.8,95.66c-.37-14.81-22.05-14.81-22.42,0,.37,14.81,22.05,14.81,22.42,0Z"/>
      <path class="cls-15" d="M739.35,140.98c.14,8.08,12.14,8.08,12.28,0-.14-8.08-12.14-8.08-12.28,0Z"/>
      <path class="cls-15" d="M847.74,150.77h-.04c-11.13,1.69-19.66,11.31-19.66,22.97-.25,21.72,27.92,31.53,41.25,14.81-.55-17.73-9.52-29.43-21.55-37.78Z"/>
      <path class="cls-15" d="M744.09,239.66s0,.02,0,.03c.13.06.28.1.41.16,5.64,2.56,11.97,4.64,18.7,6.26,0,0,0,0,0,0h0c1.69-1.89,2.71-4.45,2.71-7.17-.45-14.97-22.42-14.21-21.82.72Z"/>
      <path class="cls-15" d="M745.49,213.2c.03,6.21,9.46,6.21,9.48,0-.03-6.21-9.46-6.21-9.48,0Z"/>
      <path class="cls-15" d="M799.18,218.01c.41,16.19,24.09,16.18,24.5,0-.41-16.19-24.09-16.18-24.5,0Z"/>
      <path class="cls-15" d="M829.93,207.33c.02,5.11,7.78,5.11,7.8,0-.02-5.11-7.78-5.11-7.8,0Z"/>
      <g>
        <path class="cls-13" d="M959.94,20.59c.1.23.23.44.33.67-.1-.23-.22-.44-.33-.67Z"/>
        <path class="cls-13" d="M905.7,66.88c-3.99-.24-8.04-.18-11.92.25,3.45-.33,8.58-.24,11.92-.25Z"/>
        <path class="cls-13" d="M985.32,96.15c-.37-10.99,13.31-17.9,21.86-11.19-3.87-19.84-27-18.35-44.79-18.08v-19.86c-28.29,12.39-43.07-30.69-13.54-38.56-4.33-2.51-9.38-3.97-14.81-3.91-16.71,0-28.35,12.25-28.35,27.58v17.61c10.6-2.9,21.56,5.5,21.39,16.55-.48,22.01-32.46,22.79-34.09.93-13.06,1.67-23.98,8.04-23.68,24.17-.33,20.39,17.18,25.66,36.37,24.5v106.53c0,15.33,11.64,27.58,28.35,27.58s28.35-12.25,28.35-27.58v-106.53h15.65c8.65.41,16.16-1.75,21.49-5.96-7.73.31-14.24-6.01-14.22-13.78ZM949.54,75.1c-.02,4.19-6.38,4.19-6.39,0,.02-4.19,6.38-4.19,6.39,0ZM938.58,109.55c-.16,9.22-13.85,9.22-14.01,0,.16-9.22,13.85-9.22,14.01,0ZM922.14,211.54c.52-20.52,30.54-20.51,31.05,0-.52,20.52-30.54,20.51-31.05,0ZM946.66,176.57c.02-5.38,8.19-5.38,8.21,0-.02,5.38-8.19,5.38-8.21,0ZM944.97,124.59c.03-6.49,9.88-6.49,9.9,0-.03,6.49-9.88,6.49-9.9,0Z"/>
        <path class="cls-13" d="M961.64,25.68c.11.5.2,1,.29,1.5-.09-.51-.18-1.01-.29-1.5Z"/>
        <path class="cls-13" d="M957.41,16.14c.13.19.26.39.39.59-.13-.19-.25-.39-.39-.59Z"/>
        <path class="cls-13" d="M949.71,8.89c.16.1.31.21.47.31-.16-.1-.31-.21-.47-.31Z"/>
        <path class="cls-15" d="M1007.85,91.39c0-1.14-.05-2.23-.15-3.28-.11-1.09-.27-2.14-.51-3.15-8.56-6.71-22.23.2-21.86,11.19-.03,7.76,6.49,14.09,14.22,13.78.1,0,.19.02.29.01,2.79-2.18,4.85-5.02,6.2-8.46,1.15-2.9,1.82-6.22,1.82-10.1Z"/>
        <path class="cls-15" d="M927.09,66.29c.17-11.05-10.79-19.45-21.39-16.55v17.14c-3.34.01-8.47-.08-11.92.25-.25.02-.55.03-.78.06,0,0,0,.01,0,.02,1.63,21.86,33.6,21.08,34.09-.93Z"/>
        <path class="cls-15" d="M962.4,47.02v-14.89c0-1.7-.19-3.34-.47-4.95-.09-.51-.18-1.01-.29-1.5-.35-1.52-.79-3-1.37-4.41-.1-.23-.23-.45-.33-.67-.61-1.35-1.33-2.64-2.14-3.86-.13-.19-.25-.39-.39-.59-1.93-2.74-4.37-5.08-7.24-6.94-.16-.1-.31-.21-.47-.31-.25-.15-.47-.33-.72-.48-.05.01-.08.04-.13.05-29.53,7.87-14.75,50.95,13.54,38.56Z"/>
        <path class="cls-15" d="M938.58,109.55c-.16-9.22-13.85-9.22-14.01,0,.16,9.22,13.85,9.22,14.01,0Z"/>
        <path class="cls-15" d="M922.14,211.54c.52,20.51,30.53,20.52,31.05,0-.52-20.51-30.53-20.52-31.05,0Z"/>
        <path class="cls-15" d="M946.66,176.57c.02,5.38,8.19,5.38,8.21,0-.02-5.38-8.19-5.38-8.21,0Z"/>
        <path class="cls-15" d="M944.97,124.59c.03,6.49,9.88,6.49,9.9,0-.03-6.49-9.87-6.49-9.9,0Z"/>
        <path class="cls-15" d="M949.54,75.1c-.02-4.19-6.38-4.19-6.39,0,.02,4.19,6.38,4.19,6.39,0Z"/>
      </g>
      <path class="cls-15" d="M1085.55,79.35c0-7.41-3.74-13.95-9.44-17.81-5.99,1.61-11.66,3.75-17.04,6.32-.57.27-1.13.56-1.69.85-1.71.86-3.36,1.79-5.01,2.74-1.02.59-2.04,1.17-3.04,1.79-2.24,1.41-4.44,2.86-6.54,4.43-.01,0-.02.01-.03.02h0c-1.27,29.42,41.73,31.11,42.78,1.65Z"/>
      <path class="cls-15" d="M1108.6,75.9c-.17-9.89-14.86-9.89-15.02,0,.17,9.89,14.86,9.89,15.02,0Z"/>
      <path class="cls-15" d="M1016.94,153.17c.86,27.92,41.31,27.92,42.17,0-.86-27.92-41.31-27.92-42.17,0Z"/>
      <path class="cls-15" d="M1097.55,134.82h-28.7c1.26,18.03,27.43,18.04,28.7,0Z"/>
      <path class="cls-15" d="M1128.65,113.94c.13.13.25.28.38.41.62.63,1.23,1.27,1.8,1.93.1.12.21.24.31.35,1.42,1.67,2.67,3.41,3.74,5.16.02.03.04.06.06.1.46.76.87,1.53,1.26,2.3.16.32.32.65.47.97.21.45.4.89.58,1.33,1.23,2.96,1.91,5.83,1.91,8.33h-11.84c9.73,22.3,43.45,15.48,43.57-9.14.21-22.92-30.88-31.32-42.23-11.74Z"/>
      <path class="cls-15" d="M1160.51,221.4c-.5-19.68-29.29-19.67-29.78,0,.5,19.68,29.29,19.68,29.78,0Z"/>
      <path class="cls-15" d="M1117.67,218.9c-.19-11.48-17.24-11.48-17.44,0,.19,11.48,17.24,11.48,17.44,0Z"/>
      <path class="cls-15" d="M1093.58,236.66c-.02-5.26-8.01-5.26-8.03,0,.02,5.26,8.01,5.26,8.03,0Z"/>
      <path class="cls-15" d="M1031,202.62c.13,7.71,11.58,7.71,11.71,0-.13-7.71-11.58-7.71-11.71,0Z"/>
      <g>
        <path class="cls-13" d="M1310.51,61.43c-16,0-29.85,9.89-39.28,20.45-11.24-25.21-56.32-22.59-56.7,10.56,0,0,0,130.01,0,130.01-.05,10.19,4.56,17.6,11.15,22.15-6.81-28.23,32.75-41.85,44.8-15.73,1.55-1.15.42-67.89.75-71.07,0-27.26,7.98-33.37,32.72-40.19,20.72-5.79,35.63-10.2,35.63-28.6,0-16.66-14.55-27.58-29.06-27.58ZM1256.05,78.88c-.02,4.54-6.9,4.54-6.92,0,.02-4.54,6.9-4.54,6.92,0ZM1224.93,95.48c.4-15.92,23.69-15.92,24.09,0-.4,15.92-23.69,15.92-24.09,0ZM1243.5,200.58c.14-7.96,11.96-7.96,12.1,0-.14,7.96-11.96,7.96-12.1,0ZM1249.12,123.08c.14-8.53,12.81-8.53,12.96,0-.14,8.53-12.81,8.53-12.96,0ZM1293.2,85c.44-17.25,25.67-17.24,26.1,0-.44,17.25-25.67,17.24-26.1,0ZM1323.86,91.73c.02-4.9,7.46-4.9,7.48,0-.02,4.9-7.46,4.9-7.48,0Z"/>
        <path class="cls-13" d="M1263.93,241.32c-4.06,4.07-9.54,6.85-15.39,8.04,5.83-1,11.26-3.67,15.39-8.04Z"/>
        <path class="cls-13" d="M1266.2,238.71c-.19.26-.42.5-.62.75.2-.26.43-.48.62-.75Z"/>
        <path class="cls-15" d="M1249.02,95.48c-.4-15.92-23.69-15.92-24.09,0,.4,15.92,23.69,15.92,24.09,0Z"/>
        <path class="cls-15" d="M1256.05,78.88c-.02-4.54-6.91-4.54-6.92,0,.02,4.54,6.91,4.54,6.92,0Z"/>
        <path class="cls-15" d="M1293.2,85c.43,17.24,25.67,17.25,26.1,0-.43-17.24-25.67-17.25-26.1,0Z"/>
        <path class="cls-15" d="M1323.86,91.73c.02,4.9,7.46,4.9,7.48,0-.02-4.9-7.46-4.9-7.48,0Z"/>
        <path class="cls-15" d="M1249.12,123.08c.14,8.53,12.81,8.53,12.96,0-.14-8.53-12.81-8.53-12.96,0Z"/>
        <path class="cls-15" d="M1225.68,244.59s0,.07.02.11c6.53,4.97,15,6.24,22.85,4.65,5.85-1.18,11.32-3.96,15.39-8.04.59-.59,1.12-1.22,1.64-1.86.21-.25.43-.49.62-.75,2.14-2.84,3.67-6.14,4.28-9.85-12.05-26.13-51.61-12.5-44.8,15.73Z"/>
        <path class="cls-15" d="M1243.5,200.58c.13,7.96,11.96,7.96,12.1,0-.13-7.96-11.96-7.96-12.1,0Z"/>
      </g>
      <g>
        <path class="cls-3" d="M460.89,80.48c-2.03-2.13,1.85-15.04,2.38-16.85,1.2-4.13,2.84-8.12,4.71-11.98,3.2-6.61,10.71-22.74,18.64-25.01,11.33-3.25-6.57-18.63-7.7-5.81-.51,5.76-8.46,13.01-11.46,17.84-3.06,4.93-5.82,10.06-7.98,15.45-3.19,7.96-7.6,20.38-4.39,28.82.52,1.38,1.9,1.82,3.23,1.81h.87c1.96-.02,3.01-2.91,1.71-4.27h0Z"/>
        <path class="cls-3" d="M374.82,84.63l.86-.25c.97-.28,1.7-1.46,1.81-2.4.98-8.36-4.93-18.46-9.1-25.27-3.22-5.26-6.99-10.1-11.18-14.61-3.75-4.04-11.43-9.11-13.01-14.28-3.4-11.13-18.52,6.31-5.81,7.7,8.01.87,17.35,14.53,21.82,20.96,3.05,4.38,13.4,19.38,11.11,24.71-1.01,2.35,1.43,4.03,3.5,3.44h0Z"/>
        <path class="cls-13" d="M688.86,80.9c1.05,1.08,2.08,2.18,3.03,3.35-.94-1.17-1.96-2.27-3.03-3.35Z"/>
        <path class="cls-13" d="M684.76,77.09c.84.7,1.65,1.43,2.44,2.18-.8-.74-1.58-1.48-2.44-2.18Z"/>
        <path class="cls-13" d="M657.63,64.08c-27.35-6.99-59.93-1.57-72.36,17.77-11.15-25.21-56.33-22.58-56.7,10.56,0,0,0,130.01,0,130.01,0,15.33,11.64,27.58,28.35,27.58s28.35-12.25,28.35-27.58v-84.07c-1.49-38.56,55.27-43.93,61.89-7.33,6.78-13.07,27.31-8.12,27.21,6.82.15,14.26-19.1,19.81-26.54,7.88-.02-3.55.11-8.46-.35-12.38.71,14.08.23,88.13.35,89.09.35,36.58,56.34,36.62,56.7,0,0,0,0-98.37,0-98.37,0-14.3-3.38-25.92-9.28-35.14-16.24,31.54-60.18,2.55-37.62-24.82ZM538.05,90.11c.43-17.05,25.37-17.04,25.8,0-.43,17.05-25.37,17.04-25.8,0ZM550.95,112.81c-.02,5.6-8.52,5.6-8.55,0,.02-5.6,8.52-5.6,8.55,0ZM542.4,231.5c.02-5.6,8.53-5.6,8.55,0-.02,5.6-8.53,5.6-8.55,0ZM568.67,178.03c.02-4.93,7.51-4.93,7.53,0-.02,4.93-7.51,4.93-7.53,0ZM550.95,148.27c.47-18.58,27.65-18.57,28.12,0-.47,18.58-27.65,18.57-28.12,0ZM659.92,211.98c.03-6.58,10.01-6.58,10.04,0-.03,6.58-10.01,6.58-10.04,0ZM670.58,227.1c.22-13.26,19.92-13.27,20.15,0-.22,13.27-19.92,13.27-20.15,0ZM697.21,124.59c-.03,6.49-9.88,6.49-9.9,0,.03-6.49,9.88-6.49,9.9,0Z"/>
        <path class="cls-15" d="M563.85,90.11c-.43-17.04-25.37-17.05-25.8,0,.43,17.04,25.37,17.05,25.8,0Z"/>
        <path class="cls-15" d="M542.4,112.81c.02,5.6,8.53,5.6,8.55,0-.02-5.6-8.53-5.6-8.55,0Z"/>
        <path class="cls-15" d="M550.95,148.27c.47,18.57,27.65,18.58,28.12,0-.47-18.57-27.65-18.58-28.12,0Z"/>
        <path class="cls-15" d="M695.25,88.9c-1.04-1.63-2.16-3.18-3.35-4.65-.95-1.18-1.98-2.27-3.03-3.35-.54-.56-1.09-1.1-1.66-1.63-.79-.75-1.6-1.48-2.44-2.18-7.47-6.24-16.69-10.56-27.11-13.04-.01.01-.02.03-.03.04-22.56,27.37,21.38,56.36,37.62,24.82Z"/>
        <path class="cls-15" d="M647.83,145.72c7.45,11.93,26.69,6.38,26.54-7.88.1-14.93-20.43-19.88-27.21-6.82v.04c.15.68.23,1.49.32,2.28.46,3.92.33,8.83.35,12.38Z"/>
        <path class="cls-15" d="M568.67,178.03c.02,4.93,7.51,4.93,7.53,0-.02-4.93-7.51-4.93-7.53,0Z"/>
        <path class="cls-15" d="M542.4,231.5c.02,5.6,8.52,5.6,8.55,0-.02-5.6-8.52-5.6-8.55,0Z"/>
        <path class="cls-15" d="M670.58,227.1c.23,13.27,19.92,13.26,20.15,0-.23-13.27-19.92-13.26-20.15,0Z"/>
        <path class="cls-15" d="M659.92,211.98c.03,6.58,10.01,6.58,10.04,0-.03-6.58-10.01-6.58-10.04,0Z"/>
        <path class="cls-15" d="M687.31,124.59c.03,6.49,9.87,6.49,9.9,0-.03-6.49-9.87-6.49-9.9,0Z"/>
        <g>
          <path class="cls-13" d="M510.75,147.41c4.19-7.68,4-16.43-4.56-26.05-5-5.56-9-12.12-10.56-19.43-2.19-9.93-7.56-15.12-14.37-17.06-7.81-2.25-15.19-6.06-20.31-12-1.12-1.25-2.12-2.56-3-4-.69-1.19-1.5-2.25-2.38-3.25-4.75-5.37-11.88-8-22.5-5.81-7.31,1.5-14.94,1.69-22.06-.56-9.75-3.12-16.88-1-22,3.94-3.81,3.62-8.12,6.87-12.81,9-1.81.94-3.75,1.62-5.69,2.12-2.25.62-4.62,1-7,1.06-8.75.19-16.25,4.75-20.25,16.99-2.37,7.06-6,13.81-11.56,18.87-6.44,5.87-8.69,12.06-8.06,18.06.06.94.25,1.94.5,2.94,2.31,9.5,2.44,19.62-2.25,28.18-1.63,2.94-2.56,6.06-2.56,9.31-.19,5.19,1.87,10.81,7.19,16.74,4.94,5.56,8.94,12.12,10.56,19.37,2.19,10,7.56,15.18,14.38,17.12,9.37,2.69,18.19,7.62,23.31,15.99,4.56,7.43,12.19,11.68,24.81,9.06,7.31-1.56,15-1.75,22.13.56,9.69,3.06,16.87,1,22-3.94,7-6.81,15.69-11.93,25.5-12.18,8.69-.19,16.19-4.75,20.25-16.99,2.31-7.12,6-13.81,11.5-18.87,2.06-1.87,3.69-3.75,4.94-5.69,3.38-5.12,3.94-10.31,2.69-15.31-1.31-5.12-1.94-10.43-1.5-15.62.37-4.37,1.56-8.62,3.69-12.56Z"/>
          <g>
            <g>
              <path class="cls-14" d="M370.71,213.19c2.92.3,5.04-6.2,6.51-10.48-4.76-1.82-9.32-4-13.6-6.59,1.05,6.86,3.68,16.66,7.09,17.07Z"/>
              <path class="cls-14" d="M469.25,193.83c-4.48,2.95-9.3,5.45-14.37,7.56,1.47,4.09,3.73,12.13,6.97,11.8.12-.01.24-.09.36-.13,3.63-1.15,6.32-12.74,7.04-19.23Z"/>
              <path class="cls-7" d="M469.25,193.83c4.43-2.91,8.56-6.17,12.22-9.89,1.34-1.44,1.75-3.06,1.57-4.59-.52-4.37-6.06-7.91-9.91-3.77-27.53,27.87-84.5,29.76-113.41,3.05-5.48-5.26-13.84,3.08-8.34,8.36,3.71,3.47,7.85,6.47,12.24,9.13,4.28,2.59,8.84,4.77,13.6,6.59,24.24,9.28,53.62,8.71,77.66-1.32,5.06-2.11,9.89-4.61,14.37-7.56Z"/>
            </g>
            <g>
              <path class="cls-12" d="M416.19,94.62c-63.25,2.44-63.25,93.15,0,95.59,26.37,0,47.69-21.43,47.69-47.79s-21.31-47.79-47.69-47.79ZM386.5,142.41c-.56-24.8,30.31-39.05,48.75-22.87-16.56,2.31-15.19,26.61,1.63,26.93,3.5,0,6.62-1.37,9-3.5-1.87,38.92-58.25,38.42-59.37-.56Z"/>
              <path class="cls-1" d="M445.87,142.97c-2.39,2.15-5.5,3.49-8.97,3.49-16.81-.32-18.23-24.58-1.66-26.89-18.41-16.21-49.31-1.98-48.75,22.83,1.16,38.99,57.51,39.5,59.38.57Z"/>
            </g>
          </g>
        </g>
        <ellipse class="cls-2" cx="338.75" cy="28.52" rx="12.5" ry="12.49"/>
        <ellipse class="cls-2" cx="482.5" cy="22.27" rx="12.5" ry="12.49"/>
        <circle class="cls-15" cx="360.63" cy="100.36" r="9.37"/>
        <circle class="cls-15" cx="391.88" cy="81.62" r="3.12"/>
        <circle class="cls-15" cx="435.63" cy="81.62" r="9.37"/>
        <ellipse class="cls-15" cx="476.25" cy="109.74" rx="12.5" ry="12.49"/>
        <path class="cls-15" d="M505.88,190.89c-.5.06-1,.06-1.5.06-8.63,0-15.62-7-15.62-15.62s7-15.62,15.62-15.62c.94,0,1.81.06,2.69.25-.44,5.19.19,10.5,1.5,15.62,1.25,5,.69,10.18-2.69,15.31Z"/>
        <path class="cls-15" d="M351.25,150.34c0,12.06-9.81,21.87-21.87,21.87-3.63,0-7.06-.87-10.06-2.5,0-3.25.94-6.37,2.56-9.31,4.69-8.56,4.56-18.68,2.25-28.18-.25-1-.44-2-.5-2.94,1.81-.56,3.75-.81,5.75-.81,12.06,0,21.87,9.81,21.87,21.87Z"/>
        <circle class="cls-15" cx="388.75" cy="222.19" r="6.25"/>
        <circle class="cls-15" cx="423.13" cy="225.31" r="9.37"/>
      </g>
    </g>
  </g>
</svg>