<?xml version="1.0" encoding="UTF-8"?>
<svg id="Capa_1" xmlns="http://www.w3.org/2000/svg" version="1.1" viewBox="0 0 595.28 841.89">
  <!-- Generator: Adobe Illustrator 29.0.0, SVG Export Plug-In . SVG Version: 2.1.0 Build 186)  -->
  <defs>
    <style>
      .st0 {
        fill: #fffcf9;
      }

      .st1 {
        fill: #ffa41d;
      }

      .st2 {
        fill: #fff;
      }

      .st3 {
        fill: #082a44;
      }

      .st4 {
        opacity: .46;
      }

      .st5 {
        fill: #6db9f2;
        opacity: .41;
      }

      .st6 {
        fill: #f0cc6b;
      }

      .st7 {
        fill: #bc4bac;
      }

      .st8 {
        fill: #3579c4;
      }

      .st9 {
        fill: #9b513a;
      }

      .st10 {
        fill: #38d68a;
      }

      .st11 {
        fill: #ef476f;
      }

      .st12 {
        fill: #ff7415;
      }
    </style>
  </defs>
  <g>
    <path class="st5" d="M-112.37,631.52l-.59,71.2s.89,7.87,7.25,9.59v.29c.64.05,1.24.06,1.81.02.57.04,1.17.04,1.81-.02v-.29c6.35-1.72,7.25-9.59,7.25-9.59l-.59-71.2h-16.93Z"/>
    <path class="st11" d="M-109.06,664.9l-.21,34.01s.57,6.89,4.59,8.4v.25c.41.05.79.05,1.15.01.36.04.74.03,1.15-.01v-.25c4.02-1.51,4.59-8.4,4.59-8.4l-.2-34.01h-11.06Z"/>
    <g class="st4">
      <path class="st0" d="M-104.97,709.7c-.37,0-.68-.28-.72-.66-.03-.39.26-.74.65-.78.05,0,2.57-.27,4.47-2.6,1.86-2.28,2.55-5.72,2.05-10.23-1.42-12.8-1.44-58.41-1.44-58.87,0-.4.32-.72.72-.72s.72.32.72.72c0,.46.02,46,1.43,58.71.55,4.93-.26,8.74-2.39,11.33-2.31,2.8-5.31,3.08-5.44,3.09-.02,0-.04,0-.06,0Z"/>
    </g>
    <path class="st5" d="M-82.26,631.52l-.59,71.2s.89,7.87,7.25,9.59v.29c.64.05,1.24.06,1.81.02.57.04,1.17.04,1.81-.02v-.29c6.35-1.72,7.25-9.59,7.25-9.59l-.59-71.2h-16.93Z"/>
    <path class="st6" d="M-78.95,647.32l-.2,48.02s.57,9.73,4.59,11.86v.36c.41.07.79.07,1.15.02.36.05.74.05,1.15-.02v-.36c4.02-2.13,4.59-11.86,4.59-11.86l-.2-48.02h-11.06Z"/>
    <g class="st4">
      <path class="st0" d="M-74.85,709.7c-.37,0-.68-.28-.72-.66-.03-.39.26-.74.65-.78.05,0,2.57-.27,4.47-2.6,1.86-2.28,2.55-5.72,2.05-10.23-1.42-12.8-1.44-58.41-1.44-58.87,0-.4.32-.72.72-.72s.72.32.72.72c0,.46.02,46,1.43,58.71.55,4.93-.26,8.74-2.39,11.33-2.31,2.8-5.31,3.08-5.44,3.09-.02,0-.04,0-.06,0Z"/>
    </g>
    <path class="st5" d="M-52.86,632.95l-.59,71.2s.89,7.87,7.25,9.59v.29c.64.05,1.24.06,1.81.01.57.04,1.17.04,1.81-.01v-.29c6.35-1.72,7.25-9.59,7.25-9.59l-.59-71.2h-16.93Z"/>
    <path class="st10" d="M-49.71,685.69l-.05,11.08s.57,9.73,4.59,11.86v.36c.41.07.79.07,1.15.02.36.05.74.05,1.15-.02v-.36c4.02-2.13,4.59-11.86,4.59-11.86l-.05-11.08h-11.38Z"/>
    <g class="st4">
      <path class="st0" d="M-45.46,711.13c-.37,0-.68-.28-.72-.66-.03-.39.26-.74.65-.78.05,0,2.57-.27,4.47-2.6,1.86-2.28,2.55-5.72,2.05-10.23-1.42-12.8-1.44-58.41-1.44-58.87,0-.4.32-.72.72-.72s.72.32.72.72c0,.46.02,46,1.43,58.71.55,4.93-.26,8.74-2.39,11.33-2.31,2.8-5.31,3.08-5.44,3.09-.02,0-.04,0-.06,0Z"/>
    </g>
    <path class="st3" d="M-28.25,718.19v-60.58h5.4c1.38,0,2.51-1.13,2.51-2.51v-.51c0-1.38-1.13-2.51-2.51-2.51h-105.48c-1.38,0-2.51,1.13-2.51,2.51v.51c0,1.38,1.13,2.51,2.51,2.51h7.59v60.58h-11.51v12.41H-18.93v-12.41h-9.32ZM-115.72,657.61H-33.27v60.58h-82.46v-60.58Z"/>
    <path class="st0" d="M-99.68,616.2c.16,1.14-.64,2.19-1.78,2.35-1.14.16-2.19-.64-2.35-1.78-.16-1.14.64-2.19,1.78-2.35,1.14-.16,2.19.64,2.35,1.78Z"/>
    <path class="st0" d="M-70.68,604.07c-.27,1.12-1.4,1.8-2.51,1.53-1.12-.27-1.8-1.4-1.53-2.51.27-1.12,1.4-1.8,2.51-1.53,1.12.27,1.8,1.4,1.53,2.51Z"/>
    <path class="st0" d="M-74.04,619c-.27,1.12-1.4,1.8-2.51,1.53-1.12-.27-1.8-1.4-1.53-2.51.27-1.12,1.4-1.8,2.51-1.53,1.12.27,1.8,1.4,1.53,2.51Z"/>
    <path class="st0" d="M-45.53,624.3c.04,1.15-.86,2.11-2.01,2.15-1.15.04-2.11-.86-2.15-2.01-.04-1.15.86-2.11,2.01-2.15,1.15-.04,2.11.86,2.15,2.01Z"/>
    <path class="st0" d="M-37.57,618.13c-.07,1.15-1.06,2.02-2.21,1.95s-2.02-1.06-1.95-2.21c.07-1.15,1.06-2.02,2.21-1.95,1.15.07,2.02,1.06,1.95,2.21Z"/>
    <path class="st0" d="M-69.83,625.09c-.27,1.12-1.4,1.8-2.51,1.53-1.12-.27-1.8-1.4-1.53-2.51.27-1.12,1.4-1.8,2.51-1.53s1.8,1.4,1.53,2.51Z"/>
    <path class="st0" d="M-106.4,625.81c.16,1.14-.64,2.19-1.78,2.35s-2.19-.64-2.35-1.78c-.16-1.14.64-2.19,1.78-2.35,1.14-.16,2.19.64,2.35,1.78Z"/>
    <path class="st0" d="M-102.81,636.56c.16,1.14-.64,2.19-1.78,2.35-1.14.16-2.19-.64-2.35-1.78-.16-1.14.64-2.19,1.78-2.35s2.19.64,2.35,1.78Z"/>
  </g>
  <g>
    <path class="st12" d="M717.2,245.13s30.13,5.33,36.92,14.17c6.79,8.83-4.87,18.67-.46,23.43,4.42,4.76,41.9,4.53,41.9,4.53l-.34,2.27s-45.53,2.71-49.26-2.73c-3.74-5.44-1.59-8.38-.91-12.68.89-5.62-2.38-9.98-9.51-12.46-6.74-2.34-17.67-4.98-17.67-4.98l-.68-11.55Z"/>
    <g>
      <path class="st12" d="M706.48,162.46s-1.06-7.55,1.21-9.06c2.26-1.51,7.4,0,10.12-2.42,2.72-2.42-1.52-7.6,1.81-10.27,3.77-3.02,9.36.6,11.78-2.11,2.42-2.72,2.42-3.93,2.42-3.93l2.57,2.11s-1.21,2.87-3.62,4.83c-2.42,1.96-7.7-.75-9.66,2.42-1.41,2.27,3.62,6.64.75,9.81-2.87,3.17-7.55,1.66-9.81,4.68-2.26,3.02,2.57,4.53.6,7.7-1.96,3.17-3.02,5.28-3.02,5.28l-5.13-9.06Z"/>
      <path class="st7" d="M712.56,159.06c-.26,0-.51-.09-.73-.26l-4.19-3.51c-.48-.4-.54-1.12-.14-1.6.4-.48,1.12-.54,1.6-.14l4.19,3.51c.48.4.54,1.12.14,1.6-.22.27-.55.41-.87.41Z"/>
      <path class="st7" d="M719.63,155.53c-.33.09-.7,0-.98-.24l-1.99-1.84c-.42-.39-.44-1.05-.05-1.47.39-.42,1.05-.44,1.48-.06l1.99,1.84c.42.39.44,1.05.05,1.47-.14.15-.32.25-.5.3Z"/>
      <path class="st7" d="M723.01,149.02c-.29.19-.66.23-1,.08l-2.47-1.1c-.52-.23-.76-.85-.52-1.37.24-.52.86-.76,1.38-.53l2.47,1.1c.52.23.76.85.52,1.37-.08.19-.22.34-.38.44Z"/>
      <path class="st7" d="M740.27,137.64c.82-.15,3.62-1.85,3.62-1.85,0,0-3.05-.54-3.81-.58.6-.96,2.12-1.82,2.49-2.9-1.29-.07-2.76.64-4,.48.43-1.09.89-2.41.88-3.6-1.16.3-1.87,1.49-2.99,1.79-.24-1.19-.75-2.48-.77-3.7-1.28,1.17-2.78,2.31-3.93,3.59-.7-.73-1.16-1.84-1.82-2.68-.19,2.11-.46,3.93-.44,6.17.02,3.07,1.46,4.65,2.74,5.75,3.25,2.81,8.57,2.01,12.04.53-1.39-.8-2.87-2.23-4-2.99Z"/>
    </g>
    <g>
      <path class="st12" d="M644.6,167.53s-2.01-7.35-4.68-7.85c-2.68-.49-6.8,2.92-10.25,1.77-3.45-1.15-1.61-7.59-5.72-8.72-4.66-1.29-8.36,4.25-11.66,2.7-3.29-1.54-3.77-2.65-3.77-2.65l-1.52,2.96s2.24,2.16,5.24,3.01c2.99.85,6.78-3.73,9.83-1.59,2.19,1.53-.71,7.53,3.18,9.32,3.89,1.78,7.59-1.45,10.86.43,3.27,1.88-.57,5.18,2.48,7.31,3.05,2.14,4.86,3.66,4.86,3.66l1.14-10.35Z"/>
      <path class="st7" d="M637.67,166.81c.24-.1.44-.28.56-.53l2.46-4.88c.28-.56.06-1.24-.5-1.52-.56-.28-1.24-.06-1.52.5l-2.46,4.88c-.28.56-.06,1.24.5,1.52.31.16.66.16.96.03Z"/>
      <path class="st7" d="M629.78,166.35c.34-.05.65-.27.8-.61l1.1-2.47c.23-.52,0-1.14-.53-1.37-.53-.23-1.14,0-1.38.53l-1.1,2.47c-.23.52,0,1.14.53,1.37.19.08.39.11.58.08Z"/>
      <path class="st7" d="M624.11,161.7c.34.06.7-.05.95-.32l1.84-1.99c.39-.42.36-1.08-.06-1.47-.43-.39-1.09-.36-1.48.06l-1.84,1.99c-.39.42-.36,1.08.06,1.46.15.14.33.22.52.26Z"/>
      <path class="st7" d="M603.76,158.06c-.81.18-4.05-.28-4.05-.28,0,0,2.58-1.7,3.27-2.04-.93-.64-2.67-.84-3.43-1.68,1.16-.58,2.79-.5,3.87-1.13-.83-.83-1.77-1.87-2.23-2.96,1.19-.18,2.3.63,3.45.47-.25-1.19-.29-2.57-.75-3.71,1.64.57,3.47,1.03,5.03,1.74.36-.95.34-2.15.62-3.18,1,1.87,1.97,3.43,2.84,5.49,1.2,2.83.49,4.85-.24,6.36-1.88,3.86-7.08,5.23-10.85,5.24.96-1.28,1.76-3.18,2.49-4.33Z"/>
    </g>
    <path class="st1" d="M726.71,270.72s0-34.88-3.17-70.21c-3.17-35.33-13.59-46.89-48.01-47.56-35.1-.68-46.65,31.71-46.2,48.01.45,16.31,0,68.85,0,68.85h.23c-.08,1.65-.11,3.28,0,4.87.21,3.18,2.74,9.84,7.13,12.23,6.96,3.79,16.58,4.11,17.29,2.76.56-.88.2-1.16-.25-1.8,1.83.7,3.76-1.84,1.36-3.02,1.41.37,2.55-.86,2.03-2.22-.49-1.29-2.42-1.2-3.58-1.58-2.65-.88-3.3-1.85-2.92-4.67.27-2.05,1.75-4.2,3.75-6.33l49.44.46c1.65,1.74,2.7,3.55,2.53,5.42-.26,2.83-1.49,4.67-4.18,5.42-1.18.33-3.09.14-3.65,1.4-.59,1.33.49,2.61,1.91,2.32-2.46,1.06-.66,3.69,1.2,3.09-.49.61-.86.88-.35,1.79.64,1.38,10.26,1.56,17.41-1.88,4.51-2.17,7.37-8.68,7.75-11.85.21-1.78.25-3.64.25-5.5h.04Z"/>
    <g>
      <path class="st9" d="M704.22,181.36c0,4.43-3.6,8.02-8.04,8.02s-8.04-3.59-8.04-8.02,3.6-8.02,8.04-8.02,8.04,3.59,8.04,8.02Z"/>
      <path class="st2" d="M702.8,181.39c0,3.72-3.01,6.73-6.73,6.73s-6.73-3.01-6.73-6.73,3.01-6.73,6.73-6.73,6.73,3.01,6.73,6.73Z"/>
      <path class="st8" d="M700.01,181.39c0,2.18-1.76,3.94-3.94,3.94s-3.94-1.76-3.94-3.94,1.76-3.94,3.94-3.94,3.94,1.76,3.94,3.94Z"/>
      <path class="st2" d="M696.56,180.52c0,.88-.71,1.59-1.59,1.59s-1.59-.71-1.59-1.59.71-1.59,1.59-1.59,1.59.71,1.59,1.59Z"/>
    </g>
    <path class="st12" d="M717.91,205.17c-4.01.47-9.39,2.64-14.03-1.01-4.64-3.66-8.68-14.42-9.91-16.69-1.33-2.46-2.64-3.57-3.84-2.91s-1.07,2.34-1.07,2.34c0,0-1.72-3.94-4.44-2.65-2.57,1.22-1.41,4.3-1.41,4.3,0,0-1.28-1.57-2.95-.47-1.27.83.49,6.87,2.89,14.67,2.17,7.05,7.6,25.17,19.42,25.36,11.82.19,22.33-4.29,22.68-10.17.34-5.88-1.82-13.44-7.35-12.79Z"/>
    <g>
      <path class="st9" d="M665.38,182.27c0,4.43-3.6,8.02-8.04,8.02s-8.04-3.59-8.04-8.02,3.6-8.02,8.04-8.02,8.04,3.59,8.04,8.02Z"/>
      <path class="st2" d="M663.96,182.3c0,3.72-3.01,6.73-6.73,6.73s-6.73-3.01-6.73-6.73,3.01-6.73,6.73-6.73,6.73,3.01,6.73,6.73Z"/>
      <path class="st8" d="M661.17,182.3c0,2.18-1.76,3.94-3.94,3.94s-3.94-1.76-3.94-3.94,1.76-3.94,3.94-3.94,3.94,1.76,3.94,3.94Z"/>
      <path class="st2" d="M657.72,181.42c0,.88-.71,1.59-1.59,1.59s-1.59-.71-1.59-1.59.71-1.59,1.59-1.59,1.59.71,1.59,1.59Z"/>
    </g>
    <path class="st12" d="M632.5,207.45c3.94-.88,9.74-.6,12.91-5.59,3.17-4.98,3.44-16.48,3.85-19.02.45-2.76,1.31-4.24,2.67-4.01,1.36.23,1.78,1.86,1.78,1.86,0,0,.32-4.29,3.31-3.96,2.83.31,2.75,3.6,2.75,3.6,0,0,.69-1.9,2.63-1.41,1.47.37,1.81,6.65,2.11,14.8.27,7.37,1.13,26.27-9.97,30.35-11.1,4.08-22.5,3.32-24.76-2.11-2.26-5.44-2.72-13.29,2.72-14.49Z"/>
    <path class="st12" d="M652.8,163.66c.47,1.28,2.62,1.45,5.26.32s4.27-2.38,3.96-3.23c-.31-.85-1.29-3.07-4.73-1.48-3.44,1.59-5.02,2.97-4.5,4.39Z"/>
    <path class="st12" d="M700.75,163.53c-.49,1.27-2.65,1.41-5.27.24-2.62-1.17-4.24-2.44-3.91-3.29.33-.85,1.33-3.05,4.75-1.41,3.41,1.64,4.97,3.05,4.43,4.46Z"/>
    <ellipse class="st9" cx="679.15" cy="199.98" rx="2.26" ry="2.94"/>
    <path class="st7" d="M800.76,286.14c.8-.22,3.44-2.16,3.44-2.16,0,0-3.08-.28-3.84-.25.51-1.01,1.96-2,2.23-3.1-1.29.04-2.7.87-3.94.83.34-1.12.67-2.48.57-3.67-1.13.4-1.73,1.64-2.82,2.05-.34-1.17-.96-2.41-1.09-3.62-1.18,1.28-2.57,2.55-3.61,3.91-.76-.67-1.31-1.73-2.04-2.51,0,2.12-.12,3.95.09,6.19.28,3.06,1.85,4.5,3.22,5.49,3.48,2.52,8.71,1.26,12.04-.51-1.45-.67-3.05-1.97-4.24-2.64Z"/>
    <polygon class="st12" points="654.69 231.31 658.32 238.56 662.39 231.76 659.45 231.31 658.32 233.58 657.18 230.86 654.69 231.31"/>
    <polygon class="st12" points="671.68 231.99 676.21 239.01 682.55 231.31 678.93 231.08 675.53 234.71 674.62 231.54 671.68 231.99"/>
    <polygon class="st12" points="694.33 231.76 698.18 237.88 702.71 230.86 698.86 231.08 697.95 233.8 696.14 231.08 694.33 231.76"/>
    <polygon class="st12" points="663.53 242.86 666.7 249.2 671.68 241.73 668.28 241.28 666.47 244.9 665.34 241.05 663.53 242.86"/>
    <polygon class="st12" points="685.49 241.96 687.98 249.2 692.74 241.28 689.12 241.28 687.98 243.99 687.31 240.6 685.49 241.96"/>
    <polygon class="st12" points="674.4 250.79 677.57 258.94 682.55 251.01 679.38 250.56 677.34 254.19 676.89 250.56 674.4 250.79"/>
  </g>
</svg>